%TF.GenerationSoftware,KiCad,Pcbnew,8.0.6*%
%TF.CreationDate,2025-03-18T14:58:06-04:00*%
%TF.ProjectId,PCB-Test,5043422d-5465-4737-942e-6b696361645f,rev?*%
%TF.SameCoordinates,Original*%
%TF.FileFunction,Copper,L2,Inr*%
%TF.FilePolarity,Positive*%
%FSLAX46Y46*%
G04 Gerber Fmt 4.6, Leading zero omitted, Abs format (unit mm)*
G04 Created by KiCad (PCBNEW 8.0.6) date 2025-03-18 14:58:06*
%MOMM*%
%LPD*%
G01*
G04 APERTURE LIST*
G04 Aperture macros list*
%AMRoundRect*
0 Rectangle with rounded corners*
0 $1 Rounding radius*
0 $2 $3 $4 $5 $6 $7 $8 $9 X,Y pos of 4 corners*
0 Add a 4 corners polygon primitive as box body*
4,1,4,$2,$3,$4,$5,$6,$7,$8,$9,$2,$3,0*
0 Add four circle primitives for the rounded corners*
1,1,$1+$1,$2,$3*
1,1,$1+$1,$4,$5*
1,1,$1+$1,$6,$7*
1,1,$1+$1,$8,$9*
0 Add four rect primitives between the rounded corners*
20,1,$1+$1,$2,$3,$4,$5,0*
20,1,$1+$1,$4,$5,$6,$7,0*
20,1,$1+$1,$6,$7,$8,$9,0*
20,1,$1+$1,$8,$9,$2,$3,0*%
G04 Aperture macros list end*
%TA.AperFunction,ComponentPad*%
%ADD10R,1.700000X1.700000*%
%TD*%
%TA.AperFunction,ComponentPad*%
%ADD11O,1.700000X1.700000*%
%TD*%
%TA.AperFunction,ComponentPad*%
%ADD12RoundRect,0.200000X0.200000X0.450000X-0.200000X0.450000X-0.200000X-0.450000X0.200000X-0.450000X0*%
%TD*%
%TA.AperFunction,ComponentPad*%
%ADD13O,0.800000X1.300000*%
%TD*%
%TA.AperFunction,ComponentPad*%
%ADD14C,0.800000*%
%TD*%
%TA.AperFunction,ComponentPad*%
%ADD15C,6.400000*%
%TD*%
%TA.AperFunction,ViaPad*%
%ADD16C,0.700000*%
%TD*%
G04 APERTURE END LIST*
D10*
%TO.N,/SCD40_EN*%
%TO.C,J10*%
X161800000Y-90750000D03*
D11*
%TO.N,/OZONE_EN*%
X159260000Y-90750000D03*
%TO.N,/PM25_EN*%
X156720000Y-90750000D03*
%TO.N,/SHT4X_EN*%
X154180000Y-90750000D03*
%TD*%
D10*
%TO.N,/SCL*%
%TO.C,J8*%
X175500000Y-105250000D03*
D11*
%TO.N,/SDA*%
X178040000Y-105250000D03*
%TD*%
D10*
%TO.N,Net-(D1-A)*%
%TO.C,JP1*%
X168000000Y-105275000D03*
D11*
%TO.N,+5V*%
X168000000Y-102735000D03*
%TD*%
D10*
%TO.N,/OZONE_VCC*%
%TO.C,J2*%
X182420000Y-55750000D03*
D11*
%TO.N,unconnected-(J2-Pin_2-Pad2)*%
X184960000Y-55750000D03*
%TO.N,GND*%
X187500000Y-55750000D03*
%TO.N,/SCL*%
X190040000Y-55750000D03*
%TO.N,/SDA*%
X192580000Y-55750000D03*
%TD*%
D12*
%TO.N,unconnected-(J1-Pin_1-Pad1)*%
%TO.C,J1*%
X173750000Y-56250000D03*
D13*
%TO.N,unconnected-(J1-Pin_2-Pad2)*%
X172500000Y-56250000D03*
%TO.N,/PM25_RST*%
X171250000Y-56250000D03*
%TO.N,/PM25_TX*%
X170000000Y-56250000D03*
%TO.N,/PM25_RX*%
X168750000Y-56250000D03*
%TO.N,/PM25_SET*%
X167500000Y-56250000D03*
%TO.N,GND*%
X166250000Y-56250000D03*
%TO.N,/PM25_VCC*%
X165000000Y-56250000D03*
%TD*%
D10*
%TO.N,/SHT4X_VCC*%
%TO.C,J4*%
X156550000Y-80075000D03*
D11*
%TO.N,unconnected-(J4-Pin_2-Pad2)*%
X156550000Y-77535000D03*
%TO.N,GND*%
X156550000Y-74995000D03*
%TO.N,/SCL*%
X156550000Y-72455000D03*
%TO.N,/SDA*%
X156550000Y-69915000D03*
%TD*%
D14*
%TO.N,GND*%
%TO.C,H1*%
X153600000Y-104000000D03*
X154302944Y-102302944D03*
X154302944Y-105697056D03*
X156000000Y-101600000D03*
D15*
X156000000Y-104000000D03*
D14*
X156000000Y-106400000D03*
X157697056Y-102302944D03*
X157697056Y-105697056D03*
X158400000Y-104000000D03*
%TD*%
%TO.N,GND*%
%TO.C,H3*%
X201600000Y-104000000D03*
X202302944Y-102302944D03*
X202302944Y-105697056D03*
X204000000Y-101600000D03*
D15*
X204000000Y-104000000D03*
D14*
X204000000Y-106400000D03*
X205697056Y-102302944D03*
X205697056Y-105697056D03*
X206400000Y-104000000D03*
%TD*%
%TO.N,GND*%
%TO.C,H4*%
X201600000Y-56000000D03*
X202302944Y-54302944D03*
X202302944Y-57697056D03*
X204000000Y-53600000D03*
D15*
X204000000Y-56000000D03*
D14*
X204000000Y-58400000D03*
X205697056Y-54302944D03*
X205697056Y-57697056D03*
X206400000Y-56000000D03*
%TD*%
D10*
%TO.N,/PM25_RST*%
%TO.C,J9*%
X161750000Y-96750000D03*
D11*
%TO.N,/PM25_TX*%
X159210000Y-96750000D03*
%TO.N,/PM25_RX*%
X156670000Y-96750000D03*
%TO.N,/PM25_SET*%
X154130000Y-96750000D03*
%TD*%
D14*
%TO.N,GND*%
%TO.C,H2*%
X153600000Y-56000000D03*
X154302944Y-54302944D03*
X154302944Y-57697056D03*
X156000000Y-53600000D03*
D15*
X156000000Y-56000000D03*
D14*
X156000000Y-58400000D03*
X157697056Y-54302944D03*
X157697056Y-57697056D03*
X158400000Y-56000000D03*
%TD*%
D10*
%TO.N,/SCD40_VCC*%
%TO.C,J3*%
X204625000Y-70675000D03*
D11*
%TO.N,unconnected-(J3-Pin_2-Pad2)*%
X204625000Y-73215000D03*
%TO.N,GND*%
X204625000Y-75755000D03*
%TO.N,/SCL*%
X204625000Y-78295000D03*
%TO.N,/SDA*%
X204625000Y-80835000D03*
%TD*%
D10*
%TO.N,VCC*%
%TO.C,J5*%
X187775000Y-105250000D03*
D11*
%TO.N,GND*%
X185235000Y-105250000D03*
%TD*%
D10*
%TO.N,VCC*%
%TO.C,J7*%
X205000000Y-92725000D03*
D11*
%TO.N,GND*%
X205000000Y-95265000D03*
%TD*%
D10*
%TO.N,VCC*%
%TO.C,J6*%
X195500000Y-105250000D03*
D11*
%TO.N,GND*%
X192960000Y-105250000D03*
%TD*%
D16*
%TO.N,+5V*%
X177706250Y-64600000D03*
X194700000Y-86300000D03*
X167000000Y-81750000D03*
X167637500Y-63362500D03*
X192000000Y-70750000D03*
%TO.N,GND*%
X163750000Y-101250000D03*
X174625000Y-68125000D03*
X179387500Y-68100000D03*
X167000000Y-76500000D03*
X166000000Y-66750000D03*
X188000000Y-66500000D03*
X200612500Y-74137500D03*
X197250000Y-96500000D03*
X191250000Y-88750000D03*
X160000000Y-76500000D03*
X193612500Y-74250000D03*
%TO.N,/SCL*%
X187750000Y-78250000D03*
X178750000Y-73000000D03*
%TO.N,/SDA*%
X188750000Y-80835000D03*
X178750000Y-71500000D03*
X183750000Y-71500000D03*
%TD*%
%TA.AperFunction,Conductor*%
%TO.N,GND*%
G36*
X204002443Y-50200596D02*
G01*
X204450150Y-50218186D01*
X204459845Y-50218948D01*
X204902424Y-50271330D01*
X204912016Y-50272850D01*
X205349096Y-50359792D01*
X205358550Y-50362062D01*
X205787453Y-50483025D01*
X205796706Y-50486031D01*
X206214802Y-50640274D01*
X206223791Y-50643998D01*
X206628504Y-50830573D01*
X206637167Y-50834988D01*
X207025983Y-51052736D01*
X207034285Y-51057823D01*
X207404810Y-51305399D01*
X207412684Y-51311119D01*
X207762655Y-51587016D01*
X207770047Y-51593329D01*
X208097295Y-51895833D01*
X208104173Y-51902711D01*
X208406665Y-52229946D01*
X208412988Y-52237349D01*
X208688877Y-52587312D01*
X208694600Y-52595189D01*
X208942176Y-52965714D01*
X208947263Y-52974016D01*
X209165011Y-53362832D01*
X209169432Y-53371507D01*
X209356000Y-53776205D01*
X209359726Y-53785201D01*
X209513967Y-54203290D01*
X209516975Y-54212549D01*
X209637936Y-54641445D01*
X209640209Y-54650912D01*
X209727146Y-55087968D01*
X209728670Y-55097586D01*
X209781050Y-55540149D01*
X209781813Y-55549855D01*
X209799404Y-55997556D01*
X209799500Y-56002424D01*
X209799500Y-103997575D01*
X209799404Y-104002443D01*
X209781813Y-104450144D01*
X209781050Y-104459850D01*
X209728670Y-104902413D01*
X209727146Y-104912031D01*
X209640209Y-105349087D01*
X209637936Y-105358554D01*
X209516975Y-105787450D01*
X209513967Y-105796709D01*
X209359726Y-106214798D01*
X209356000Y-106223794D01*
X209169432Y-106628492D01*
X209165011Y-106637167D01*
X208947263Y-107025983D01*
X208942176Y-107034285D01*
X208694600Y-107404810D01*
X208688877Y-107412687D01*
X208412988Y-107762650D01*
X208406665Y-107770053D01*
X208104173Y-108097288D01*
X208097288Y-108104173D01*
X207770053Y-108406665D01*
X207762650Y-108412988D01*
X207412687Y-108688877D01*
X207404810Y-108694600D01*
X207034285Y-108942176D01*
X207025983Y-108947263D01*
X206637167Y-109165011D01*
X206628492Y-109169432D01*
X206223794Y-109356000D01*
X206214798Y-109359726D01*
X205796709Y-109513967D01*
X205787450Y-109516975D01*
X205358554Y-109637936D01*
X205349087Y-109640209D01*
X204912031Y-109727146D01*
X204902413Y-109728670D01*
X204459850Y-109781050D01*
X204450144Y-109781813D01*
X204002443Y-109799404D01*
X203997575Y-109799500D01*
X156002425Y-109799500D01*
X155997557Y-109799404D01*
X155549855Y-109781813D01*
X155540149Y-109781050D01*
X155097586Y-109728670D01*
X155087968Y-109727146D01*
X154650912Y-109640209D01*
X154641445Y-109637936D01*
X154212549Y-109516975D01*
X154203290Y-109513967D01*
X153785201Y-109359726D01*
X153776205Y-109356000D01*
X153371507Y-109169432D01*
X153362832Y-109165011D01*
X152974016Y-108947263D01*
X152965714Y-108942176D01*
X152595189Y-108694600D01*
X152587312Y-108688877D01*
X152237349Y-108412988D01*
X152229946Y-108406665D01*
X152209196Y-108387484D01*
X151902704Y-108104166D01*
X151895833Y-108097295D01*
X151593329Y-107770047D01*
X151587011Y-107762650D01*
X151477796Y-107624112D01*
X151311119Y-107412684D01*
X151305399Y-107404810D01*
X151057823Y-107034285D01*
X151052736Y-107025983D01*
X150834988Y-106637167D01*
X150830573Y-106628504D01*
X150643998Y-106223791D01*
X150640273Y-106214798D01*
X150637574Y-106207483D01*
X150486031Y-105796706D01*
X150483024Y-105787450D01*
X150431830Y-105605931D01*
X150362062Y-105358550D01*
X150359790Y-105349087D01*
X150353174Y-105315826D01*
X150272850Y-104912016D01*
X150271329Y-104902413D01*
X150263774Y-104838583D01*
X150218948Y-104459845D01*
X150218186Y-104450144D01*
X150215716Y-104387287D01*
X150200596Y-104002443D01*
X150200548Y-103999999D01*
X152294922Y-103999999D01*
X152294922Y-104000000D01*
X152315219Y-104387287D01*
X152375886Y-104770323D01*
X152375887Y-104770330D01*
X152476262Y-105144936D01*
X152615244Y-105506994D01*
X152791310Y-105852543D01*
X153002531Y-106177793D01*
X153211095Y-106435350D01*
X153211096Y-106435350D01*
X154705748Y-104940698D01*
X154779588Y-105042330D01*
X154957670Y-105220412D01*
X155059300Y-105294251D01*
X153564648Y-106788903D01*
X153564649Y-106788904D01*
X153822206Y-106997468D01*
X154147456Y-107208689D01*
X154493005Y-107384755D01*
X154855063Y-107523737D01*
X155229669Y-107624112D01*
X155229676Y-107624113D01*
X155612712Y-107684780D01*
X155999999Y-107705078D01*
X156000001Y-107705078D01*
X156387287Y-107684780D01*
X156770323Y-107624113D01*
X156770330Y-107624112D01*
X157144936Y-107523737D01*
X157506994Y-107384755D01*
X157852543Y-107208689D01*
X158177783Y-106997476D01*
X158177785Y-106997475D01*
X158435349Y-106788902D01*
X156940698Y-105294251D01*
X157042330Y-105220412D01*
X157220412Y-105042330D01*
X157294251Y-104940698D01*
X158788902Y-106435349D01*
X158997475Y-106177785D01*
X158997476Y-106177783D01*
X159208689Y-105852543D01*
X159384755Y-105506994D01*
X159523737Y-105144936D01*
X159624112Y-104770330D01*
X159624113Y-104770323D01*
X159684780Y-104387287D01*
X159705078Y-104000000D01*
X159705078Y-103999999D01*
X159684780Y-103612712D01*
X159624113Y-103229676D01*
X159624112Y-103229669D01*
X159523737Y-102855063D01*
X159477648Y-102734999D01*
X166644341Y-102734999D01*
X166644341Y-102735000D01*
X166664936Y-102970403D01*
X166664938Y-102970413D01*
X166726094Y-103198655D01*
X166726096Y-103198659D01*
X166726097Y-103198663D01*
X166740559Y-103229676D01*
X166825965Y-103412830D01*
X166825967Y-103412834D01*
X166934281Y-103567521D01*
X166961501Y-103606396D01*
X166961506Y-103606402D01*
X167083430Y-103728326D01*
X167116915Y-103789649D01*
X167111931Y-103859341D01*
X167070059Y-103915274D01*
X167039083Y-103932189D01*
X166907669Y-103981203D01*
X166907664Y-103981206D01*
X166792455Y-104067452D01*
X166792452Y-104067455D01*
X166706206Y-104182664D01*
X166706202Y-104182671D01*
X166655908Y-104317517D01*
X166649764Y-104374668D01*
X166649501Y-104377123D01*
X166649500Y-104377135D01*
X166649500Y-106172870D01*
X166649501Y-106172876D01*
X166655908Y-106232483D01*
X166706202Y-106367328D01*
X166706206Y-106367335D01*
X166792452Y-106482544D01*
X166792455Y-106482547D01*
X166907664Y-106568793D01*
X166907671Y-106568797D01*
X167042517Y-106619091D01*
X167042516Y-106619091D01*
X167049444Y-106619835D01*
X167102127Y-106625500D01*
X168897872Y-106625499D01*
X168957483Y-106619091D01*
X169092331Y-106568796D01*
X169207546Y-106482546D01*
X169293796Y-106367331D01*
X169344091Y-106232483D01*
X169350500Y-106172873D01*
X169350499Y-104377128D01*
X169347812Y-104352135D01*
X174149500Y-104352135D01*
X174149500Y-106147870D01*
X174149501Y-106147876D01*
X174155908Y-106207483D01*
X174206202Y-106342328D01*
X174206206Y-106342335D01*
X174292452Y-106457544D01*
X174292455Y-106457547D01*
X174407664Y-106543793D01*
X174407671Y-106543797D01*
X174542517Y-106594091D01*
X174542516Y-106594091D01*
X174549444Y-106594835D01*
X174602127Y-106600500D01*
X176397872Y-106600499D01*
X176457483Y-106594091D01*
X176592331Y-106543796D01*
X176707546Y-106457546D01*
X176793796Y-106342331D01*
X176842810Y-106210916D01*
X176884681Y-106154984D01*
X176950145Y-106130566D01*
X177018418Y-106145417D01*
X177046673Y-106166569D01*
X177168599Y-106288495D01*
X177265384Y-106356265D01*
X177362165Y-106424032D01*
X177362167Y-106424033D01*
X177362170Y-106424035D01*
X177576337Y-106523903D01*
X177804592Y-106585063D01*
X177981034Y-106600500D01*
X178039999Y-106605659D01*
X178040000Y-106605659D01*
X178040001Y-106605659D01*
X178098966Y-106600500D01*
X178275408Y-106585063D01*
X178503663Y-106523903D01*
X178717830Y-106424035D01*
X178911401Y-106288495D01*
X179078495Y-106121401D01*
X179214035Y-105927830D01*
X179313903Y-105713663D01*
X179375063Y-105485408D01*
X179395659Y-105250000D01*
X179375063Y-105014592D01*
X179371153Y-104999999D01*
X183904364Y-104999999D01*
X183904364Y-105000000D01*
X184801988Y-105000000D01*
X184769075Y-105057007D01*
X184735000Y-105184174D01*
X184735000Y-105315826D01*
X184769075Y-105442993D01*
X184801988Y-105500000D01*
X183904364Y-105500000D01*
X183961567Y-105713486D01*
X183961570Y-105713492D01*
X184061399Y-105927578D01*
X184196894Y-106121082D01*
X184363917Y-106288105D01*
X184557421Y-106423600D01*
X184771507Y-106523429D01*
X184771516Y-106523433D01*
X184985000Y-106580634D01*
X184985000Y-105683012D01*
X185042007Y-105715925D01*
X185169174Y-105750000D01*
X185300826Y-105750000D01*
X185427993Y-105715925D01*
X185485000Y-105683012D01*
X185485000Y-106580633D01*
X185698483Y-106523433D01*
X185698492Y-106523429D01*
X185912578Y-106423600D01*
X186106078Y-106288108D01*
X186228133Y-106166053D01*
X186289456Y-106132568D01*
X186359148Y-106137552D01*
X186415082Y-106179423D01*
X186431997Y-106210401D01*
X186481202Y-106342328D01*
X186481206Y-106342335D01*
X186567452Y-106457544D01*
X186567455Y-106457547D01*
X186682664Y-106543793D01*
X186682671Y-106543797D01*
X186817517Y-106594091D01*
X186817516Y-106594091D01*
X186824444Y-106594835D01*
X186877127Y-106600500D01*
X188672872Y-106600499D01*
X188732483Y-106594091D01*
X188867331Y-106543796D01*
X188982546Y-106457546D01*
X189068796Y-106342331D01*
X189119091Y-106207483D01*
X189125500Y-106147873D01*
X189125499Y-104999999D01*
X191629364Y-104999999D01*
X191629364Y-105000000D01*
X192526988Y-105000000D01*
X192494075Y-105057007D01*
X192460000Y-105184174D01*
X192460000Y-105315826D01*
X192494075Y-105442993D01*
X192526988Y-105500000D01*
X191629364Y-105500000D01*
X191686567Y-105713486D01*
X191686570Y-105713492D01*
X191786399Y-105927578D01*
X191921894Y-106121082D01*
X192088917Y-106288105D01*
X192282421Y-106423600D01*
X192496507Y-106523429D01*
X192496516Y-106523433D01*
X192710000Y-106580634D01*
X192710000Y-105683012D01*
X192767007Y-105715925D01*
X192894174Y-105750000D01*
X193025826Y-105750000D01*
X193152993Y-105715925D01*
X193210000Y-105683012D01*
X193210000Y-106580633D01*
X193423483Y-106523433D01*
X193423492Y-106523429D01*
X193637578Y-106423600D01*
X193831078Y-106288108D01*
X193953133Y-106166053D01*
X194014456Y-106132568D01*
X194084148Y-106137552D01*
X194140082Y-106179423D01*
X194156997Y-106210401D01*
X194206202Y-106342328D01*
X194206206Y-106342335D01*
X194292452Y-106457544D01*
X194292455Y-106457547D01*
X194407664Y-106543793D01*
X194407671Y-106543797D01*
X194542517Y-106594091D01*
X194542516Y-106594091D01*
X194549444Y-106594835D01*
X194602127Y-106600500D01*
X196397872Y-106600499D01*
X196457483Y-106594091D01*
X196592331Y-106543796D01*
X196707546Y-106457546D01*
X196793796Y-106342331D01*
X196844091Y-106207483D01*
X196850500Y-106147873D01*
X196850499Y-104352128D01*
X196844091Y-104292517D01*
X196843002Y-104289598D01*
X196793797Y-104157671D01*
X196793793Y-104157664D01*
X196707547Y-104042455D01*
X196707544Y-104042452D01*
X196650834Y-103999999D01*
X200294922Y-103999999D01*
X200294922Y-104000000D01*
X200315219Y-104387287D01*
X200375886Y-104770323D01*
X200375887Y-104770330D01*
X200476262Y-105144936D01*
X200615244Y-105506994D01*
X200791310Y-105852543D01*
X201002531Y-106177793D01*
X201211095Y-106435350D01*
X201211096Y-106435350D01*
X202705748Y-104940698D01*
X202779588Y-105042330D01*
X202957670Y-105220412D01*
X203059300Y-105294251D01*
X201564648Y-106788903D01*
X201564649Y-106788904D01*
X201822206Y-106997468D01*
X202147456Y-107208689D01*
X202493005Y-107384755D01*
X202855063Y-107523737D01*
X203229669Y-107624112D01*
X203229676Y-107624113D01*
X203612712Y-107684780D01*
X203999999Y-107705078D01*
X204000001Y-107705078D01*
X204387287Y-107684780D01*
X204770323Y-107624113D01*
X204770330Y-107624112D01*
X205144936Y-107523737D01*
X205506994Y-107384755D01*
X205852543Y-107208689D01*
X206177783Y-106997476D01*
X206177785Y-106997475D01*
X206435349Y-106788902D01*
X204940698Y-105294251D01*
X205042330Y-105220412D01*
X205220412Y-105042330D01*
X205294251Y-104940698D01*
X206788902Y-106435349D01*
X206997475Y-106177785D01*
X206997476Y-106177783D01*
X207208689Y-105852543D01*
X207384755Y-105506994D01*
X207523737Y-105144936D01*
X207624112Y-104770330D01*
X207624113Y-104770323D01*
X207684780Y-104387287D01*
X207705078Y-104000000D01*
X207705078Y-103999999D01*
X207684780Y-103612712D01*
X207624113Y-103229676D01*
X207624112Y-103229669D01*
X207523737Y-102855063D01*
X207384755Y-102493005D01*
X207208689Y-102147456D01*
X206997468Y-101822206D01*
X206788904Y-101564649D01*
X206788903Y-101564648D01*
X205294251Y-103059300D01*
X205220412Y-102957670D01*
X205042330Y-102779588D01*
X204940698Y-102705748D01*
X206435350Y-101211096D01*
X206435350Y-101211095D01*
X206177793Y-101002531D01*
X205852543Y-100791310D01*
X205506994Y-100615244D01*
X205144936Y-100476262D01*
X204770330Y-100375887D01*
X204770323Y-100375886D01*
X204387287Y-100315219D01*
X204000001Y-100294922D01*
X203999999Y-100294922D01*
X203612712Y-100315219D01*
X203229676Y-100375886D01*
X203229669Y-100375887D01*
X202855063Y-100476262D01*
X202493005Y-100615244D01*
X202147456Y-100791310D01*
X201822206Y-101002531D01*
X201564648Y-101211095D01*
X201564648Y-101211096D01*
X203059301Y-102705748D01*
X202957670Y-102779588D01*
X202779588Y-102957670D01*
X202705748Y-103059300D01*
X201211096Y-101564648D01*
X201211095Y-101564648D01*
X201002531Y-101822206D01*
X200791310Y-102147456D01*
X200615244Y-102493005D01*
X200476262Y-102855063D01*
X200375887Y-103229669D01*
X200375886Y-103229676D01*
X200315219Y-103612712D01*
X200294922Y-103999999D01*
X196650834Y-103999999D01*
X196592335Y-103956206D01*
X196592328Y-103956202D01*
X196457482Y-103905908D01*
X196457483Y-103905908D01*
X196397883Y-103899501D01*
X196397881Y-103899500D01*
X196397873Y-103899500D01*
X196397864Y-103899500D01*
X194602129Y-103899500D01*
X194602123Y-103899501D01*
X194542516Y-103905908D01*
X194407671Y-103956202D01*
X194407664Y-103956206D01*
X194292455Y-104042452D01*
X194292452Y-104042455D01*
X194206206Y-104157664D01*
X194206202Y-104157671D01*
X194156997Y-104289598D01*
X194115126Y-104345532D01*
X194049661Y-104369949D01*
X193981388Y-104355097D01*
X193953134Y-104333946D01*
X193831082Y-104211894D01*
X193637578Y-104076399D01*
X193423492Y-103976570D01*
X193423486Y-103976567D01*
X193210000Y-103919364D01*
X193210000Y-104816988D01*
X193152993Y-104784075D01*
X193025826Y-104750000D01*
X192894174Y-104750000D01*
X192767007Y-104784075D01*
X192710000Y-104816988D01*
X192710000Y-103919364D01*
X192709999Y-103919364D01*
X192496513Y-103976567D01*
X192496507Y-103976570D01*
X192282422Y-104076399D01*
X192282420Y-104076400D01*
X192088926Y-104211886D01*
X192088920Y-104211891D01*
X191921891Y-104378920D01*
X191921886Y-104378926D01*
X191786400Y-104572420D01*
X191786399Y-104572422D01*
X191686570Y-104786507D01*
X191686567Y-104786513D01*
X191629364Y-104999999D01*
X189125499Y-104999999D01*
X189125499Y-104352128D01*
X189119091Y-104292517D01*
X189118002Y-104289598D01*
X189068797Y-104157671D01*
X189068793Y-104157664D01*
X188982547Y-104042455D01*
X188982544Y-104042452D01*
X188867335Y-103956206D01*
X188867328Y-103956202D01*
X188732482Y-103905908D01*
X188732483Y-103905908D01*
X188672883Y-103899501D01*
X188672881Y-103899500D01*
X188672873Y-103899500D01*
X188672864Y-103899500D01*
X186877129Y-103899500D01*
X186877123Y-103899501D01*
X186817516Y-103905908D01*
X186682671Y-103956202D01*
X186682664Y-103956206D01*
X186567455Y-104042452D01*
X186567452Y-104042455D01*
X186481206Y-104157664D01*
X186481202Y-104157671D01*
X186431997Y-104289598D01*
X186390126Y-104345532D01*
X186324661Y-104369949D01*
X186256388Y-104355097D01*
X186228134Y-104333946D01*
X186106082Y-104211894D01*
X185912578Y-104076399D01*
X185698492Y-103976570D01*
X185698486Y-103976567D01*
X185485000Y-103919364D01*
X185485000Y-104816988D01*
X185427993Y-104784075D01*
X185300826Y-104750000D01*
X185169174Y-104750000D01*
X185042007Y-104784075D01*
X184985000Y-104816988D01*
X184985000Y-103919364D01*
X184984999Y-103919364D01*
X184771513Y-103976567D01*
X184771507Y-103976570D01*
X184557422Y-104076399D01*
X184557420Y-104076400D01*
X184363926Y-104211886D01*
X184363920Y-104211891D01*
X184196891Y-104378920D01*
X184196886Y-104378926D01*
X184061400Y-104572420D01*
X184061399Y-104572422D01*
X183961570Y-104786507D01*
X183961567Y-104786513D01*
X183904364Y-104999999D01*
X179371153Y-104999999D01*
X179313903Y-104786337D01*
X179214035Y-104572171D01*
X179135388Y-104459850D01*
X179078494Y-104378597D01*
X178911402Y-104211506D01*
X178911395Y-104211501D01*
X178717834Y-104075967D01*
X178717830Y-104075965D01*
X178699574Y-104067452D01*
X178503663Y-103976097D01*
X178503659Y-103976096D01*
X178503655Y-103976094D01*
X178275413Y-103914938D01*
X178275403Y-103914936D01*
X178040001Y-103894341D01*
X178039999Y-103894341D01*
X177804596Y-103914936D01*
X177804586Y-103914938D01*
X177576344Y-103976094D01*
X177576335Y-103976098D01*
X177362171Y-104075964D01*
X177362169Y-104075965D01*
X177168600Y-104211503D01*
X177046673Y-104333430D01*
X176985350Y-104366914D01*
X176915658Y-104361930D01*
X176859725Y-104320058D01*
X176842810Y-104289081D01*
X176793797Y-104157671D01*
X176793793Y-104157664D01*
X176707547Y-104042455D01*
X176707544Y-104042452D01*
X176592335Y-103956206D01*
X176592328Y-103956202D01*
X176457482Y-103905908D01*
X176457483Y-103905908D01*
X176397883Y-103899501D01*
X176397881Y-103899500D01*
X176397873Y-103899500D01*
X176397864Y-103899500D01*
X174602129Y-103899500D01*
X174602123Y-103899501D01*
X174542516Y-103905908D01*
X174407671Y-103956202D01*
X174407664Y-103956206D01*
X174292455Y-104042452D01*
X174292452Y-104042455D01*
X174206206Y-104157664D01*
X174206202Y-104157671D01*
X174155908Y-104292517D01*
X174150209Y-104345532D01*
X174149501Y-104352123D01*
X174149500Y-104352135D01*
X169347812Y-104352135D01*
X169344091Y-104317517D01*
X169334766Y-104292516D01*
X169293797Y-104182671D01*
X169293793Y-104182664D01*
X169207547Y-104067455D01*
X169207544Y-104067452D01*
X169092335Y-103981206D01*
X169092328Y-103981202D01*
X168960917Y-103932189D01*
X168904983Y-103890318D01*
X168880566Y-103824853D01*
X168895418Y-103756580D01*
X168916563Y-103728332D01*
X169038495Y-103606401D01*
X169174035Y-103412830D01*
X169273903Y-103198663D01*
X169335063Y-102970408D01*
X169355659Y-102735000D01*
X169335063Y-102499592D01*
X169273903Y-102271337D01*
X169174035Y-102057171D01*
X169038495Y-101863599D01*
X169038494Y-101863597D01*
X168871402Y-101696506D01*
X168871395Y-101696501D01*
X168677834Y-101560967D01*
X168677830Y-101560965D01*
X168677828Y-101560964D01*
X168463663Y-101461097D01*
X168463659Y-101461096D01*
X168463655Y-101461094D01*
X168235413Y-101399938D01*
X168235403Y-101399936D01*
X168000001Y-101379341D01*
X167999999Y-101379341D01*
X167764596Y-101399936D01*
X167764586Y-101399938D01*
X167536344Y-101461094D01*
X167536335Y-101461098D01*
X167322171Y-101560964D01*
X167322169Y-101560965D01*
X167128597Y-101696505D01*
X166961505Y-101863597D01*
X166825965Y-102057169D01*
X166825964Y-102057171D01*
X166726098Y-102271335D01*
X166726094Y-102271344D01*
X166664938Y-102499586D01*
X166664936Y-102499596D01*
X166644341Y-102734999D01*
X159477648Y-102734999D01*
X159384755Y-102493005D01*
X159208689Y-102147456D01*
X158997468Y-101822206D01*
X158788904Y-101564649D01*
X158788903Y-101564648D01*
X157294251Y-103059300D01*
X157220412Y-102957670D01*
X157042330Y-102779588D01*
X156940698Y-102705748D01*
X158435350Y-101211096D01*
X158435350Y-101211095D01*
X158177793Y-101002531D01*
X157852543Y-100791310D01*
X157506994Y-100615244D01*
X157144936Y-100476262D01*
X156770330Y-100375887D01*
X156770323Y-100375886D01*
X156387287Y-100315219D01*
X156000001Y-100294922D01*
X155999999Y-100294922D01*
X155612712Y-100315219D01*
X155229676Y-100375886D01*
X155229669Y-100375887D01*
X154855063Y-100476262D01*
X154493005Y-100615244D01*
X154147456Y-100791310D01*
X153822206Y-101002531D01*
X153564648Y-101211095D01*
X153564648Y-101211096D01*
X155059301Y-102705748D01*
X154957670Y-102779588D01*
X154779588Y-102957670D01*
X154705748Y-103059300D01*
X153211096Y-101564648D01*
X153211095Y-101564648D01*
X153002531Y-101822206D01*
X152791310Y-102147456D01*
X152615244Y-102493005D01*
X152476262Y-102855063D01*
X152375887Y-103229669D01*
X152375886Y-103229676D01*
X152315219Y-103612712D01*
X152294922Y-103999999D01*
X150200548Y-103999999D01*
X150200500Y-103997575D01*
X150200500Y-96749999D01*
X152774341Y-96749999D01*
X152774341Y-96750000D01*
X152794936Y-96985403D01*
X152794938Y-96985413D01*
X152856094Y-97213655D01*
X152856096Y-97213659D01*
X152856097Y-97213663D01*
X152860000Y-97222032D01*
X152955965Y-97427830D01*
X152955967Y-97427834D01*
X153064281Y-97582521D01*
X153091505Y-97621401D01*
X153258599Y-97788495D01*
X153355384Y-97856265D01*
X153452165Y-97924032D01*
X153452167Y-97924033D01*
X153452170Y-97924035D01*
X153666337Y-98023903D01*
X153894592Y-98085063D01*
X154071034Y-98100500D01*
X154129999Y-98105659D01*
X154130000Y-98105659D01*
X154130001Y-98105659D01*
X154188966Y-98100500D01*
X154365408Y-98085063D01*
X154593663Y-98023903D01*
X154807830Y-97924035D01*
X155001401Y-97788495D01*
X155168495Y-97621401D01*
X155298425Y-97435842D01*
X155353002Y-97392217D01*
X155422500Y-97385023D01*
X155484855Y-97416546D01*
X155501575Y-97435842D01*
X155631500Y-97621395D01*
X155631505Y-97621401D01*
X155798599Y-97788495D01*
X155895384Y-97856265D01*
X155992165Y-97924032D01*
X155992167Y-97924033D01*
X155992170Y-97924035D01*
X156206337Y-98023903D01*
X156434592Y-98085063D01*
X156611034Y-98100500D01*
X156669999Y-98105659D01*
X156670000Y-98105659D01*
X156670001Y-98105659D01*
X156728966Y-98100500D01*
X156905408Y-98085063D01*
X157133663Y-98023903D01*
X157347830Y-97924035D01*
X157541401Y-97788495D01*
X157708495Y-97621401D01*
X157838425Y-97435842D01*
X157893002Y-97392217D01*
X157962500Y-97385023D01*
X158024855Y-97416546D01*
X158041575Y-97435842D01*
X158171500Y-97621395D01*
X158171505Y-97621401D01*
X158338599Y-97788495D01*
X158435384Y-97856265D01*
X158532165Y-97924032D01*
X158532167Y-97924033D01*
X158532170Y-97924035D01*
X158746337Y-98023903D01*
X158974592Y-98085063D01*
X159151034Y-98100500D01*
X159209999Y-98105659D01*
X159210000Y-98105659D01*
X159210001Y-98105659D01*
X159268966Y-98100500D01*
X159445408Y-98085063D01*
X159673663Y-98023903D01*
X159887830Y-97924035D01*
X160081401Y-97788495D01*
X160203329Y-97666566D01*
X160264648Y-97633084D01*
X160334340Y-97638068D01*
X160390274Y-97679939D01*
X160407189Y-97710917D01*
X160456202Y-97842328D01*
X160456206Y-97842335D01*
X160542452Y-97957544D01*
X160542455Y-97957547D01*
X160657664Y-98043793D01*
X160657671Y-98043797D01*
X160792517Y-98094091D01*
X160792516Y-98094091D01*
X160799444Y-98094835D01*
X160852127Y-98100500D01*
X162647872Y-98100499D01*
X162707483Y-98094091D01*
X162842331Y-98043796D01*
X162957546Y-97957546D01*
X163043796Y-97842331D01*
X163094091Y-97707483D01*
X163100500Y-97647873D01*
X163100499Y-95852128D01*
X163094091Y-95792517D01*
X163092810Y-95789083D01*
X163043797Y-95657671D01*
X163043793Y-95657664D01*
X162957547Y-95542455D01*
X162957544Y-95542452D01*
X162842335Y-95456206D01*
X162842328Y-95456202D01*
X162707482Y-95405908D01*
X162707483Y-95405908D01*
X162647883Y-95399501D01*
X162647881Y-95399500D01*
X162647873Y-95399500D01*
X162647864Y-95399500D01*
X160852129Y-95399500D01*
X160852123Y-95399501D01*
X160792516Y-95405908D01*
X160657671Y-95456202D01*
X160657664Y-95456206D01*
X160542455Y-95542452D01*
X160542452Y-95542455D01*
X160456206Y-95657664D01*
X160456203Y-95657669D01*
X160407189Y-95789083D01*
X160365317Y-95845016D01*
X160299853Y-95869433D01*
X160231580Y-95854581D01*
X160203326Y-95833430D01*
X160081402Y-95711506D01*
X160081395Y-95711501D01*
X159887834Y-95575967D01*
X159887830Y-95575965D01*
X159879342Y-95572007D01*
X159673663Y-95476097D01*
X159673659Y-95476096D01*
X159673655Y-95476094D01*
X159445413Y-95414938D01*
X159445403Y-95414936D01*
X159210001Y-95394341D01*
X159209999Y-95394341D01*
X158974596Y-95414936D01*
X158974586Y-95414938D01*
X158746344Y-95476094D01*
X158746335Y-95476098D01*
X158532171Y-95575964D01*
X158532169Y-95575965D01*
X158338597Y-95711505D01*
X158171505Y-95878597D01*
X158041575Y-96064158D01*
X157986998Y-96107783D01*
X157917500Y-96114977D01*
X157855145Y-96083454D01*
X157838425Y-96064158D01*
X157708494Y-95878597D01*
X157541402Y-95711506D01*
X157541395Y-95711501D01*
X157347834Y-95575967D01*
X157347830Y-95575965D01*
X157339342Y-95572007D01*
X157133663Y-95476097D01*
X157133659Y-95476096D01*
X157133655Y-95476094D01*
X156905413Y-95414938D01*
X156905403Y-95414936D01*
X156670001Y-95394341D01*
X156669999Y-95394341D01*
X156434596Y-95414936D01*
X156434586Y-95414938D01*
X156206344Y-95476094D01*
X156206335Y-95476098D01*
X155992171Y-95575964D01*
X155992169Y-95575965D01*
X155798597Y-95711505D01*
X155631505Y-95878597D01*
X155501575Y-96064158D01*
X155446998Y-96107783D01*
X155377500Y-96114977D01*
X155315145Y-96083454D01*
X155298425Y-96064158D01*
X155168494Y-95878597D01*
X155001402Y-95711506D01*
X155001395Y-95711501D01*
X154807834Y-95575967D01*
X154807830Y-95575965D01*
X154799342Y-95572007D01*
X154593663Y-95476097D01*
X154593659Y-95476096D01*
X154593655Y-95476094D01*
X154365413Y-95414938D01*
X154365403Y-95414936D01*
X154130001Y-95394341D01*
X154129999Y-95394341D01*
X153894596Y-95414936D01*
X153894586Y-95414938D01*
X153666344Y-95476094D01*
X153666335Y-95476098D01*
X153452171Y-95575964D01*
X153452169Y-95575965D01*
X153258597Y-95711505D01*
X153091505Y-95878597D01*
X152955965Y-96072169D01*
X152955964Y-96072171D01*
X152856098Y-96286335D01*
X152856094Y-96286344D01*
X152794938Y-96514586D01*
X152794936Y-96514596D01*
X152774341Y-96749999D01*
X150200500Y-96749999D01*
X150200500Y-90749999D01*
X152824341Y-90749999D01*
X152824341Y-90750000D01*
X152844936Y-90985403D01*
X152844938Y-90985413D01*
X152906094Y-91213655D01*
X152906096Y-91213659D01*
X152906097Y-91213663D01*
X152910000Y-91222032D01*
X153005965Y-91427830D01*
X153005967Y-91427834D01*
X153068719Y-91517452D01*
X153141505Y-91621401D01*
X153308599Y-91788495D01*
X153405384Y-91856265D01*
X153502165Y-91924032D01*
X153502167Y-91924033D01*
X153502170Y-91924035D01*
X153716337Y-92023903D01*
X153944592Y-92085063D01*
X154121034Y-92100500D01*
X154179999Y-92105659D01*
X154180000Y-92105659D01*
X154180001Y-92105659D01*
X154238966Y-92100500D01*
X154415408Y-92085063D01*
X154643663Y-92023903D01*
X154857830Y-91924035D01*
X155051401Y-91788495D01*
X155218495Y-91621401D01*
X155348425Y-91435842D01*
X155403002Y-91392217D01*
X155472500Y-91385023D01*
X155534855Y-91416546D01*
X155551575Y-91435842D01*
X155681500Y-91621395D01*
X155681505Y-91621401D01*
X155848599Y-91788495D01*
X155945384Y-91856265D01*
X156042165Y-91924032D01*
X156042167Y-91924033D01*
X156042170Y-91924035D01*
X156256337Y-92023903D01*
X156484592Y-92085063D01*
X156661034Y-92100500D01*
X156719999Y-92105659D01*
X156720000Y-92105659D01*
X156720001Y-92105659D01*
X156778966Y-92100500D01*
X156955408Y-92085063D01*
X157183663Y-92023903D01*
X157397830Y-91924035D01*
X157591401Y-91788495D01*
X157758495Y-91621401D01*
X157888425Y-91435842D01*
X157943002Y-91392217D01*
X158012500Y-91385023D01*
X158074855Y-91416546D01*
X158091575Y-91435842D01*
X158221500Y-91621395D01*
X158221505Y-91621401D01*
X158388599Y-91788495D01*
X158485384Y-91856265D01*
X158582165Y-91924032D01*
X158582167Y-91924033D01*
X158582170Y-91924035D01*
X158796337Y-92023903D01*
X159024592Y-92085063D01*
X159201034Y-92100500D01*
X159259999Y-92105659D01*
X159260000Y-92105659D01*
X159260001Y-92105659D01*
X159318966Y-92100500D01*
X159495408Y-92085063D01*
X159723663Y-92023903D01*
X159937830Y-91924035D01*
X160131401Y-91788495D01*
X160253329Y-91666566D01*
X160314648Y-91633084D01*
X160384340Y-91638068D01*
X160440274Y-91679939D01*
X160457189Y-91710917D01*
X160506202Y-91842328D01*
X160506206Y-91842335D01*
X160592452Y-91957544D01*
X160592455Y-91957547D01*
X160707664Y-92043793D01*
X160707671Y-92043797D01*
X160842517Y-92094091D01*
X160842516Y-92094091D01*
X160849444Y-92094835D01*
X160902127Y-92100500D01*
X162697872Y-92100499D01*
X162757483Y-92094091D01*
X162892331Y-92043796D01*
X163007546Y-91957546D01*
X163093796Y-91842331D01*
X163099464Y-91827135D01*
X203649500Y-91827135D01*
X203649500Y-93622870D01*
X203649501Y-93622876D01*
X203655908Y-93682483D01*
X203706202Y-93817328D01*
X203706206Y-93817335D01*
X203792452Y-93932544D01*
X203792455Y-93932547D01*
X203907664Y-94018793D01*
X203907671Y-94018797D01*
X203907674Y-94018798D01*
X204039598Y-94068002D01*
X204095531Y-94109873D01*
X204119949Y-94175337D01*
X204105098Y-94243610D01*
X204083947Y-94271865D01*
X203961886Y-94393926D01*
X203826400Y-94587420D01*
X203826399Y-94587422D01*
X203726570Y-94801507D01*
X203726567Y-94801513D01*
X203669364Y-95014999D01*
X203669364Y-95015000D01*
X204566988Y-95015000D01*
X204534075Y-95072007D01*
X204500000Y-95199174D01*
X204500000Y-95330826D01*
X204534075Y-95457993D01*
X204566988Y-95515000D01*
X203669364Y-95515000D01*
X203726567Y-95728486D01*
X203726570Y-95728492D01*
X203826399Y-95942578D01*
X203961894Y-96136082D01*
X204128917Y-96303105D01*
X204322421Y-96438600D01*
X204536507Y-96538429D01*
X204536516Y-96538433D01*
X204750000Y-96595634D01*
X204750000Y-95698012D01*
X204807007Y-95730925D01*
X204934174Y-95765000D01*
X205065826Y-95765000D01*
X205192993Y-95730925D01*
X205250000Y-95698012D01*
X205250000Y-96595633D01*
X205463483Y-96538433D01*
X205463492Y-96538429D01*
X205677578Y-96438600D01*
X205871082Y-96303105D01*
X206038105Y-96136082D01*
X206173600Y-95942578D01*
X206273429Y-95728492D01*
X206273432Y-95728486D01*
X206330636Y-95515000D01*
X205433012Y-95515000D01*
X205465925Y-95457993D01*
X205500000Y-95330826D01*
X205500000Y-95199174D01*
X205465925Y-95072007D01*
X205433012Y-95015000D01*
X206330636Y-95015000D01*
X206330635Y-95014999D01*
X206273432Y-94801513D01*
X206273429Y-94801507D01*
X206173600Y-94587422D01*
X206173599Y-94587420D01*
X206038113Y-94393926D01*
X206038108Y-94393920D01*
X205916053Y-94271865D01*
X205882568Y-94210542D01*
X205887552Y-94140850D01*
X205929424Y-94084917D01*
X205960400Y-94068002D01*
X206092331Y-94018796D01*
X206207546Y-93932546D01*
X206293796Y-93817331D01*
X206344091Y-93682483D01*
X206350500Y-93622873D01*
X206350499Y-91827128D01*
X206344091Y-91767517D01*
X206321699Y-91707482D01*
X206293797Y-91632671D01*
X206293793Y-91632664D01*
X206207547Y-91517455D01*
X206207544Y-91517452D01*
X206092335Y-91431206D01*
X206092328Y-91431202D01*
X205957482Y-91380908D01*
X205957483Y-91380908D01*
X205897883Y-91374501D01*
X205897881Y-91374500D01*
X205897873Y-91374500D01*
X205897864Y-91374500D01*
X204102129Y-91374500D01*
X204102123Y-91374501D01*
X204042516Y-91380908D01*
X203907671Y-91431202D01*
X203907664Y-91431206D01*
X203792455Y-91517452D01*
X203792452Y-91517455D01*
X203706206Y-91632664D01*
X203706202Y-91632671D01*
X203655908Y-91767517D01*
X203653653Y-91788498D01*
X203649501Y-91827123D01*
X203649500Y-91827135D01*
X163099464Y-91827135D01*
X163144091Y-91707483D01*
X163150500Y-91647873D01*
X163150499Y-89852128D01*
X163144091Y-89792517D01*
X163142810Y-89789083D01*
X163093797Y-89657671D01*
X163093793Y-89657664D01*
X163007547Y-89542455D01*
X163007544Y-89542452D01*
X162892335Y-89456206D01*
X162892328Y-89456202D01*
X162757482Y-89405908D01*
X162757483Y-89405908D01*
X162697883Y-89399501D01*
X162697881Y-89399500D01*
X162697873Y-89399500D01*
X162697864Y-89399500D01*
X160902129Y-89399500D01*
X160902123Y-89399501D01*
X160842516Y-89405908D01*
X160707671Y-89456202D01*
X160707664Y-89456206D01*
X160592455Y-89542452D01*
X160592452Y-89542455D01*
X160506206Y-89657664D01*
X160506203Y-89657669D01*
X160457189Y-89789083D01*
X160415317Y-89845016D01*
X160349853Y-89869433D01*
X160281580Y-89854581D01*
X160253326Y-89833430D01*
X160131402Y-89711506D01*
X160131395Y-89711501D01*
X159937834Y-89575967D01*
X159937830Y-89575965D01*
X159937828Y-89575964D01*
X159723663Y-89476097D01*
X159723659Y-89476096D01*
X159723655Y-89476094D01*
X159495413Y-89414938D01*
X159495403Y-89414936D01*
X159260001Y-89394341D01*
X159259999Y-89394341D01*
X159024596Y-89414936D01*
X159024586Y-89414938D01*
X158796344Y-89476094D01*
X158796335Y-89476098D01*
X158582171Y-89575964D01*
X158582169Y-89575965D01*
X158388597Y-89711505D01*
X158221505Y-89878597D01*
X158091575Y-90064158D01*
X158036998Y-90107783D01*
X157967500Y-90114977D01*
X157905145Y-90083454D01*
X157888425Y-90064158D01*
X157758494Y-89878597D01*
X157591402Y-89711506D01*
X157591395Y-89711501D01*
X157397834Y-89575967D01*
X157397830Y-89575965D01*
X157397828Y-89575964D01*
X157183663Y-89476097D01*
X157183659Y-89476096D01*
X157183655Y-89476094D01*
X156955413Y-89414938D01*
X156955403Y-89414936D01*
X156720001Y-89394341D01*
X156719999Y-89394341D01*
X156484596Y-89414936D01*
X156484586Y-89414938D01*
X156256344Y-89476094D01*
X156256335Y-89476098D01*
X156042171Y-89575964D01*
X156042169Y-89575965D01*
X155848597Y-89711505D01*
X155681505Y-89878597D01*
X155551575Y-90064158D01*
X155496998Y-90107783D01*
X155427500Y-90114977D01*
X155365145Y-90083454D01*
X155348425Y-90064158D01*
X155218494Y-89878597D01*
X155051402Y-89711506D01*
X155051395Y-89711501D01*
X154857834Y-89575967D01*
X154857830Y-89575965D01*
X154857828Y-89575964D01*
X154643663Y-89476097D01*
X154643659Y-89476096D01*
X154643655Y-89476094D01*
X154415413Y-89414938D01*
X154415403Y-89414936D01*
X154180001Y-89394341D01*
X154179999Y-89394341D01*
X153944596Y-89414936D01*
X153944586Y-89414938D01*
X153716344Y-89476094D01*
X153716335Y-89476098D01*
X153502171Y-89575964D01*
X153502169Y-89575965D01*
X153308597Y-89711505D01*
X153141505Y-89878597D01*
X153005965Y-90072169D01*
X153005964Y-90072171D01*
X152906098Y-90286335D01*
X152906094Y-90286344D01*
X152844938Y-90514586D01*
X152844936Y-90514596D01*
X152824341Y-90749999D01*
X150200500Y-90749999D01*
X150200500Y-86300000D01*
X193844815Y-86300000D01*
X193863503Y-86477805D01*
X193863504Y-86477807D01*
X193918747Y-86647829D01*
X193918750Y-86647835D01*
X194008141Y-86802665D01*
X194049812Y-86848946D01*
X194127764Y-86935521D01*
X194127767Y-86935523D01*
X194127770Y-86935526D01*
X194272407Y-87040612D01*
X194435733Y-87113329D01*
X194610609Y-87150500D01*
X194610610Y-87150500D01*
X194789389Y-87150500D01*
X194789391Y-87150500D01*
X194964267Y-87113329D01*
X195127593Y-87040612D01*
X195272230Y-86935526D01*
X195391859Y-86802665D01*
X195481250Y-86647835D01*
X195536497Y-86477803D01*
X195555185Y-86300000D01*
X195536497Y-86122197D01*
X195481250Y-85952165D01*
X195391859Y-85797335D01*
X195345003Y-85745296D01*
X195272235Y-85664478D01*
X195272232Y-85664476D01*
X195272231Y-85664475D01*
X195272230Y-85664474D01*
X195127593Y-85559388D01*
X194964267Y-85486671D01*
X194964265Y-85486670D01*
X194836594Y-85459533D01*
X194789391Y-85449500D01*
X194610609Y-85449500D01*
X194579954Y-85456015D01*
X194435733Y-85486670D01*
X194435728Y-85486672D01*
X194272408Y-85559387D01*
X194127768Y-85664475D01*
X194008140Y-85797336D01*
X193918750Y-85952164D01*
X193918747Y-85952170D01*
X193863504Y-86122192D01*
X193863503Y-86122194D01*
X193844815Y-86300000D01*
X150200500Y-86300000D01*
X150200500Y-81750000D01*
X166144815Y-81750000D01*
X166163503Y-81927805D01*
X166163504Y-81927807D01*
X166218747Y-82097829D01*
X166218750Y-82097835D01*
X166308141Y-82252665D01*
X166349812Y-82298946D01*
X166427764Y-82385521D01*
X166427767Y-82385523D01*
X166427770Y-82385526D01*
X166572407Y-82490612D01*
X166735733Y-82563329D01*
X166910609Y-82600500D01*
X166910610Y-82600500D01*
X167089389Y-82600500D01*
X167089391Y-82600500D01*
X167264267Y-82563329D01*
X167427593Y-82490612D01*
X167572230Y-82385526D01*
X167691859Y-82252665D01*
X167781250Y-82097835D01*
X167836497Y-81927803D01*
X167855185Y-81750000D01*
X167836497Y-81572197D01*
X167788832Y-81425499D01*
X167781252Y-81402170D01*
X167781249Y-81402164D01*
X167761984Y-81368796D01*
X167691859Y-81247335D01*
X167633783Y-81182835D01*
X167572235Y-81114478D01*
X167572232Y-81114476D01*
X167572231Y-81114475D01*
X167572230Y-81114474D01*
X167427593Y-81009388D01*
X167264267Y-80936671D01*
X167264265Y-80936670D01*
X167136594Y-80909533D01*
X167089391Y-80899500D01*
X166910609Y-80899500D01*
X166879954Y-80906015D01*
X166735733Y-80936670D01*
X166735728Y-80936672D01*
X166572408Y-81009387D01*
X166427768Y-81114475D01*
X166308140Y-81247336D01*
X166218750Y-81402164D01*
X166218747Y-81402170D01*
X166163504Y-81572192D01*
X166163503Y-81572194D01*
X166144815Y-81750000D01*
X150200500Y-81750000D01*
X150200500Y-69914999D01*
X155194341Y-69914999D01*
X155194341Y-69915000D01*
X155214936Y-70150403D01*
X155214938Y-70150413D01*
X155276094Y-70378655D01*
X155276096Y-70378659D01*
X155276097Y-70378663D01*
X155287059Y-70402170D01*
X155375965Y-70592830D01*
X155375967Y-70592834D01*
X155511501Y-70786395D01*
X155511506Y-70786402D01*
X155678597Y-70953493D01*
X155678603Y-70953498D01*
X155864158Y-71083425D01*
X155907783Y-71138002D01*
X155914977Y-71207500D01*
X155883454Y-71269855D01*
X155864158Y-71286575D01*
X155678597Y-71416505D01*
X155511505Y-71583597D01*
X155375965Y-71777169D01*
X155375964Y-71777171D01*
X155276098Y-71991335D01*
X155276094Y-71991344D01*
X155214938Y-72219586D01*
X155214936Y-72219596D01*
X155194341Y-72454999D01*
X155194341Y-72455000D01*
X155214936Y-72690403D01*
X155214938Y-72690413D01*
X155276094Y-72918655D01*
X155276096Y-72918659D01*
X155276097Y-72918663D01*
X155375965Y-73132830D01*
X155375967Y-73132834D01*
X155511501Y-73326395D01*
X155511506Y-73326402D01*
X155678597Y-73493493D01*
X155678603Y-73493498D01*
X155864594Y-73623730D01*
X155908219Y-73678307D01*
X155915413Y-73747805D01*
X155883890Y-73810160D01*
X155864595Y-73826880D01*
X155678922Y-73956890D01*
X155678920Y-73956891D01*
X155511891Y-74123920D01*
X155511886Y-74123926D01*
X155376400Y-74317420D01*
X155376399Y-74317422D01*
X155276570Y-74531507D01*
X155276567Y-74531513D01*
X155219364Y-74744999D01*
X155219364Y-74745000D01*
X156116988Y-74745000D01*
X156084075Y-74802007D01*
X156050000Y-74929174D01*
X156050000Y-75060826D01*
X156084075Y-75187993D01*
X156116988Y-75245000D01*
X155219364Y-75245000D01*
X155276567Y-75458486D01*
X155276570Y-75458492D01*
X155376399Y-75672578D01*
X155511894Y-75866082D01*
X155678917Y-76033105D01*
X155864595Y-76163119D01*
X155908219Y-76217696D01*
X155915412Y-76287195D01*
X155883890Y-76349549D01*
X155864595Y-76366269D01*
X155678594Y-76496508D01*
X155511505Y-76663597D01*
X155375965Y-76857169D01*
X155375964Y-76857171D01*
X155276098Y-77071335D01*
X155276094Y-77071344D01*
X155214938Y-77299586D01*
X155214936Y-77299596D01*
X155194341Y-77534999D01*
X155194341Y-77535000D01*
X155214936Y-77770403D01*
X155214938Y-77770413D01*
X155276094Y-77998655D01*
X155276096Y-77998659D01*
X155276097Y-77998663D01*
X155310387Y-78072197D01*
X155375965Y-78212830D01*
X155375967Y-78212834D01*
X155433500Y-78294999D01*
X155511501Y-78406396D01*
X155511506Y-78406402D01*
X155633430Y-78528326D01*
X155666915Y-78589649D01*
X155661931Y-78659341D01*
X155620059Y-78715274D01*
X155589083Y-78732189D01*
X155457669Y-78781203D01*
X155457664Y-78781206D01*
X155342455Y-78867452D01*
X155342452Y-78867455D01*
X155256206Y-78982664D01*
X155256202Y-78982671D01*
X155205908Y-79117517D01*
X155200654Y-79166395D01*
X155199501Y-79177123D01*
X155199500Y-79177135D01*
X155199500Y-80972870D01*
X155199501Y-80972876D01*
X155205908Y-81032483D01*
X155256202Y-81167328D01*
X155256206Y-81167335D01*
X155342452Y-81282544D01*
X155342455Y-81282547D01*
X155457664Y-81368793D01*
X155457671Y-81368797D01*
X155592517Y-81419091D01*
X155592516Y-81419091D01*
X155599444Y-81419835D01*
X155652127Y-81425500D01*
X157447872Y-81425499D01*
X157507483Y-81419091D01*
X157642331Y-81368796D01*
X157757546Y-81282546D01*
X157843796Y-81167331D01*
X157894091Y-81032483D01*
X157900500Y-80972873D01*
X157900500Y-80835000D01*
X187894815Y-80835000D01*
X187913503Y-81012805D01*
X187913504Y-81012807D01*
X187968747Y-81182829D01*
X187968750Y-81182835D01*
X188058141Y-81337665D01*
X188099812Y-81383946D01*
X188177764Y-81470521D01*
X188177767Y-81470523D01*
X188177770Y-81470526D01*
X188322407Y-81575612D01*
X188485733Y-81648329D01*
X188660609Y-81685500D01*
X188660610Y-81685500D01*
X188839389Y-81685500D01*
X188839391Y-81685500D01*
X189014267Y-81648329D01*
X189177593Y-81575612D01*
X189322230Y-81470526D01*
X189441859Y-81337665D01*
X189531250Y-81182835D01*
X189586497Y-81012803D01*
X189605185Y-80835000D01*
X189586497Y-80657197D01*
X189531250Y-80487165D01*
X189441859Y-80332335D01*
X189395003Y-80280296D01*
X189322235Y-80199478D01*
X189322232Y-80199476D01*
X189322231Y-80199475D01*
X189322230Y-80199474D01*
X189177593Y-80094388D01*
X189014267Y-80021671D01*
X189014265Y-80021670D01*
X188886594Y-79994533D01*
X188839391Y-79984500D01*
X188660609Y-79984500D01*
X188629954Y-79991015D01*
X188485733Y-80021670D01*
X188485728Y-80021672D01*
X188322408Y-80094387D01*
X188177768Y-80199475D01*
X188058140Y-80332336D01*
X187968750Y-80487164D01*
X187968747Y-80487170D01*
X187913504Y-80657192D01*
X187913503Y-80657194D01*
X187894815Y-80835000D01*
X157900500Y-80835000D01*
X157900499Y-79177128D01*
X157894091Y-79117517D01*
X157873880Y-79063329D01*
X157843797Y-78982671D01*
X157843793Y-78982664D01*
X157757547Y-78867455D01*
X157757544Y-78867452D01*
X157642335Y-78781206D01*
X157642328Y-78781202D01*
X157510917Y-78732189D01*
X157454983Y-78690318D01*
X157430566Y-78624853D01*
X157445418Y-78556580D01*
X157466563Y-78528332D01*
X157588495Y-78406401D01*
X157698008Y-78250000D01*
X186894815Y-78250000D01*
X186913503Y-78427805D01*
X186913504Y-78427807D01*
X186968747Y-78597829D01*
X186968750Y-78597835D01*
X187058141Y-78752665D01*
X187063542Y-78758663D01*
X187177764Y-78885521D01*
X187177767Y-78885523D01*
X187177770Y-78885526D01*
X187322407Y-78990612D01*
X187485733Y-79063329D01*
X187660609Y-79100500D01*
X187660610Y-79100500D01*
X187839389Y-79100500D01*
X187839391Y-79100500D01*
X188014267Y-79063329D01*
X188177593Y-78990612D01*
X188322230Y-78885526D01*
X188441859Y-78752665D01*
X188531250Y-78597835D01*
X188586497Y-78427803D01*
X188605185Y-78250000D01*
X188586497Y-78072197D01*
X188531250Y-77902165D01*
X188441859Y-77747335D01*
X188395003Y-77695296D01*
X188322235Y-77614478D01*
X188322232Y-77614476D01*
X188322231Y-77614475D01*
X188322230Y-77614474D01*
X188177593Y-77509388D01*
X188014267Y-77436671D01*
X188014265Y-77436670D01*
X187886594Y-77409533D01*
X187839391Y-77399500D01*
X187660609Y-77399500D01*
X187629954Y-77406015D01*
X187485733Y-77436670D01*
X187485728Y-77436672D01*
X187322408Y-77509387D01*
X187177768Y-77614475D01*
X187058140Y-77747336D01*
X186968750Y-77902164D01*
X186968747Y-77902170D01*
X186913504Y-78072192D01*
X186913503Y-78072194D01*
X186894815Y-78250000D01*
X157698008Y-78250000D01*
X157724035Y-78212830D01*
X157823903Y-77998663D01*
X157885063Y-77770408D01*
X157905659Y-77535000D01*
X157885063Y-77299592D01*
X157823903Y-77071337D01*
X157724035Y-76857171D01*
X157588495Y-76663599D01*
X157588494Y-76663597D01*
X157421402Y-76496506D01*
X157421401Y-76496505D01*
X157235405Y-76366269D01*
X157191781Y-76311692D01*
X157184588Y-76242193D01*
X157216110Y-76179839D01*
X157235405Y-76163119D01*
X157421082Y-76033105D01*
X157588105Y-75866082D01*
X157723600Y-75672578D01*
X157823429Y-75458492D01*
X157823432Y-75458486D01*
X157880636Y-75245000D01*
X156983012Y-75245000D01*
X157015925Y-75187993D01*
X157050000Y-75060826D01*
X157050000Y-74929174D01*
X157015925Y-74802007D01*
X156983012Y-74745000D01*
X157880636Y-74745000D01*
X157880635Y-74744999D01*
X157823432Y-74531513D01*
X157823429Y-74531507D01*
X157723600Y-74317422D01*
X157723599Y-74317420D01*
X157588113Y-74123926D01*
X157588108Y-74123920D01*
X157421078Y-73956890D01*
X157235405Y-73826879D01*
X157191780Y-73772302D01*
X157184588Y-73702804D01*
X157216110Y-73640449D01*
X157235406Y-73623730D01*
X157421401Y-73493495D01*
X157588495Y-73326401D01*
X157724035Y-73132830D01*
X157823903Y-72918663D01*
X157885063Y-72690408D01*
X157905659Y-72455000D01*
X157885063Y-72219592D01*
X157823903Y-71991337D01*
X157724035Y-71777171D01*
X157654459Y-71677805D01*
X157588494Y-71583597D01*
X157504896Y-71500000D01*
X177894815Y-71500000D01*
X177913503Y-71677805D01*
X177913504Y-71677807D01*
X177968747Y-71847829D01*
X177968750Y-71847835D01*
X178058141Y-72002665D01*
X178078701Y-72025499D01*
X178177764Y-72135521D01*
X178177769Y-72135525D01*
X178197255Y-72149683D01*
X178239920Y-72205014D01*
X178245898Y-72274627D01*
X178213291Y-72336422D01*
X178197255Y-72350317D01*
X178177769Y-72364474D01*
X178058140Y-72497336D01*
X177968750Y-72652164D01*
X177968747Y-72652170D01*
X177913504Y-72822192D01*
X177913503Y-72822194D01*
X177894815Y-73000000D01*
X177913503Y-73177805D01*
X177913504Y-73177807D01*
X177968747Y-73347829D01*
X177968750Y-73347835D01*
X178058141Y-73502665D01*
X178099812Y-73548946D01*
X178177764Y-73635521D01*
X178177767Y-73635523D01*
X178177770Y-73635526D01*
X178322407Y-73740612D01*
X178485733Y-73813329D01*
X178660609Y-73850500D01*
X178660610Y-73850500D01*
X178839389Y-73850500D01*
X178839391Y-73850500D01*
X179014267Y-73813329D01*
X179177593Y-73740612D01*
X179322230Y-73635526D01*
X179441859Y-73502665D01*
X179531250Y-73347835D01*
X179574411Y-73214999D01*
X203269341Y-73214999D01*
X203269341Y-73215000D01*
X203289936Y-73450403D01*
X203289938Y-73450413D01*
X203351094Y-73678655D01*
X203351096Y-73678659D01*
X203351097Y-73678663D01*
X203420212Y-73826880D01*
X203450965Y-73892830D01*
X203450967Y-73892834D01*
X203586501Y-74086395D01*
X203586506Y-74086402D01*
X203753597Y-74253493D01*
X203753603Y-74253498D01*
X203939594Y-74383730D01*
X203983219Y-74438307D01*
X203990413Y-74507805D01*
X203958890Y-74570160D01*
X203939595Y-74586880D01*
X203753922Y-74716890D01*
X203753920Y-74716891D01*
X203586891Y-74883920D01*
X203586886Y-74883926D01*
X203451400Y-75077420D01*
X203451399Y-75077422D01*
X203351570Y-75291507D01*
X203351567Y-75291513D01*
X203294364Y-75504999D01*
X203294364Y-75505000D01*
X204191988Y-75505000D01*
X204159075Y-75562007D01*
X204125000Y-75689174D01*
X204125000Y-75820826D01*
X204159075Y-75947993D01*
X204191988Y-76005000D01*
X203294364Y-76005000D01*
X203351567Y-76218486D01*
X203351570Y-76218492D01*
X203451399Y-76432578D01*
X203586894Y-76626082D01*
X203753917Y-76793105D01*
X203939595Y-76923119D01*
X203983219Y-76977696D01*
X203990412Y-77047195D01*
X203958890Y-77109549D01*
X203939595Y-77126269D01*
X203753594Y-77256508D01*
X203586505Y-77423597D01*
X203450965Y-77617169D01*
X203450964Y-77617171D01*
X203351098Y-77831335D01*
X203351094Y-77831344D01*
X203289938Y-78059586D01*
X203289936Y-78059596D01*
X203269341Y-78294999D01*
X203269341Y-78295000D01*
X203289936Y-78530403D01*
X203289938Y-78530413D01*
X203351094Y-78758655D01*
X203351096Y-78758659D01*
X203351097Y-78758663D01*
X203450965Y-78972830D01*
X203450967Y-78972834D01*
X203586501Y-79166395D01*
X203586506Y-79166402D01*
X203753597Y-79333493D01*
X203753603Y-79333498D01*
X203939158Y-79463425D01*
X203982783Y-79518002D01*
X203989977Y-79587500D01*
X203958454Y-79649855D01*
X203939158Y-79666575D01*
X203753597Y-79796505D01*
X203586505Y-79963597D01*
X203450965Y-80157169D01*
X203450964Y-80157171D01*
X203351098Y-80371335D01*
X203351094Y-80371344D01*
X203289938Y-80599586D01*
X203289936Y-80599596D01*
X203269341Y-80834999D01*
X203269341Y-80835000D01*
X203289936Y-81070403D01*
X203289938Y-81070413D01*
X203351094Y-81298655D01*
X203351096Y-81298659D01*
X203351097Y-81298663D01*
X203410242Y-81425499D01*
X203450965Y-81512830D01*
X203450967Y-81512834D01*
X203559281Y-81667521D01*
X203586505Y-81706401D01*
X203753599Y-81873495D01*
X203831159Y-81927803D01*
X203947165Y-82009032D01*
X203947167Y-82009033D01*
X203947170Y-82009035D01*
X204161337Y-82108903D01*
X204389592Y-82170063D01*
X204577918Y-82186539D01*
X204624999Y-82190659D01*
X204625000Y-82190659D01*
X204625001Y-82190659D01*
X204664234Y-82187226D01*
X204860408Y-82170063D01*
X205088663Y-82108903D01*
X205302830Y-82009035D01*
X205496401Y-81873495D01*
X205663495Y-81706401D01*
X205799035Y-81512830D01*
X205898903Y-81298663D01*
X205960063Y-81070408D01*
X205980659Y-80835000D01*
X205960063Y-80599592D01*
X205898903Y-80371337D01*
X205799035Y-80157171D01*
X205755074Y-80094387D01*
X205663494Y-79963597D01*
X205496402Y-79796506D01*
X205496396Y-79796501D01*
X205310842Y-79666575D01*
X205267217Y-79611998D01*
X205260023Y-79542500D01*
X205291546Y-79480145D01*
X205310842Y-79463425D01*
X205333026Y-79447891D01*
X205496401Y-79333495D01*
X205663495Y-79166401D01*
X205799035Y-78972830D01*
X205898903Y-78758663D01*
X205960063Y-78530408D01*
X205980659Y-78295000D01*
X205960063Y-78059592D01*
X205898903Y-77831337D01*
X205799035Y-77617171D01*
X205797150Y-77614478D01*
X205663494Y-77423597D01*
X205496402Y-77256506D01*
X205496401Y-77256505D01*
X205310405Y-77126269D01*
X205266781Y-77071692D01*
X205259588Y-77002193D01*
X205291110Y-76939839D01*
X205310405Y-76923119D01*
X205496082Y-76793105D01*
X205663105Y-76626082D01*
X205798600Y-76432578D01*
X205898429Y-76218492D01*
X205898432Y-76218486D01*
X205955636Y-76005000D01*
X205058012Y-76005000D01*
X205090925Y-75947993D01*
X205125000Y-75820826D01*
X205125000Y-75689174D01*
X205090925Y-75562007D01*
X205058012Y-75505000D01*
X205955636Y-75505000D01*
X205955635Y-75504999D01*
X205898432Y-75291513D01*
X205898429Y-75291507D01*
X205798600Y-75077422D01*
X205798599Y-75077420D01*
X205663113Y-74883926D01*
X205663108Y-74883920D01*
X205496078Y-74716890D01*
X205310405Y-74586879D01*
X205266780Y-74532302D01*
X205259588Y-74462804D01*
X205291110Y-74400449D01*
X205310406Y-74383730D01*
X205496401Y-74253495D01*
X205663495Y-74086401D01*
X205799035Y-73892830D01*
X205898903Y-73678663D01*
X205960063Y-73450408D01*
X205980659Y-73215000D01*
X205960063Y-72979592D01*
X205898903Y-72751337D01*
X205799035Y-72537171D01*
X205771142Y-72497336D01*
X205663496Y-72343600D01*
X205614885Y-72294989D01*
X205541567Y-72221671D01*
X205508084Y-72160351D01*
X205513068Y-72090659D01*
X205554939Y-72034725D01*
X205585915Y-72017810D01*
X205717331Y-71968796D01*
X205832546Y-71882546D01*
X205918796Y-71767331D01*
X205969091Y-71632483D01*
X205975500Y-71572873D01*
X205975499Y-69777128D01*
X205969091Y-69717517D01*
X205954947Y-69679596D01*
X205918797Y-69582671D01*
X205918793Y-69582664D01*
X205832547Y-69467455D01*
X205832544Y-69467452D01*
X205717335Y-69381206D01*
X205717328Y-69381202D01*
X205582482Y-69330908D01*
X205582483Y-69330908D01*
X205522883Y-69324501D01*
X205522881Y-69324500D01*
X205522873Y-69324500D01*
X205522864Y-69324500D01*
X203727129Y-69324500D01*
X203727123Y-69324501D01*
X203667516Y-69330908D01*
X203532671Y-69381202D01*
X203532664Y-69381206D01*
X203417455Y-69467452D01*
X203417452Y-69467455D01*
X203331206Y-69582664D01*
X203331202Y-69582671D01*
X203280908Y-69717517D01*
X203274501Y-69777116D01*
X203274501Y-69777123D01*
X203274500Y-69777135D01*
X203274500Y-71572870D01*
X203274501Y-71572876D01*
X203280908Y-71632483D01*
X203331202Y-71767328D01*
X203331206Y-71767335D01*
X203417452Y-71882544D01*
X203417455Y-71882547D01*
X203532664Y-71968793D01*
X203532671Y-71968797D01*
X203664081Y-72017810D01*
X203720015Y-72059681D01*
X203744432Y-72125145D01*
X203729580Y-72193418D01*
X203708430Y-72221673D01*
X203586503Y-72343600D01*
X203450965Y-72537169D01*
X203450964Y-72537171D01*
X203351098Y-72751335D01*
X203351094Y-72751344D01*
X203289938Y-72979586D01*
X203289936Y-72979596D01*
X203269341Y-73214999D01*
X179574411Y-73214999D01*
X179586497Y-73177803D01*
X179605185Y-73000000D01*
X179586497Y-72822197D01*
X179543676Y-72690408D01*
X179531252Y-72652170D01*
X179531249Y-72652164D01*
X179464857Y-72537169D01*
X179441859Y-72497335D01*
X179395003Y-72445296D01*
X179322235Y-72364478D01*
X179322231Y-72364475D01*
X179322230Y-72364474D01*
X179302745Y-72350317D01*
X179260080Y-72294989D01*
X179254101Y-72225375D01*
X179286706Y-72163580D01*
X179302746Y-72149682D01*
X179322230Y-72135526D01*
X179441859Y-72002665D01*
X179531250Y-71847835D01*
X179586497Y-71677803D01*
X179605185Y-71500000D01*
X182894815Y-71500000D01*
X182913503Y-71677805D01*
X182913504Y-71677807D01*
X182968747Y-71847829D01*
X182968750Y-71847835D01*
X183058141Y-72002665D01*
X183078701Y-72025499D01*
X183177764Y-72135521D01*
X183177767Y-72135523D01*
X183177770Y-72135526D01*
X183322407Y-72240612D01*
X183485733Y-72313329D01*
X183660609Y-72350500D01*
X183660610Y-72350500D01*
X183839389Y-72350500D01*
X183839391Y-72350500D01*
X184014267Y-72313329D01*
X184177593Y-72240612D01*
X184322230Y-72135526D01*
X184441859Y-72002665D01*
X184531250Y-71847835D01*
X184586497Y-71677803D01*
X184605185Y-71500000D01*
X184586497Y-71322197D01*
X184531250Y-71152165D01*
X184441859Y-70997335D01*
X184395003Y-70945296D01*
X184322235Y-70864478D01*
X184322232Y-70864476D01*
X184322231Y-70864475D01*
X184322230Y-70864474D01*
X184177593Y-70759388D01*
X184156507Y-70750000D01*
X191144815Y-70750000D01*
X191163503Y-70927805D01*
X191163504Y-70927807D01*
X191218747Y-71097829D01*
X191218750Y-71097835D01*
X191308141Y-71252665D01*
X191333623Y-71280965D01*
X191427764Y-71385521D01*
X191427767Y-71385523D01*
X191427770Y-71385526D01*
X191572407Y-71490612D01*
X191735733Y-71563329D01*
X191910609Y-71600500D01*
X191910610Y-71600500D01*
X192089389Y-71600500D01*
X192089391Y-71600500D01*
X192264267Y-71563329D01*
X192427593Y-71490612D01*
X192572230Y-71385526D01*
X192691859Y-71252665D01*
X192781250Y-71097835D01*
X192836497Y-70927803D01*
X192855185Y-70750000D01*
X192836497Y-70572197D01*
X192781250Y-70402165D01*
X192691859Y-70247335D01*
X192645003Y-70195296D01*
X192572235Y-70114478D01*
X192572232Y-70114476D01*
X192572231Y-70114475D01*
X192572230Y-70114474D01*
X192427593Y-70009388D01*
X192264267Y-69936671D01*
X192264265Y-69936670D01*
X192136594Y-69909533D01*
X192089391Y-69899500D01*
X191910609Y-69899500D01*
X191879954Y-69906015D01*
X191735733Y-69936670D01*
X191735728Y-69936672D01*
X191572408Y-70009387D01*
X191427768Y-70114475D01*
X191308140Y-70247336D01*
X191218750Y-70402164D01*
X191218747Y-70402170D01*
X191163504Y-70572192D01*
X191163503Y-70572194D01*
X191144815Y-70750000D01*
X184156507Y-70750000D01*
X184014267Y-70686671D01*
X184014265Y-70686670D01*
X183886594Y-70659533D01*
X183839391Y-70649500D01*
X183660609Y-70649500D01*
X183629954Y-70656015D01*
X183485733Y-70686670D01*
X183485728Y-70686672D01*
X183322408Y-70759387D01*
X183177768Y-70864475D01*
X183058140Y-70997336D01*
X182968750Y-71152164D01*
X182968747Y-71152170D01*
X182913504Y-71322192D01*
X182913503Y-71322194D01*
X182894815Y-71500000D01*
X179605185Y-71500000D01*
X179586497Y-71322197D01*
X179531250Y-71152165D01*
X179441859Y-70997335D01*
X179395003Y-70945296D01*
X179322235Y-70864478D01*
X179322232Y-70864476D01*
X179322231Y-70864475D01*
X179322230Y-70864474D01*
X179177593Y-70759388D01*
X179014267Y-70686671D01*
X179014265Y-70686670D01*
X178886594Y-70659533D01*
X178839391Y-70649500D01*
X178660609Y-70649500D01*
X178629954Y-70656015D01*
X178485733Y-70686670D01*
X178485728Y-70686672D01*
X178322408Y-70759387D01*
X178177768Y-70864475D01*
X178058140Y-70997336D01*
X177968750Y-71152164D01*
X177968747Y-71152170D01*
X177913504Y-71322192D01*
X177913503Y-71322194D01*
X177894815Y-71500000D01*
X157504896Y-71500000D01*
X157421402Y-71416506D01*
X157421396Y-71416501D01*
X157235842Y-71286575D01*
X157192217Y-71231998D01*
X157185023Y-71162500D01*
X157216546Y-71100145D01*
X157235842Y-71083425D01*
X157258026Y-71067891D01*
X157421401Y-70953495D01*
X157588495Y-70786401D01*
X157724035Y-70592830D01*
X157823903Y-70378663D01*
X157885063Y-70150408D01*
X157905659Y-69915000D01*
X157885063Y-69679592D01*
X157828222Y-69467455D01*
X157823905Y-69451344D01*
X157823904Y-69451343D01*
X157823903Y-69451337D01*
X157724035Y-69237171D01*
X157588495Y-69043599D01*
X157588494Y-69043597D01*
X157421402Y-68876506D01*
X157421395Y-68876501D01*
X157227834Y-68740967D01*
X157227830Y-68740965D01*
X157227828Y-68740964D01*
X157013663Y-68641097D01*
X157013659Y-68641096D01*
X157013655Y-68641094D01*
X156785413Y-68579938D01*
X156785403Y-68579936D01*
X156550001Y-68559341D01*
X156549999Y-68559341D01*
X156314596Y-68579936D01*
X156314586Y-68579938D01*
X156086344Y-68641094D01*
X156086335Y-68641098D01*
X155872171Y-68740964D01*
X155872169Y-68740965D01*
X155678597Y-68876505D01*
X155511505Y-69043597D01*
X155375965Y-69237169D01*
X155375964Y-69237171D01*
X155276098Y-69451335D01*
X155276094Y-69451344D01*
X155214938Y-69679586D01*
X155214936Y-69679596D01*
X155194341Y-69914999D01*
X150200500Y-69914999D01*
X150200500Y-64600000D01*
X176851065Y-64600000D01*
X176869753Y-64777805D01*
X176869754Y-64777807D01*
X176924997Y-64947829D01*
X176925000Y-64947835D01*
X177014391Y-65102665D01*
X177056062Y-65148946D01*
X177134014Y-65235521D01*
X177134017Y-65235523D01*
X177134020Y-65235526D01*
X177278657Y-65340612D01*
X177441983Y-65413329D01*
X177616859Y-65450500D01*
X177616860Y-65450500D01*
X177795639Y-65450500D01*
X177795641Y-65450500D01*
X177970517Y-65413329D01*
X178133843Y-65340612D01*
X178278480Y-65235526D01*
X178398109Y-65102665D01*
X178487500Y-64947835D01*
X178542747Y-64777803D01*
X178561435Y-64600000D01*
X178542747Y-64422197D01*
X178487500Y-64252165D01*
X178398109Y-64097335D01*
X178351253Y-64045296D01*
X178278485Y-63964478D01*
X178278482Y-63964476D01*
X178278481Y-63964475D01*
X178278480Y-63964474D01*
X178133843Y-63859388D01*
X177970517Y-63786671D01*
X177970515Y-63786670D01*
X177842844Y-63759533D01*
X177795641Y-63749500D01*
X177616859Y-63749500D01*
X177586204Y-63756015D01*
X177441983Y-63786670D01*
X177441978Y-63786672D01*
X177278658Y-63859387D01*
X177134018Y-63964475D01*
X177014390Y-64097336D01*
X176925000Y-64252164D01*
X176924997Y-64252170D01*
X176869754Y-64422192D01*
X176869753Y-64422194D01*
X176851065Y-64600000D01*
X150200500Y-64600000D01*
X150200500Y-63362500D01*
X166782315Y-63362500D01*
X166801003Y-63540305D01*
X166801004Y-63540307D01*
X166856247Y-63710329D01*
X166856250Y-63710335D01*
X166945641Y-63865165D01*
X166987312Y-63911446D01*
X167065264Y-63998021D01*
X167065267Y-63998023D01*
X167065270Y-63998026D01*
X167209907Y-64103112D01*
X167373233Y-64175829D01*
X167548109Y-64213000D01*
X167548110Y-64213000D01*
X167726889Y-64213000D01*
X167726891Y-64213000D01*
X167901767Y-64175829D01*
X168065093Y-64103112D01*
X168209730Y-63998026D01*
X168329359Y-63865165D01*
X168418750Y-63710335D01*
X168473997Y-63540303D01*
X168492685Y-63362500D01*
X168473997Y-63184697D01*
X168418750Y-63014665D01*
X168329359Y-62859835D01*
X168282503Y-62807796D01*
X168209735Y-62726978D01*
X168209732Y-62726976D01*
X168209731Y-62726975D01*
X168209730Y-62726974D01*
X168065093Y-62621888D01*
X167901767Y-62549171D01*
X167901765Y-62549170D01*
X167774094Y-62522033D01*
X167726891Y-62512000D01*
X167548109Y-62512000D01*
X167517454Y-62518515D01*
X167373233Y-62549170D01*
X167373228Y-62549172D01*
X167209908Y-62621887D01*
X167065268Y-62726975D01*
X166945640Y-62859836D01*
X166856250Y-63014664D01*
X166856247Y-63014670D01*
X166801004Y-63184692D01*
X166801003Y-63184694D01*
X166782315Y-63362500D01*
X150200500Y-63362500D01*
X150200500Y-56002424D01*
X150200548Y-55999999D01*
X152294922Y-55999999D01*
X152294922Y-56000000D01*
X152315219Y-56387287D01*
X152375886Y-56770323D01*
X152375887Y-56770330D01*
X152476262Y-57144936D01*
X152615244Y-57506994D01*
X152791310Y-57852543D01*
X153002531Y-58177793D01*
X153211095Y-58435350D01*
X153211096Y-58435350D01*
X154705748Y-56940698D01*
X154779588Y-57042330D01*
X154957670Y-57220412D01*
X155059300Y-57294251D01*
X153564648Y-58788903D01*
X153564649Y-58788904D01*
X153822206Y-58997468D01*
X154147456Y-59208689D01*
X154493005Y-59384755D01*
X154855063Y-59523737D01*
X155229669Y-59624112D01*
X155229676Y-59624113D01*
X155612712Y-59684780D01*
X155999999Y-59705078D01*
X156000001Y-59705078D01*
X156387287Y-59684780D01*
X156770323Y-59624113D01*
X156770330Y-59624112D01*
X157144936Y-59523737D01*
X157506994Y-59384755D01*
X157852543Y-59208689D01*
X158177783Y-58997476D01*
X158177785Y-58997475D01*
X158435349Y-58788902D01*
X156940698Y-57294251D01*
X157042330Y-57220412D01*
X157220412Y-57042330D01*
X157294251Y-56940698D01*
X158788902Y-58435349D01*
X158997475Y-58177785D01*
X158997476Y-58177783D01*
X159208689Y-57852543D01*
X159384755Y-57506994D01*
X159523737Y-57144936D01*
X159624112Y-56770330D01*
X159624113Y-56770323D01*
X159684780Y-56387287D01*
X159705078Y-56000000D01*
X159705078Y-55999999D01*
X159700429Y-55911304D01*
X164099500Y-55911304D01*
X164099500Y-56588695D01*
X164134103Y-56762658D01*
X164134106Y-56762667D01*
X164201983Y-56926540D01*
X164201990Y-56926553D01*
X164300535Y-57074034D01*
X164300538Y-57074038D01*
X164425961Y-57199461D01*
X164425965Y-57199464D01*
X164573446Y-57298009D01*
X164573459Y-57298016D01*
X164683214Y-57343477D01*
X164737334Y-57365894D01*
X164737336Y-57365894D01*
X164737341Y-57365896D01*
X164911304Y-57400499D01*
X164911307Y-57400500D01*
X164911309Y-57400500D01*
X165088693Y-57400500D01*
X165088694Y-57400499D01*
X165146682Y-57388964D01*
X165262658Y-57365896D01*
X165262661Y-57365894D01*
X165262666Y-57365894D01*
X165426547Y-57298013D01*
X165426552Y-57298009D01*
X165426555Y-57298008D01*
X165542684Y-57220412D01*
X165556558Y-57211141D01*
X165623234Y-57190263D01*
X165690615Y-57208747D01*
X165694340Y-57211141D01*
X165823683Y-57297566D01*
X165823693Y-57297571D01*
X165987476Y-57365412D01*
X165987483Y-57365415D01*
X166000000Y-57367904D01*
X166000000Y-56299728D01*
X166038060Y-56391614D01*
X166108386Y-56461940D01*
X166200272Y-56500000D01*
X166299728Y-56500000D01*
X166391614Y-56461940D01*
X166461940Y-56391614D01*
X166500000Y-56299728D01*
X166500000Y-57367903D01*
X166512516Y-57365415D01*
X166512523Y-57365412D01*
X166676306Y-57297571D01*
X166676315Y-57297566D01*
X166805659Y-57211141D01*
X166872336Y-57190263D01*
X166939716Y-57208747D01*
X166943441Y-57211141D01*
X167072791Y-57297571D01*
X167073453Y-57298013D01*
X167073455Y-57298014D01*
X167073459Y-57298016D01*
X167183214Y-57343477D01*
X167237334Y-57365894D01*
X167237336Y-57365894D01*
X167237341Y-57365896D01*
X167411304Y-57400499D01*
X167411307Y-57400500D01*
X167411309Y-57400500D01*
X167588693Y-57400500D01*
X167588694Y-57400499D01*
X167646682Y-57388964D01*
X167762658Y-57365896D01*
X167762661Y-57365894D01*
X167762666Y-57365894D01*
X167926547Y-57298013D01*
X168056109Y-57211442D01*
X168122786Y-57190564D01*
X168190166Y-57209048D01*
X168193891Y-57211442D01*
X168323446Y-57298008D01*
X168323453Y-57298013D01*
X168323455Y-57298014D01*
X168323459Y-57298016D01*
X168433214Y-57343477D01*
X168487334Y-57365894D01*
X168487336Y-57365894D01*
X168487341Y-57365896D01*
X168661304Y-57400499D01*
X168661307Y-57400500D01*
X168661309Y-57400500D01*
X168838693Y-57400500D01*
X168838694Y-57400499D01*
X168896682Y-57388964D01*
X169012658Y-57365896D01*
X169012661Y-57365894D01*
X169012666Y-57365894D01*
X169176547Y-57298013D01*
X169306109Y-57211442D01*
X169372786Y-57190564D01*
X169440166Y-57209048D01*
X169443891Y-57211442D01*
X169573446Y-57298008D01*
X169573453Y-57298013D01*
X169573455Y-57298014D01*
X169573459Y-57298016D01*
X169683214Y-57343477D01*
X169737334Y-57365894D01*
X169737336Y-57365894D01*
X169737341Y-57365896D01*
X169911304Y-57400499D01*
X169911307Y-57400500D01*
X169911309Y-57400500D01*
X170088693Y-57400500D01*
X170088694Y-57400499D01*
X170146682Y-57388964D01*
X170262658Y-57365896D01*
X170262661Y-57365894D01*
X170262666Y-57365894D01*
X170426547Y-57298013D01*
X170556109Y-57211442D01*
X170622786Y-57190564D01*
X170690166Y-57209048D01*
X170693891Y-57211442D01*
X170823446Y-57298008D01*
X170823453Y-57298013D01*
X170823455Y-57298014D01*
X170823459Y-57298016D01*
X170933214Y-57343477D01*
X170987334Y-57365894D01*
X170987336Y-57365894D01*
X170987341Y-57365896D01*
X171161304Y-57400499D01*
X171161307Y-57400500D01*
X171161309Y-57400500D01*
X171338693Y-57400500D01*
X171338694Y-57400499D01*
X171396682Y-57388964D01*
X171512658Y-57365896D01*
X171512661Y-57365894D01*
X171512666Y-57365894D01*
X171676547Y-57298013D01*
X171806109Y-57211442D01*
X171872786Y-57190564D01*
X171940166Y-57209048D01*
X171943891Y-57211442D01*
X172073446Y-57298008D01*
X172073453Y-57298013D01*
X172073455Y-57298014D01*
X172073459Y-57298016D01*
X172183214Y-57343477D01*
X172237334Y-57365894D01*
X172237336Y-57365894D01*
X172237341Y-57365896D01*
X172411304Y-57400499D01*
X172411307Y-57400500D01*
X172411309Y-57400500D01*
X172588693Y-57400500D01*
X172588694Y-57400499D01*
X172646682Y-57388964D01*
X172762658Y-57365896D01*
X172762661Y-57365894D01*
X172762666Y-57365894D01*
X172926547Y-57298013D01*
X172983838Y-57259731D01*
X173050510Y-57238854D01*
X173116873Y-57256716D01*
X173260394Y-57343478D01*
X173422804Y-57394086D01*
X173493384Y-57400500D01*
X173493387Y-57400500D01*
X174006613Y-57400500D01*
X174006616Y-57400500D01*
X174077196Y-57394086D01*
X174239606Y-57343478D01*
X174385185Y-57255472D01*
X174505472Y-57135185D01*
X174593478Y-56989606D01*
X174644086Y-56827196D01*
X174650500Y-56756616D01*
X174650500Y-55743384D01*
X174644086Y-55672804D01*
X174593478Y-55510394D01*
X174505472Y-55364815D01*
X174505470Y-55364813D01*
X174505469Y-55364811D01*
X174385188Y-55244530D01*
X174314820Y-55201991D01*
X174239606Y-55156522D01*
X174077196Y-55105914D01*
X174077194Y-55105913D01*
X174077192Y-55105913D01*
X174027778Y-55101423D01*
X174006616Y-55099500D01*
X173493384Y-55099500D01*
X173474145Y-55101248D01*
X173422807Y-55105913D01*
X173260391Y-55156523D01*
X173116875Y-55243281D01*
X173049321Y-55261117D01*
X172983834Y-55240265D01*
X172926555Y-55201991D01*
X172926540Y-55201983D01*
X172762667Y-55134106D01*
X172762658Y-55134103D01*
X172588694Y-55099500D01*
X172588691Y-55099500D01*
X172411309Y-55099500D01*
X172411306Y-55099500D01*
X172237341Y-55134103D01*
X172237332Y-55134106D01*
X172073459Y-55201983D01*
X172073446Y-55201990D01*
X171943891Y-55288557D01*
X171877213Y-55309435D01*
X171809833Y-55290950D01*
X171806109Y-55288557D01*
X171676553Y-55201990D01*
X171676540Y-55201983D01*
X171512667Y-55134106D01*
X171512658Y-55134103D01*
X171338694Y-55099500D01*
X171338691Y-55099500D01*
X171161309Y-55099500D01*
X171161306Y-55099500D01*
X170987341Y-55134103D01*
X170987332Y-55134106D01*
X170823459Y-55201983D01*
X170823446Y-55201990D01*
X170693891Y-55288557D01*
X170627213Y-55309435D01*
X170559833Y-55290950D01*
X170556109Y-55288557D01*
X170426553Y-55201990D01*
X170426540Y-55201983D01*
X170262667Y-55134106D01*
X170262658Y-55134103D01*
X170088694Y-55099500D01*
X170088691Y-55099500D01*
X169911309Y-55099500D01*
X169911306Y-55099500D01*
X169737341Y-55134103D01*
X169737332Y-55134106D01*
X169573459Y-55201983D01*
X169573446Y-55201990D01*
X169443891Y-55288557D01*
X169377213Y-55309435D01*
X169309833Y-55290950D01*
X169306109Y-55288557D01*
X169176553Y-55201990D01*
X169176540Y-55201983D01*
X169012667Y-55134106D01*
X169012658Y-55134103D01*
X168838694Y-55099500D01*
X168838691Y-55099500D01*
X168661309Y-55099500D01*
X168661306Y-55099500D01*
X168487341Y-55134103D01*
X168487332Y-55134106D01*
X168323459Y-55201983D01*
X168323446Y-55201990D01*
X168193891Y-55288557D01*
X168127213Y-55309435D01*
X168059833Y-55290950D01*
X168056109Y-55288557D01*
X167926553Y-55201990D01*
X167926540Y-55201983D01*
X167762667Y-55134106D01*
X167762658Y-55134103D01*
X167588694Y-55099500D01*
X167588691Y-55099500D01*
X167411309Y-55099500D01*
X167411306Y-55099500D01*
X167237341Y-55134103D01*
X167237332Y-55134106D01*
X167073459Y-55201983D01*
X167073446Y-55201990D01*
X166943441Y-55288858D01*
X166876764Y-55309736D01*
X166809383Y-55291252D01*
X166805659Y-55288858D01*
X166676316Y-55202433D01*
X166676307Y-55202428D01*
X166512519Y-55134585D01*
X166500000Y-55132094D01*
X166500000Y-56200272D01*
X166461940Y-56108386D01*
X166391614Y-56038060D01*
X166299728Y-56000000D01*
X166200272Y-56000000D01*
X166108386Y-56038060D01*
X166038060Y-56108386D01*
X166000000Y-56200272D01*
X166000000Y-55132095D01*
X165999999Y-55132094D01*
X165987480Y-55134585D01*
X165823692Y-55202428D01*
X165823683Y-55202433D01*
X165694340Y-55288858D01*
X165627662Y-55309736D01*
X165560282Y-55291251D01*
X165556558Y-55288858D01*
X165426552Y-55201990D01*
X165426540Y-55201983D01*
X165262667Y-55134106D01*
X165262658Y-55134103D01*
X165088694Y-55099500D01*
X165088691Y-55099500D01*
X164911309Y-55099500D01*
X164911306Y-55099500D01*
X164737341Y-55134103D01*
X164737332Y-55134106D01*
X164573459Y-55201983D01*
X164573446Y-55201990D01*
X164425965Y-55300535D01*
X164425961Y-55300538D01*
X164300538Y-55425961D01*
X164300535Y-55425965D01*
X164201990Y-55573446D01*
X164201983Y-55573459D01*
X164134106Y-55737332D01*
X164134103Y-55737341D01*
X164099500Y-55911304D01*
X159700429Y-55911304D01*
X159684780Y-55612712D01*
X159624113Y-55229676D01*
X159624112Y-55229669D01*
X159523737Y-54855063D01*
X159522613Y-54852135D01*
X181069500Y-54852135D01*
X181069500Y-56647870D01*
X181069501Y-56647876D01*
X181075908Y-56707483D01*
X181126202Y-56842328D01*
X181126206Y-56842335D01*
X181212452Y-56957544D01*
X181212455Y-56957547D01*
X181327664Y-57043793D01*
X181327671Y-57043797D01*
X181462517Y-57094091D01*
X181462516Y-57094091D01*
X181469444Y-57094835D01*
X181522127Y-57100500D01*
X183317872Y-57100499D01*
X183377483Y-57094091D01*
X183512331Y-57043796D01*
X183627546Y-56957546D01*
X183713796Y-56842331D01*
X183762810Y-56710916D01*
X183804681Y-56654984D01*
X183870145Y-56630566D01*
X183938418Y-56645417D01*
X183966673Y-56666569D01*
X184088599Y-56788495D01*
X184185384Y-56856265D01*
X184282165Y-56924032D01*
X184282167Y-56924033D01*
X184282170Y-56924035D01*
X184496337Y-57023903D01*
X184724592Y-57085063D01*
X184901034Y-57100500D01*
X184959999Y-57105659D01*
X184960000Y-57105659D01*
X184960001Y-57105659D01*
X185018966Y-57100500D01*
X185195408Y-57085063D01*
X185423663Y-57023903D01*
X185637830Y-56924035D01*
X185831401Y-56788495D01*
X185998495Y-56621401D01*
X186128730Y-56435405D01*
X186183307Y-56391781D01*
X186252805Y-56384587D01*
X186315160Y-56416110D01*
X186331879Y-56435405D01*
X186461890Y-56621078D01*
X186628917Y-56788105D01*
X186822421Y-56923600D01*
X187036507Y-57023429D01*
X187036516Y-57023433D01*
X187250000Y-57080634D01*
X187250000Y-56183012D01*
X187307007Y-56215925D01*
X187434174Y-56250000D01*
X187565826Y-56250000D01*
X187692993Y-56215925D01*
X187750000Y-56183012D01*
X187750000Y-57080633D01*
X187963483Y-57023433D01*
X187963492Y-57023429D01*
X188177578Y-56923600D01*
X188371082Y-56788105D01*
X188538105Y-56621082D01*
X188668119Y-56435405D01*
X188722696Y-56391781D01*
X188792195Y-56384588D01*
X188854549Y-56416110D01*
X188871269Y-56435405D01*
X189001505Y-56621401D01*
X189168599Y-56788495D01*
X189265384Y-56856265D01*
X189362165Y-56924032D01*
X189362167Y-56924033D01*
X189362170Y-56924035D01*
X189576337Y-57023903D01*
X189804592Y-57085063D01*
X189981034Y-57100500D01*
X190039999Y-57105659D01*
X190040000Y-57105659D01*
X190040001Y-57105659D01*
X190098966Y-57100500D01*
X190275408Y-57085063D01*
X190503663Y-57023903D01*
X190717830Y-56924035D01*
X190911401Y-56788495D01*
X191078495Y-56621401D01*
X191208425Y-56435842D01*
X191263002Y-56392217D01*
X191332500Y-56385023D01*
X191394855Y-56416546D01*
X191411575Y-56435842D01*
X191541500Y-56621395D01*
X191541505Y-56621401D01*
X191708599Y-56788495D01*
X191805384Y-56856265D01*
X191902165Y-56924032D01*
X191902167Y-56924033D01*
X191902170Y-56924035D01*
X192116337Y-57023903D01*
X192344592Y-57085063D01*
X192521034Y-57100500D01*
X192579999Y-57105659D01*
X192580000Y-57105659D01*
X192580001Y-57105659D01*
X192638966Y-57100500D01*
X192815408Y-57085063D01*
X193043663Y-57023903D01*
X193257830Y-56924035D01*
X193451401Y-56788495D01*
X193618495Y-56621401D01*
X193754035Y-56427830D01*
X193853903Y-56213663D01*
X193911153Y-55999999D01*
X200294922Y-55999999D01*
X200294922Y-56000000D01*
X200315219Y-56387287D01*
X200375886Y-56770323D01*
X200375887Y-56770330D01*
X200476262Y-57144936D01*
X200615244Y-57506994D01*
X200791310Y-57852543D01*
X201002531Y-58177793D01*
X201211095Y-58435350D01*
X201211096Y-58435350D01*
X202705748Y-56940698D01*
X202779588Y-57042330D01*
X202957670Y-57220412D01*
X203059300Y-57294251D01*
X201564648Y-58788903D01*
X201564649Y-58788904D01*
X201822206Y-58997468D01*
X202147456Y-59208689D01*
X202493005Y-59384755D01*
X202855063Y-59523737D01*
X203229669Y-59624112D01*
X203229676Y-59624113D01*
X203612712Y-59684780D01*
X203999999Y-59705078D01*
X204000001Y-59705078D01*
X204387287Y-59684780D01*
X204770323Y-59624113D01*
X204770330Y-59624112D01*
X205144936Y-59523737D01*
X205506994Y-59384755D01*
X205852543Y-59208689D01*
X206177783Y-58997476D01*
X206177785Y-58997475D01*
X206435349Y-58788902D01*
X204940698Y-57294251D01*
X205042330Y-57220412D01*
X205220412Y-57042330D01*
X205294251Y-56940698D01*
X206788902Y-58435349D01*
X206997475Y-58177785D01*
X206997476Y-58177783D01*
X207208689Y-57852543D01*
X207384755Y-57506994D01*
X207523737Y-57144936D01*
X207624112Y-56770330D01*
X207624113Y-56770323D01*
X207684780Y-56387287D01*
X207705078Y-56000000D01*
X207705078Y-55999999D01*
X207684780Y-55612712D01*
X207624113Y-55229676D01*
X207624112Y-55229669D01*
X207523737Y-54855063D01*
X207384755Y-54493005D01*
X207208689Y-54147456D01*
X206997468Y-53822206D01*
X206788904Y-53564649D01*
X206788903Y-53564648D01*
X205294251Y-55059300D01*
X205220412Y-54957670D01*
X205042330Y-54779588D01*
X204940698Y-54705748D01*
X206435350Y-53211096D01*
X206435350Y-53211095D01*
X206177793Y-53002531D01*
X205852543Y-52791310D01*
X205506994Y-52615244D01*
X205144936Y-52476262D01*
X204770330Y-52375887D01*
X204770323Y-52375886D01*
X204387287Y-52315219D01*
X204000001Y-52294922D01*
X203999999Y-52294922D01*
X203612712Y-52315219D01*
X203229676Y-52375886D01*
X203229669Y-52375887D01*
X202855063Y-52476262D01*
X202493005Y-52615244D01*
X202147456Y-52791310D01*
X201822206Y-53002531D01*
X201564648Y-53211095D01*
X201564648Y-53211096D01*
X203059301Y-54705748D01*
X202957670Y-54779588D01*
X202779588Y-54957670D01*
X202705748Y-55059300D01*
X201211096Y-53564648D01*
X201211095Y-53564648D01*
X201002531Y-53822206D01*
X200791310Y-54147456D01*
X200615244Y-54493005D01*
X200476262Y-54855063D01*
X200375887Y-55229669D01*
X200375886Y-55229676D01*
X200315219Y-55612712D01*
X200294922Y-55999999D01*
X193911153Y-55999999D01*
X193915063Y-55985408D01*
X193935659Y-55750000D01*
X193934551Y-55737341D01*
X193924752Y-55625332D01*
X193915063Y-55514592D01*
X193855139Y-55290950D01*
X193853905Y-55286344D01*
X193853904Y-55286343D01*
X193853903Y-55286337D01*
X193754035Y-55072171D01*
X193748731Y-55064595D01*
X193618494Y-54878597D01*
X193451402Y-54711506D01*
X193451395Y-54711501D01*
X193257834Y-54575967D01*
X193257830Y-54575965D01*
X193257828Y-54575964D01*
X193043663Y-54476097D01*
X193043659Y-54476096D01*
X193043655Y-54476094D01*
X192815413Y-54414938D01*
X192815403Y-54414936D01*
X192580001Y-54394341D01*
X192579999Y-54394341D01*
X192344596Y-54414936D01*
X192344586Y-54414938D01*
X192116344Y-54476094D01*
X192116335Y-54476098D01*
X191902171Y-54575964D01*
X191902169Y-54575965D01*
X191708597Y-54711505D01*
X191541505Y-54878597D01*
X191411575Y-55064158D01*
X191356998Y-55107783D01*
X191287500Y-55114977D01*
X191225145Y-55083454D01*
X191208425Y-55064158D01*
X191078494Y-54878597D01*
X190911402Y-54711506D01*
X190911395Y-54711501D01*
X190717834Y-54575967D01*
X190717830Y-54575965D01*
X190717828Y-54575964D01*
X190503663Y-54476097D01*
X190503659Y-54476096D01*
X190503655Y-54476094D01*
X190275413Y-54414938D01*
X190275403Y-54414936D01*
X190040001Y-54394341D01*
X190039999Y-54394341D01*
X189804596Y-54414936D01*
X189804586Y-54414938D01*
X189576344Y-54476094D01*
X189576335Y-54476098D01*
X189362171Y-54575964D01*
X189362169Y-54575965D01*
X189168597Y-54711505D01*
X189001508Y-54878594D01*
X188871269Y-55064595D01*
X188816692Y-55108219D01*
X188747193Y-55115412D01*
X188684839Y-55083890D01*
X188668119Y-55064594D01*
X188538113Y-54878926D01*
X188538108Y-54878920D01*
X188371082Y-54711894D01*
X188177578Y-54576399D01*
X187963492Y-54476570D01*
X187963486Y-54476567D01*
X187750000Y-54419364D01*
X187750000Y-55316988D01*
X187692993Y-55284075D01*
X187565826Y-55250000D01*
X187434174Y-55250000D01*
X187307007Y-55284075D01*
X187250000Y-55316988D01*
X187250000Y-54419364D01*
X187249999Y-54419364D01*
X187036513Y-54476567D01*
X187036507Y-54476570D01*
X186822422Y-54576399D01*
X186822420Y-54576400D01*
X186628926Y-54711886D01*
X186628920Y-54711891D01*
X186461891Y-54878920D01*
X186461890Y-54878922D01*
X186331880Y-55064595D01*
X186277303Y-55108219D01*
X186207804Y-55115412D01*
X186145450Y-55083890D01*
X186128730Y-55064594D01*
X185998494Y-54878597D01*
X185831402Y-54711506D01*
X185831395Y-54711501D01*
X185637834Y-54575967D01*
X185637830Y-54575965D01*
X185637828Y-54575964D01*
X185423663Y-54476097D01*
X185423659Y-54476096D01*
X185423655Y-54476094D01*
X185195413Y-54414938D01*
X185195403Y-54414936D01*
X184960001Y-54394341D01*
X184959999Y-54394341D01*
X184724596Y-54414936D01*
X184724586Y-54414938D01*
X184496344Y-54476094D01*
X184496335Y-54476098D01*
X184282171Y-54575964D01*
X184282169Y-54575965D01*
X184088600Y-54711503D01*
X183966673Y-54833430D01*
X183905350Y-54866914D01*
X183835658Y-54861930D01*
X183779725Y-54820058D01*
X183762810Y-54789081D01*
X183713797Y-54657671D01*
X183713793Y-54657664D01*
X183627547Y-54542455D01*
X183627544Y-54542452D01*
X183512335Y-54456206D01*
X183512328Y-54456202D01*
X183377482Y-54405908D01*
X183377483Y-54405908D01*
X183317883Y-54399501D01*
X183317881Y-54399500D01*
X183317873Y-54399500D01*
X183317864Y-54399500D01*
X181522129Y-54399500D01*
X181522123Y-54399501D01*
X181462516Y-54405908D01*
X181327671Y-54456202D01*
X181327664Y-54456206D01*
X181212455Y-54542452D01*
X181212452Y-54542455D01*
X181126206Y-54657664D01*
X181126202Y-54657671D01*
X181075908Y-54792517D01*
X181069501Y-54852116D01*
X181069500Y-54852135D01*
X159522613Y-54852135D01*
X159384755Y-54493005D01*
X159208689Y-54147456D01*
X158997468Y-53822206D01*
X158788904Y-53564649D01*
X158788903Y-53564648D01*
X157294251Y-55059300D01*
X157220412Y-54957670D01*
X157042330Y-54779588D01*
X156940698Y-54705748D01*
X158435350Y-53211096D01*
X158435350Y-53211095D01*
X158177793Y-53002531D01*
X157852543Y-52791310D01*
X157506994Y-52615244D01*
X157144936Y-52476262D01*
X156770330Y-52375887D01*
X156770323Y-52375886D01*
X156387287Y-52315219D01*
X156000001Y-52294922D01*
X155999999Y-52294922D01*
X155612712Y-52315219D01*
X155229676Y-52375886D01*
X155229669Y-52375887D01*
X154855063Y-52476262D01*
X154493005Y-52615244D01*
X154147456Y-52791310D01*
X153822206Y-53002531D01*
X153564648Y-53211095D01*
X153564648Y-53211096D01*
X155059301Y-54705748D01*
X154957670Y-54779588D01*
X154779588Y-54957670D01*
X154705748Y-55059300D01*
X153211096Y-53564648D01*
X153211095Y-53564648D01*
X153002531Y-53822206D01*
X152791310Y-54147456D01*
X152615244Y-54493005D01*
X152476262Y-54855063D01*
X152375887Y-55229669D01*
X152375886Y-55229676D01*
X152315219Y-55612712D01*
X152294922Y-55999999D01*
X150200548Y-55999999D01*
X150200596Y-55997556D01*
X150201073Y-55985408D01*
X150218186Y-55549847D01*
X150218949Y-55540149D01*
X150271331Y-55097571D01*
X150272849Y-55087987D01*
X150359793Y-54650897D01*
X150362063Y-54641445D01*
X150380530Y-54575967D01*
X150483027Y-54212538D01*
X150486032Y-54203290D01*
X150640278Y-53785188D01*
X150643993Y-53776217D01*
X150830577Y-53371485D01*
X150834988Y-53362832D01*
X151052736Y-52974016D01*
X151057823Y-52965714D01*
X151236151Y-52698827D01*
X151305409Y-52595173D01*
X151311110Y-52587327D01*
X151587026Y-52237331D01*
X151593318Y-52229964D01*
X151895845Y-51902691D01*
X151902691Y-51895845D01*
X152229964Y-51593318D01*
X152237331Y-51587026D01*
X152587327Y-51311110D01*
X152595173Y-51305409D01*
X152965716Y-51057821D01*
X152974016Y-51052736D01*
X153362832Y-50834988D01*
X153371485Y-50830577D01*
X153776217Y-50643993D01*
X153785188Y-50640278D01*
X154203301Y-50486028D01*
X154212538Y-50483027D01*
X154641455Y-50362060D01*
X154650897Y-50359793D01*
X155087987Y-50272849D01*
X155097571Y-50271331D01*
X155540156Y-50218948D01*
X155549847Y-50218186D01*
X155997557Y-50200596D01*
X156002425Y-50200500D01*
X156039882Y-50200500D01*
X203960118Y-50200500D01*
X203997575Y-50200500D01*
X204002443Y-50200596D01*
G37*
%TD.AperFunction*%
%TD*%
M02*
