%TF.GenerationSoftware,KiCad,Pcbnew,8.0.6*%
%TF.CreationDate,2025-03-13T12:14:52-04:00*%
%TF.ProjectId,PCB-Test,5043422d-5465-4737-942e-6b696361645f,rev?*%
%TF.SameCoordinates,Original*%
%TF.FileFunction,Legend,Top*%
%TF.FilePolarity,Positive*%
%FSLAX46Y46*%
G04 Gerber Fmt 4.6, Leading zero omitted, Abs format (unit mm)*
G04 Created by KiCad (PCBNEW 8.0.6) date 2025-03-13 12:14:52*
%MOMM*%
%LPD*%
G01*
G04 APERTURE LIST*
%ADD10C,0.150000*%
%ADD11C,0.120000*%
G04 APERTURE END LIST*
D10*
X165515350Y-53369819D02*
X165515350Y-52369819D01*
X165515350Y-52369819D02*
X165782017Y-52369819D01*
X165782017Y-52369819D02*
X165848684Y-52417438D01*
X165848684Y-52417438D02*
X165882017Y-52465057D01*
X165882017Y-52465057D02*
X165915350Y-52560295D01*
X165915350Y-52560295D02*
X165915350Y-52703152D01*
X165915350Y-52703152D02*
X165882017Y-52798390D01*
X165882017Y-52798390D02*
X165848684Y-52846009D01*
X165848684Y-52846009D02*
X165782017Y-52893628D01*
X165782017Y-52893628D02*
X165515350Y-52893628D01*
X166215350Y-53369819D02*
X166215350Y-52369819D01*
X166215350Y-52369819D02*
X166448684Y-53084104D01*
X166448684Y-53084104D02*
X166682017Y-52369819D01*
X166682017Y-52369819D02*
X166682017Y-53369819D01*
X166982017Y-52465057D02*
X167015350Y-52417438D01*
X167015350Y-52417438D02*
X167082017Y-52369819D01*
X167082017Y-52369819D02*
X167248684Y-52369819D01*
X167248684Y-52369819D02*
X167315350Y-52417438D01*
X167315350Y-52417438D02*
X167348684Y-52465057D01*
X167348684Y-52465057D02*
X167382017Y-52560295D01*
X167382017Y-52560295D02*
X167382017Y-52655533D01*
X167382017Y-52655533D02*
X167348684Y-52798390D01*
X167348684Y-52798390D02*
X166948684Y-53369819D01*
X166948684Y-53369819D02*
X167382017Y-53369819D01*
X168015351Y-52369819D02*
X167682017Y-52369819D01*
X167682017Y-52369819D02*
X167648684Y-52846009D01*
X167648684Y-52846009D02*
X167682017Y-52798390D01*
X167682017Y-52798390D02*
X167748684Y-52750771D01*
X167748684Y-52750771D02*
X167915351Y-52750771D01*
X167915351Y-52750771D02*
X167982017Y-52798390D01*
X167982017Y-52798390D02*
X168015351Y-52846009D01*
X168015351Y-52846009D02*
X168048684Y-52941247D01*
X168048684Y-52941247D02*
X168048684Y-53179342D01*
X168048684Y-53179342D02*
X168015351Y-53274580D01*
X168015351Y-53274580D02*
X167982017Y-53322200D01*
X167982017Y-53322200D02*
X167915351Y-53369819D01*
X167915351Y-53369819D02*
X167748684Y-53369819D01*
X167748684Y-53369819D02*
X167682017Y-53322200D01*
X167682017Y-53322200D02*
X167648684Y-53274580D01*
X169282017Y-53274580D02*
X169248684Y-53322200D01*
X169248684Y-53322200D02*
X169148684Y-53369819D01*
X169148684Y-53369819D02*
X169082017Y-53369819D01*
X169082017Y-53369819D02*
X168982017Y-53322200D01*
X168982017Y-53322200D02*
X168915351Y-53226961D01*
X168915351Y-53226961D02*
X168882017Y-53131723D01*
X168882017Y-53131723D02*
X168848684Y-52941247D01*
X168848684Y-52941247D02*
X168848684Y-52798390D01*
X168848684Y-52798390D02*
X168882017Y-52607914D01*
X168882017Y-52607914D02*
X168915351Y-52512676D01*
X168915351Y-52512676D02*
X168982017Y-52417438D01*
X168982017Y-52417438D02*
X169082017Y-52369819D01*
X169082017Y-52369819D02*
X169148684Y-52369819D01*
X169148684Y-52369819D02*
X169248684Y-52417438D01*
X169248684Y-52417438D02*
X169282017Y-52465057D01*
X169682017Y-53369819D02*
X169615351Y-53322200D01*
X169615351Y-53322200D02*
X169582017Y-53274580D01*
X169582017Y-53274580D02*
X169548684Y-53179342D01*
X169548684Y-53179342D02*
X169548684Y-52893628D01*
X169548684Y-52893628D02*
X169582017Y-52798390D01*
X169582017Y-52798390D02*
X169615351Y-52750771D01*
X169615351Y-52750771D02*
X169682017Y-52703152D01*
X169682017Y-52703152D02*
X169782017Y-52703152D01*
X169782017Y-52703152D02*
X169848684Y-52750771D01*
X169848684Y-52750771D02*
X169882017Y-52798390D01*
X169882017Y-52798390D02*
X169915351Y-52893628D01*
X169915351Y-52893628D02*
X169915351Y-53179342D01*
X169915351Y-53179342D02*
X169882017Y-53274580D01*
X169882017Y-53274580D02*
X169848684Y-53322200D01*
X169848684Y-53322200D02*
X169782017Y-53369819D01*
X169782017Y-53369819D02*
X169682017Y-53369819D01*
X170215350Y-52703152D02*
X170215350Y-53369819D01*
X170215350Y-52798390D02*
X170248684Y-52750771D01*
X170248684Y-52750771D02*
X170315350Y-52703152D01*
X170315350Y-52703152D02*
X170415350Y-52703152D01*
X170415350Y-52703152D02*
X170482017Y-52750771D01*
X170482017Y-52750771D02*
X170515350Y-52846009D01*
X170515350Y-52846009D02*
X170515350Y-53369819D01*
X170848683Y-52703152D02*
X170848683Y-53369819D01*
X170848683Y-52798390D02*
X170882017Y-52750771D01*
X170882017Y-52750771D02*
X170948683Y-52703152D01*
X170948683Y-52703152D02*
X171048683Y-52703152D01*
X171048683Y-52703152D02*
X171115350Y-52750771D01*
X171115350Y-52750771D02*
X171148683Y-52846009D01*
X171148683Y-52846009D02*
X171148683Y-53369819D01*
X171748683Y-53322200D02*
X171682016Y-53369819D01*
X171682016Y-53369819D02*
X171548683Y-53369819D01*
X171548683Y-53369819D02*
X171482016Y-53322200D01*
X171482016Y-53322200D02*
X171448683Y-53226961D01*
X171448683Y-53226961D02*
X171448683Y-52846009D01*
X171448683Y-52846009D02*
X171482016Y-52750771D01*
X171482016Y-52750771D02*
X171548683Y-52703152D01*
X171548683Y-52703152D02*
X171682016Y-52703152D01*
X171682016Y-52703152D02*
X171748683Y-52750771D01*
X171748683Y-52750771D02*
X171782016Y-52846009D01*
X171782016Y-52846009D02*
X171782016Y-52941247D01*
X171782016Y-52941247D02*
X171448683Y-53036485D01*
X172382016Y-53322200D02*
X172315350Y-53369819D01*
X172315350Y-53369819D02*
X172182016Y-53369819D01*
X172182016Y-53369819D02*
X172115350Y-53322200D01*
X172115350Y-53322200D02*
X172082016Y-53274580D01*
X172082016Y-53274580D02*
X172048683Y-53179342D01*
X172048683Y-53179342D02*
X172048683Y-52893628D01*
X172048683Y-52893628D02*
X172082016Y-52798390D01*
X172082016Y-52798390D02*
X172115350Y-52750771D01*
X172115350Y-52750771D02*
X172182016Y-52703152D01*
X172182016Y-52703152D02*
X172315350Y-52703152D01*
X172315350Y-52703152D02*
X172382016Y-52750771D01*
X172582016Y-52703152D02*
X172848683Y-52703152D01*
X172682016Y-52369819D02*
X172682016Y-53226961D01*
X172682016Y-53226961D02*
X172715350Y-53322200D01*
X172715350Y-53322200D02*
X172782016Y-53369819D01*
X172782016Y-53369819D02*
X172848683Y-53369819D01*
X173182016Y-53369819D02*
X173115350Y-53322200D01*
X173115350Y-53322200D02*
X173082016Y-53274580D01*
X173082016Y-53274580D02*
X173048683Y-53179342D01*
X173048683Y-53179342D02*
X173048683Y-52893628D01*
X173048683Y-52893628D02*
X173082016Y-52798390D01*
X173082016Y-52798390D02*
X173115350Y-52750771D01*
X173115350Y-52750771D02*
X173182016Y-52703152D01*
X173182016Y-52703152D02*
X173282016Y-52703152D01*
X173282016Y-52703152D02*
X173348683Y-52750771D01*
X173348683Y-52750771D02*
X173382016Y-52798390D01*
X173382016Y-52798390D02*
X173415350Y-52893628D01*
X173415350Y-52893628D02*
X173415350Y-53179342D01*
X173415350Y-53179342D02*
X173382016Y-53274580D01*
X173382016Y-53274580D02*
X173348683Y-53322200D01*
X173348683Y-53322200D02*
X173282016Y-53369819D01*
X173282016Y-53369819D02*
X173182016Y-53369819D01*
X173715349Y-53369819D02*
X173715349Y-52703152D01*
X173715349Y-52893628D02*
X173748683Y-52798390D01*
X173748683Y-52798390D02*
X173782016Y-52750771D01*
X173782016Y-52750771D02*
X173848683Y-52703152D01*
X173848683Y-52703152D02*
X173915349Y-52703152D01*
X207572200Y-79267982D02*
X207619819Y-79167982D01*
X207619819Y-79167982D02*
X207619819Y-79001316D01*
X207619819Y-79001316D02*
X207572200Y-78934649D01*
X207572200Y-78934649D02*
X207524580Y-78901316D01*
X207524580Y-78901316D02*
X207429342Y-78867982D01*
X207429342Y-78867982D02*
X207334104Y-78867982D01*
X207334104Y-78867982D02*
X207238866Y-78901316D01*
X207238866Y-78901316D02*
X207191247Y-78934649D01*
X207191247Y-78934649D02*
X207143628Y-79001316D01*
X207143628Y-79001316D02*
X207096009Y-79134649D01*
X207096009Y-79134649D02*
X207048390Y-79201316D01*
X207048390Y-79201316D02*
X207000771Y-79234649D01*
X207000771Y-79234649D02*
X206905533Y-79267982D01*
X206905533Y-79267982D02*
X206810295Y-79267982D01*
X206810295Y-79267982D02*
X206715057Y-79234649D01*
X206715057Y-79234649D02*
X206667438Y-79201316D01*
X206667438Y-79201316D02*
X206619819Y-79134649D01*
X206619819Y-79134649D02*
X206619819Y-78967982D01*
X206619819Y-78967982D02*
X206667438Y-78867982D01*
X207524580Y-78167982D02*
X207572200Y-78201315D01*
X207572200Y-78201315D02*
X207619819Y-78301315D01*
X207619819Y-78301315D02*
X207619819Y-78367982D01*
X207619819Y-78367982D02*
X207572200Y-78467982D01*
X207572200Y-78467982D02*
X207476961Y-78534649D01*
X207476961Y-78534649D02*
X207381723Y-78567982D01*
X207381723Y-78567982D02*
X207191247Y-78601315D01*
X207191247Y-78601315D02*
X207048390Y-78601315D01*
X207048390Y-78601315D02*
X206857914Y-78567982D01*
X206857914Y-78567982D02*
X206762676Y-78534649D01*
X206762676Y-78534649D02*
X206667438Y-78467982D01*
X206667438Y-78467982D02*
X206619819Y-78367982D01*
X206619819Y-78367982D02*
X206619819Y-78301315D01*
X206619819Y-78301315D02*
X206667438Y-78201315D01*
X206667438Y-78201315D02*
X206715057Y-78167982D01*
X207619819Y-77534649D02*
X207619819Y-77867982D01*
X207619819Y-77867982D02*
X206619819Y-77867982D01*
X192232017Y-53322200D02*
X192332017Y-53369819D01*
X192332017Y-53369819D02*
X192498684Y-53369819D01*
X192498684Y-53369819D02*
X192565350Y-53322200D01*
X192565350Y-53322200D02*
X192598684Y-53274580D01*
X192598684Y-53274580D02*
X192632017Y-53179342D01*
X192632017Y-53179342D02*
X192632017Y-53084104D01*
X192632017Y-53084104D02*
X192598684Y-52988866D01*
X192598684Y-52988866D02*
X192565350Y-52941247D01*
X192565350Y-52941247D02*
X192498684Y-52893628D01*
X192498684Y-52893628D02*
X192365350Y-52846009D01*
X192365350Y-52846009D02*
X192298684Y-52798390D01*
X192298684Y-52798390D02*
X192265350Y-52750771D01*
X192265350Y-52750771D02*
X192232017Y-52655533D01*
X192232017Y-52655533D02*
X192232017Y-52560295D01*
X192232017Y-52560295D02*
X192265350Y-52465057D01*
X192265350Y-52465057D02*
X192298684Y-52417438D01*
X192298684Y-52417438D02*
X192365350Y-52369819D01*
X192365350Y-52369819D02*
X192532017Y-52369819D01*
X192532017Y-52369819D02*
X192632017Y-52417438D01*
X192932017Y-53369819D02*
X192932017Y-52369819D01*
X192932017Y-52369819D02*
X193098684Y-52369819D01*
X193098684Y-52369819D02*
X193198684Y-52417438D01*
X193198684Y-52417438D02*
X193265351Y-52512676D01*
X193265351Y-52512676D02*
X193298684Y-52607914D01*
X193298684Y-52607914D02*
X193332017Y-52798390D01*
X193332017Y-52798390D02*
X193332017Y-52941247D01*
X193332017Y-52941247D02*
X193298684Y-53131723D01*
X193298684Y-53131723D02*
X193265351Y-53226961D01*
X193265351Y-53226961D02*
X193198684Y-53322200D01*
X193198684Y-53322200D02*
X193098684Y-53369819D01*
X193098684Y-53369819D02*
X192932017Y-53369819D01*
X193598684Y-53084104D02*
X193932017Y-53084104D01*
X193532017Y-53369819D02*
X193765351Y-52369819D01*
X193765351Y-52369819D02*
X193998684Y-53369819D01*
X153677800Y-68982017D02*
X153630180Y-69082017D01*
X153630180Y-69082017D02*
X153630180Y-69248684D01*
X153630180Y-69248684D02*
X153677800Y-69315350D01*
X153677800Y-69315350D02*
X153725419Y-69348684D01*
X153725419Y-69348684D02*
X153820657Y-69382017D01*
X153820657Y-69382017D02*
X153915895Y-69382017D01*
X153915895Y-69382017D02*
X154011133Y-69348684D01*
X154011133Y-69348684D02*
X154058752Y-69315350D01*
X154058752Y-69315350D02*
X154106371Y-69248684D01*
X154106371Y-69248684D02*
X154153990Y-69115350D01*
X154153990Y-69115350D02*
X154201609Y-69048684D01*
X154201609Y-69048684D02*
X154249228Y-69015350D01*
X154249228Y-69015350D02*
X154344466Y-68982017D01*
X154344466Y-68982017D02*
X154439704Y-68982017D01*
X154439704Y-68982017D02*
X154534942Y-69015350D01*
X154534942Y-69015350D02*
X154582561Y-69048684D01*
X154582561Y-69048684D02*
X154630180Y-69115350D01*
X154630180Y-69115350D02*
X154630180Y-69282017D01*
X154630180Y-69282017D02*
X154582561Y-69382017D01*
X153630180Y-69682017D02*
X154630180Y-69682017D01*
X154630180Y-69682017D02*
X154630180Y-69848684D01*
X154630180Y-69848684D02*
X154582561Y-69948684D01*
X154582561Y-69948684D02*
X154487323Y-70015351D01*
X154487323Y-70015351D02*
X154392085Y-70048684D01*
X154392085Y-70048684D02*
X154201609Y-70082017D01*
X154201609Y-70082017D02*
X154058752Y-70082017D01*
X154058752Y-70082017D02*
X153868276Y-70048684D01*
X153868276Y-70048684D02*
X153773038Y-70015351D01*
X153773038Y-70015351D02*
X153677800Y-69948684D01*
X153677800Y-69948684D02*
X153630180Y-69848684D01*
X153630180Y-69848684D02*
X153630180Y-69682017D01*
X153915895Y-70348684D02*
X153915895Y-70682017D01*
X153630180Y-70282017D02*
X154630180Y-70515351D01*
X154630180Y-70515351D02*
X153630180Y-70748684D01*
X187165350Y-107369819D02*
X187398684Y-108369819D01*
X187398684Y-108369819D02*
X187632017Y-107369819D01*
X188265350Y-108274580D02*
X188232017Y-108322200D01*
X188232017Y-108322200D02*
X188132017Y-108369819D01*
X188132017Y-108369819D02*
X188065350Y-108369819D01*
X188065350Y-108369819D02*
X187965350Y-108322200D01*
X187965350Y-108322200D02*
X187898684Y-108226961D01*
X187898684Y-108226961D02*
X187865350Y-108131723D01*
X187865350Y-108131723D02*
X187832017Y-107941247D01*
X187832017Y-107941247D02*
X187832017Y-107798390D01*
X187832017Y-107798390D02*
X187865350Y-107607914D01*
X187865350Y-107607914D02*
X187898684Y-107512676D01*
X187898684Y-107512676D02*
X187965350Y-107417438D01*
X187965350Y-107417438D02*
X188065350Y-107369819D01*
X188065350Y-107369819D02*
X188132017Y-107369819D01*
X188132017Y-107369819D02*
X188232017Y-107417438D01*
X188232017Y-107417438D02*
X188265350Y-107465057D01*
X188965350Y-108274580D02*
X188932017Y-108322200D01*
X188932017Y-108322200D02*
X188832017Y-108369819D01*
X188832017Y-108369819D02*
X188765350Y-108369819D01*
X188765350Y-108369819D02*
X188665350Y-108322200D01*
X188665350Y-108322200D02*
X188598684Y-108226961D01*
X188598684Y-108226961D02*
X188565350Y-108131723D01*
X188565350Y-108131723D02*
X188532017Y-107941247D01*
X188532017Y-107941247D02*
X188532017Y-107798390D01*
X188532017Y-107798390D02*
X188565350Y-107607914D01*
X188565350Y-107607914D02*
X188598684Y-107512676D01*
X188598684Y-107512676D02*
X188665350Y-107417438D01*
X188665350Y-107417438D02*
X188765350Y-107369819D01*
X188765350Y-107369819D02*
X188832017Y-107369819D01*
X188832017Y-107369819D02*
X188932017Y-107417438D01*
X188932017Y-107417438D02*
X188965350Y-107465057D01*
X150880180Y-94515350D02*
X151880180Y-94515350D01*
X151880180Y-94515350D02*
X151880180Y-94782017D01*
X151880180Y-94782017D02*
X151832561Y-94848684D01*
X151832561Y-94848684D02*
X151784942Y-94882017D01*
X151784942Y-94882017D02*
X151689704Y-94915350D01*
X151689704Y-94915350D02*
X151546847Y-94915350D01*
X151546847Y-94915350D02*
X151451609Y-94882017D01*
X151451609Y-94882017D02*
X151403990Y-94848684D01*
X151403990Y-94848684D02*
X151356371Y-94782017D01*
X151356371Y-94782017D02*
X151356371Y-94515350D01*
X150880180Y-95215350D02*
X151880180Y-95215350D01*
X151880180Y-95215350D02*
X151165895Y-95448684D01*
X151165895Y-95448684D02*
X151880180Y-95682017D01*
X151880180Y-95682017D02*
X150880180Y-95682017D01*
X151784942Y-95982017D02*
X151832561Y-96015350D01*
X151832561Y-96015350D02*
X151880180Y-96082017D01*
X151880180Y-96082017D02*
X151880180Y-96248684D01*
X151880180Y-96248684D02*
X151832561Y-96315350D01*
X151832561Y-96315350D02*
X151784942Y-96348684D01*
X151784942Y-96348684D02*
X151689704Y-96382017D01*
X151689704Y-96382017D02*
X151594466Y-96382017D01*
X151594466Y-96382017D02*
X151451609Y-96348684D01*
X151451609Y-96348684D02*
X150880180Y-95948684D01*
X150880180Y-95948684D02*
X150880180Y-96382017D01*
X151880180Y-97015351D02*
X151880180Y-96682017D01*
X151880180Y-96682017D02*
X151403990Y-96648684D01*
X151403990Y-96648684D02*
X151451609Y-96682017D01*
X151451609Y-96682017D02*
X151499228Y-96748684D01*
X151499228Y-96748684D02*
X151499228Y-96915351D01*
X151499228Y-96915351D02*
X151451609Y-96982017D01*
X151451609Y-96982017D02*
X151403990Y-97015351D01*
X151403990Y-97015351D02*
X151308752Y-97048684D01*
X151308752Y-97048684D02*
X151070657Y-97048684D01*
X151070657Y-97048684D02*
X150975419Y-97015351D01*
X150975419Y-97015351D02*
X150927800Y-96982017D01*
X150927800Y-96982017D02*
X150880180Y-96915351D01*
X150880180Y-96915351D02*
X150880180Y-96748684D01*
X150880180Y-96748684D02*
X150927800Y-96682017D01*
X150927800Y-96682017D02*
X150975419Y-96648684D01*
X151546847Y-97782017D02*
X151546847Y-98048684D01*
X151880180Y-97882017D02*
X151023038Y-97882017D01*
X151023038Y-97882017D02*
X150927800Y-97915351D01*
X150927800Y-97915351D02*
X150880180Y-97982017D01*
X150880180Y-97982017D02*
X150880180Y-98048684D01*
X150880180Y-98382017D02*
X150927800Y-98315351D01*
X150927800Y-98315351D02*
X150975419Y-98282017D01*
X150975419Y-98282017D02*
X151070657Y-98248684D01*
X151070657Y-98248684D02*
X151356371Y-98248684D01*
X151356371Y-98248684D02*
X151451609Y-98282017D01*
X151451609Y-98282017D02*
X151499228Y-98315351D01*
X151499228Y-98315351D02*
X151546847Y-98382017D01*
X151546847Y-98382017D02*
X151546847Y-98482017D01*
X151546847Y-98482017D02*
X151499228Y-98548684D01*
X151499228Y-98548684D02*
X151451609Y-98582017D01*
X151451609Y-98582017D02*
X151356371Y-98615351D01*
X151356371Y-98615351D02*
X151070657Y-98615351D01*
X151070657Y-98615351D02*
X150975419Y-98582017D01*
X150975419Y-98582017D02*
X150927800Y-98548684D01*
X150927800Y-98548684D02*
X150880180Y-98482017D01*
X150880180Y-98482017D02*
X150880180Y-98382017D01*
X150880180Y-99448683D02*
X151880180Y-99448683D01*
X151880180Y-99448683D02*
X151165895Y-99682017D01*
X151165895Y-99682017D02*
X151880180Y-99915350D01*
X151880180Y-99915350D02*
X150880180Y-99915350D01*
X150975419Y-100648683D02*
X150927800Y-100615350D01*
X150927800Y-100615350D02*
X150880180Y-100515350D01*
X150880180Y-100515350D02*
X150880180Y-100448683D01*
X150880180Y-100448683D02*
X150927800Y-100348683D01*
X150927800Y-100348683D02*
X151023038Y-100282017D01*
X151023038Y-100282017D02*
X151118276Y-100248683D01*
X151118276Y-100248683D02*
X151308752Y-100215350D01*
X151308752Y-100215350D02*
X151451609Y-100215350D01*
X151451609Y-100215350D02*
X151642085Y-100248683D01*
X151642085Y-100248683D02*
X151737323Y-100282017D01*
X151737323Y-100282017D02*
X151832561Y-100348683D01*
X151832561Y-100348683D02*
X151880180Y-100448683D01*
X151880180Y-100448683D02*
X151880180Y-100515350D01*
X151880180Y-100515350D02*
X151832561Y-100615350D01*
X151832561Y-100615350D02*
X151784942Y-100648683D01*
X174482017Y-108322200D02*
X174582017Y-108369819D01*
X174582017Y-108369819D02*
X174748684Y-108369819D01*
X174748684Y-108369819D02*
X174815350Y-108322200D01*
X174815350Y-108322200D02*
X174848684Y-108274580D01*
X174848684Y-108274580D02*
X174882017Y-108179342D01*
X174882017Y-108179342D02*
X174882017Y-108084104D01*
X174882017Y-108084104D02*
X174848684Y-107988866D01*
X174848684Y-107988866D02*
X174815350Y-107941247D01*
X174815350Y-107941247D02*
X174748684Y-107893628D01*
X174748684Y-107893628D02*
X174615350Y-107846009D01*
X174615350Y-107846009D02*
X174548684Y-107798390D01*
X174548684Y-107798390D02*
X174515350Y-107750771D01*
X174515350Y-107750771D02*
X174482017Y-107655533D01*
X174482017Y-107655533D02*
X174482017Y-107560295D01*
X174482017Y-107560295D02*
X174515350Y-107465057D01*
X174515350Y-107465057D02*
X174548684Y-107417438D01*
X174548684Y-107417438D02*
X174615350Y-107369819D01*
X174615350Y-107369819D02*
X174782017Y-107369819D01*
X174782017Y-107369819D02*
X174882017Y-107417438D01*
X175582017Y-108274580D02*
X175548684Y-108322200D01*
X175548684Y-108322200D02*
X175448684Y-108369819D01*
X175448684Y-108369819D02*
X175382017Y-108369819D01*
X175382017Y-108369819D02*
X175282017Y-108322200D01*
X175282017Y-108322200D02*
X175215351Y-108226961D01*
X175215351Y-108226961D02*
X175182017Y-108131723D01*
X175182017Y-108131723D02*
X175148684Y-107941247D01*
X175148684Y-107941247D02*
X175148684Y-107798390D01*
X175148684Y-107798390D02*
X175182017Y-107607914D01*
X175182017Y-107607914D02*
X175215351Y-107512676D01*
X175215351Y-107512676D02*
X175282017Y-107417438D01*
X175282017Y-107417438D02*
X175382017Y-107369819D01*
X175382017Y-107369819D02*
X175448684Y-107369819D01*
X175448684Y-107369819D02*
X175548684Y-107417438D01*
X175548684Y-107417438D02*
X175582017Y-107465057D01*
X176215351Y-108369819D02*
X175882017Y-108369819D01*
X175882017Y-108369819D02*
X175882017Y-107369819D01*
X153915350Y-99869819D02*
X153682017Y-99393628D01*
X153515350Y-99869819D02*
X153515350Y-98869819D01*
X153515350Y-98869819D02*
X153782017Y-98869819D01*
X153782017Y-98869819D02*
X153848684Y-98917438D01*
X153848684Y-98917438D02*
X153882017Y-98965057D01*
X153882017Y-98965057D02*
X153915350Y-99060295D01*
X153915350Y-99060295D02*
X153915350Y-99203152D01*
X153915350Y-99203152D02*
X153882017Y-99298390D01*
X153882017Y-99298390D02*
X153848684Y-99346009D01*
X153848684Y-99346009D02*
X153782017Y-99393628D01*
X153782017Y-99393628D02*
X153515350Y-99393628D01*
X154182017Y-99822200D02*
X154282017Y-99869819D01*
X154282017Y-99869819D02*
X154448684Y-99869819D01*
X154448684Y-99869819D02*
X154515350Y-99822200D01*
X154515350Y-99822200D02*
X154548684Y-99774580D01*
X154548684Y-99774580D02*
X154582017Y-99679342D01*
X154582017Y-99679342D02*
X154582017Y-99584104D01*
X154582017Y-99584104D02*
X154548684Y-99488866D01*
X154548684Y-99488866D02*
X154515350Y-99441247D01*
X154515350Y-99441247D02*
X154448684Y-99393628D01*
X154448684Y-99393628D02*
X154315350Y-99346009D01*
X154315350Y-99346009D02*
X154248684Y-99298390D01*
X154248684Y-99298390D02*
X154215350Y-99250771D01*
X154215350Y-99250771D02*
X154182017Y-99155533D01*
X154182017Y-99155533D02*
X154182017Y-99060295D01*
X154182017Y-99060295D02*
X154215350Y-98965057D01*
X154215350Y-98965057D02*
X154248684Y-98917438D01*
X154248684Y-98917438D02*
X154315350Y-98869819D01*
X154315350Y-98869819D02*
X154482017Y-98869819D01*
X154482017Y-98869819D02*
X154582017Y-98917438D01*
X154782017Y-98869819D02*
X155182017Y-98869819D01*
X154982017Y-99869819D02*
X154982017Y-98869819D01*
X156165350Y-98869819D02*
X156565350Y-98869819D01*
X156365350Y-99869819D02*
X156365350Y-98869819D01*
X156732017Y-98869819D02*
X157198683Y-99869819D01*
X157198683Y-98869819D02*
X156732017Y-99869819D01*
X206619819Y-71151316D02*
X206619819Y-71484649D01*
X206619819Y-71484649D02*
X207096009Y-71517982D01*
X207096009Y-71517982D02*
X207048390Y-71484649D01*
X207048390Y-71484649D02*
X207000771Y-71417982D01*
X207000771Y-71417982D02*
X207000771Y-71251316D01*
X207000771Y-71251316D02*
X207048390Y-71184649D01*
X207048390Y-71184649D02*
X207096009Y-71151316D01*
X207096009Y-71151316D02*
X207191247Y-71117982D01*
X207191247Y-71117982D02*
X207429342Y-71117982D01*
X207429342Y-71117982D02*
X207524580Y-71151316D01*
X207524580Y-71151316D02*
X207572200Y-71184649D01*
X207572200Y-71184649D02*
X207619819Y-71251316D01*
X207619819Y-71251316D02*
X207619819Y-71417982D01*
X207619819Y-71417982D02*
X207572200Y-71484649D01*
X207572200Y-71484649D02*
X207524580Y-71517982D01*
X206953152Y-70884649D02*
X207619819Y-70717982D01*
X207619819Y-70717982D02*
X206953152Y-70551315D01*
X187382017Y-52417438D02*
X187315350Y-52369819D01*
X187315350Y-52369819D02*
X187215350Y-52369819D01*
X187215350Y-52369819D02*
X187115350Y-52417438D01*
X187115350Y-52417438D02*
X187048684Y-52512676D01*
X187048684Y-52512676D02*
X187015350Y-52607914D01*
X187015350Y-52607914D02*
X186982017Y-52798390D01*
X186982017Y-52798390D02*
X186982017Y-52941247D01*
X186982017Y-52941247D02*
X187015350Y-53131723D01*
X187015350Y-53131723D02*
X187048684Y-53226961D01*
X187048684Y-53226961D02*
X187115350Y-53322200D01*
X187115350Y-53322200D02*
X187215350Y-53369819D01*
X187215350Y-53369819D02*
X187282017Y-53369819D01*
X187282017Y-53369819D02*
X187382017Y-53322200D01*
X187382017Y-53322200D02*
X187415350Y-53274580D01*
X187415350Y-53274580D02*
X187415350Y-52941247D01*
X187415350Y-52941247D02*
X187282017Y-52941247D01*
X187715350Y-53369819D02*
X187715350Y-52369819D01*
X187715350Y-52369819D02*
X188115350Y-53369819D01*
X188115350Y-53369819D02*
X188115350Y-52369819D01*
X188448683Y-53369819D02*
X188448683Y-52369819D01*
X188448683Y-52369819D02*
X188615350Y-52369819D01*
X188615350Y-52369819D02*
X188715350Y-52417438D01*
X188715350Y-52417438D02*
X188782017Y-52512676D01*
X188782017Y-52512676D02*
X188815350Y-52607914D01*
X188815350Y-52607914D02*
X188848683Y-52798390D01*
X188848683Y-52798390D02*
X188848683Y-52941247D01*
X188848683Y-52941247D02*
X188815350Y-53131723D01*
X188815350Y-53131723D02*
X188782017Y-53226961D01*
X188782017Y-53226961D02*
X188715350Y-53322200D01*
X188715350Y-53322200D02*
X188615350Y-53369819D01*
X188615350Y-53369819D02*
X188448683Y-53369819D01*
X207619819Y-73734649D02*
X206619819Y-73734649D01*
X206619819Y-73734649D02*
X207619819Y-73334649D01*
X207619819Y-73334649D02*
X206619819Y-73334649D01*
X207524580Y-72601316D02*
X207572200Y-72634649D01*
X207572200Y-72634649D02*
X207619819Y-72734649D01*
X207619819Y-72734649D02*
X207619819Y-72801316D01*
X207619819Y-72801316D02*
X207572200Y-72901316D01*
X207572200Y-72901316D02*
X207476961Y-72967983D01*
X207476961Y-72967983D02*
X207381723Y-73001316D01*
X207381723Y-73001316D02*
X207191247Y-73034649D01*
X207191247Y-73034649D02*
X207048390Y-73034649D01*
X207048390Y-73034649D02*
X206857914Y-73001316D01*
X206857914Y-73001316D02*
X206762676Y-72967983D01*
X206762676Y-72967983D02*
X206667438Y-72901316D01*
X206667438Y-72901316D02*
X206619819Y-72801316D01*
X206619819Y-72801316D02*
X206619819Y-72734649D01*
X206619819Y-72734649D02*
X206667438Y-72634649D01*
X206667438Y-72634649D02*
X206715057Y-72601316D01*
X192382017Y-107417438D02*
X192315350Y-107369819D01*
X192315350Y-107369819D02*
X192215350Y-107369819D01*
X192215350Y-107369819D02*
X192115350Y-107417438D01*
X192115350Y-107417438D02*
X192048684Y-107512676D01*
X192048684Y-107512676D02*
X192015350Y-107607914D01*
X192015350Y-107607914D02*
X191982017Y-107798390D01*
X191982017Y-107798390D02*
X191982017Y-107941247D01*
X191982017Y-107941247D02*
X192015350Y-108131723D01*
X192015350Y-108131723D02*
X192048684Y-108226961D01*
X192048684Y-108226961D02*
X192115350Y-108322200D01*
X192115350Y-108322200D02*
X192215350Y-108369819D01*
X192215350Y-108369819D02*
X192282017Y-108369819D01*
X192282017Y-108369819D02*
X192382017Y-108322200D01*
X192382017Y-108322200D02*
X192415350Y-108274580D01*
X192415350Y-108274580D02*
X192415350Y-107941247D01*
X192415350Y-107941247D02*
X192282017Y-107941247D01*
X192715350Y-108369819D02*
X192715350Y-107369819D01*
X192715350Y-107369819D02*
X193115350Y-108369819D01*
X193115350Y-108369819D02*
X193115350Y-107369819D01*
X193448683Y-108369819D02*
X193448683Y-107369819D01*
X193448683Y-107369819D02*
X193615350Y-107369819D01*
X193615350Y-107369819D02*
X193715350Y-107417438D01*
X193715350Y-107417438D02*
X193782017Y-107512676D01*
X193782017Y-107512676D02*
X193815350Y-107607914D01*
X193815350Y-107607914D02*
X193848683Y-107798390D01*
X193848683Y-107798390D02*
X193848683Y-107941247D01*
X193848683Y-107941247D02*
X193815350Y-108131723D01*
X193815350Y-108131723D02*
X193782017Y-108226961D01*
X193782017Y-108226961D02*
X193715350Y-108322200D01*
X193715350Y-108322200D02*
X193615350Y-108369819D01*
X193615350Y-108369819D02*
X193448683Y-108369819D01*
X194915350Y-107369819D02*
X195148684Y-108369819D01*
X195148684Y-108369819D02*
X195382017Y-107369819D01*
X196015350Y-108274580D02*
X195982017Y-108322200D01*
X195982017Y-108322200D02*
X195882017Y-108369819D01*
X195882017Y-108369819D02*
X195815350Y-108369819D01*
X195815350Y-108369819D02*
X195715350Y-108322200D01*
X195715350Y-108322200D02*
X195648684Y-108226961D01*
X195648684Y-108226961D02*
X195615350Y-108131723D01*
X195615350Y-108131723D02*
X195582017Y-107941247D01*
X195582017Y-107941247D02*
X195582017Y-107798390D01*
X195582017Y-107798390D02*
X195615350Y-107607914D01*
X195615350Y-107607914D02*
X195648684Y-107512676D01*
X195648684Y-107512676D02*
X195715350Y-107417438D01*
X195715350Y-107417438D02*
X195815350Y-107369819D01*
X195815350Y-107369819D02*
X195882017Y-107369819D01*
X195882017Y-107369819D02*
X195982017Y-107417438D01*
X195982017Y-107417438D02*
X196015350Y-107465057D01*
X196715350Y-108274580D02*
X196682017Y-108322200D01*
X196682017Y-108322200D02*
X196582017Y-108369819D01*
X196582017Y-108369819D02*
X196515350Y-108369819D01*
X196515350Y-108369819D02*
X196415350Y-108322200D01*
X196415350Y-108322200D02*
X196348684Y-108226961D01*
X196348684Y-108226961D02*
X196315350Y-108131723D01*
X196315350Y-108131723D02*
X196282017Y-107941247D01*
X196282017Y-107941247D02*
X196282017Y-107798390D01*
X196282017Y-107798390D02*
X196315350Y-107607914D01*
X196315350Y-107607914D02*
X196348684Y-107512676D01*
X196348684Y-107512676D02*
X196415350Y-107417438D01*
X196415350Y-107417438D02*
X196515350Y-107369819D01*
X196515350Y-107369819D02*
X196582017Y-107369819D01*
X196582017Y-107369819D02*
X196682017Y-107417438D01*
X196682017Y-107417438D02*
X196715350Y-107465057D01*
X156265350Y-93869819D02*
X156265350Y-92869819D01*
X156265350Y-92869819D02*
X156532017Y-92869819D01*
X156532017Y-92869819D02*
X156598684Y-92917438D01*
X156598684Y-92917438D02*
X156632017Y-92965057D01*
X156632017Y-92965057D02*
X156665350Y-93060295D01*
X156665350Y-93060295D02*
X156665350Y-93203152D01*
X156665350Y-93203152D02*
X156632017Y-93298390D01*
X156632017Y-93298390D02*
X156598684Y-93346009D01*
X156598684Y-93346009D02*
X156532017Y-93393628D01*
X156532017Y-93393628D02*
X156265350Y-93393628D01*
X156965350Y-93869819D02*
X156965350Y-92869819D01*
X156965350Y-92869819D02*
X157198684Y-93584104D01*
X157198684Y-93584104D02*
X157432017Y-92869819D01*
X157432017Y-92869819D02*
X157432017Y-93869819D01*
X154630180Y-79848684D02*
X154630180Y-79515350D01*
X154630180Y-79515350D02*
X154153990Y-79482017D01*
X154153990Y-79482017D02*
X154201609Y-79515350D01*
X154201609Y-79515350D02*
X154249228Y-79582017D01*
X154249228Y-79582017D02*
X154249228Y-79748684D01*
X154249228Y-79748684D02*
X154201609Y-79815350D01*
X154201609Y-79815350D02*
X154153990Y-79848684D01*
X154153990Y-79848684D02*
X154058752Y-79882017D01*
X154058752Y-79882017D02*
X153820657Y-79882017D01*
X153820657Y-79882017D02*
X153725419Y-79848684D01*
X153725419Y-79848684D02*
X153677800Y-79815350D01*
X153677800Y-79815350D02*
X153630180Y-79748684D01*
X153630180Y-79748684D02*
X153630180Y-79582017D01*
X153630180Y-79582017D02*
X153677800Y-79515350D01*
X153677800Y-79515350D02*
X153725419Y-79482017D01*
X154296847Y-80115351D02*
X153630180Y-80282017D01*
X153630180Y-80282017D02*
X154296847Y-80448684D01*
X158898684Y-92869819D02*
X159032017Y-92869819D01*
X159032017Y-92869819D02*
X159098684Y-92917438D01*
X159098684Y-92917438D02*
X159165350Y-93012676D01*
X159165350Y-93012676D02*
X159198684Y-93203152D01*
X159198684Y-93203152D02*
X159198684Y-93536485D01*
X159198684Y-93536485D02*
X159165350Y-93726961D01*
X159165350Y-93726961D02*
X159098684Y-93822200D01*
X159098684Y-93822200D02*
X159032017Y-93869819D01*
X159032017Y-93869819D02*
X158898684Y-93869819D01*
X158898684Y-93869819D02*
X158832017Y-93822200D01*
X158832017Y-93822200D02*
X158765350Y-93726961D01*
X158765350Y-93726961D02*
X158732017Y-93536485D01*
X158732017Y-93536485D02*
X158732017Y-93203152D01*
X158732017Y-93203152D02*
X158765350Y-93012676D01*
X158765350Y-93012676D02*
X158832017Y-92917438D01*
X158832017Y-92917438D02*
X158898684Y-92869819D01*
X159432017Y-92869819D02*
X159898683Y-92869819D01*
X159898683Y-92869819D02*
X159432017Y-93869819D01*
X159432017Y-93869819D02*
X159898683Y-93869819D01*
X153630180Y-77265350D02*
X154630180Y-77265350D01*
X154630180Y-77265350D02*
X153630180Y-77665350D01*
X153630180Y-77665350D02*
X154630180Y-77665350D01*
X153725419Y-78398683D02*
X153677800Y-78365350D01*
X153677800Y-78365350D02*
X153630180Y-78265350D01*
X153630180Y-78265350D02*
X153630180Y-78198683D01*
X153630180Y-78198683D02*
X153677800Y-78098683D01*
X153677800Y-78098683D02*
X153773038Y-78032017D01*
X153773038Y-78032017D02*
X153868276Y-77998683D01*
X153868276Y-77998683D02*
X154058752Y-77965350D01*
X154058752Y-77965350D02*
X154201609Y-77965350D01*
X154201609Y-77965350D02*
X154392085Y-77998683D01*
X154392085Y-77998683D02*
X154487323Y-78032017D01*
X154487323Y-78032017D02*
X154582561Y-78098683D01*
X154582561Y-78098683D02*
X154630180Y-78198683D01*
X154630180Y-78198683D02*
X154630180Y-78265350D01*
X154630180Y-78265350D02*
X154582561Y-78365350D01*
X154582561Y-78365350D02*
X154534942Y-78398683D01*
X151403990Y-87765350D02*
X151403990Y-87998684D01*
X150880180Y-88098684D02*
X150880180Y-87765350D01*
X150880180Y-87765350D02*
X151880180Y-87765350D01*
X151880180Y-87765350D02*
X151880180Y-88098684D01*
X151546847Y-88398683D02*
X150880180Y-88398683D01*
X151451609Y-88398683D02*
X151499228Y-88432017D01*
X151499228Y-88432017D02*
X151546847Y-88498683D01*
X151546847Y-88498683D02*
X151546847Y-88598683D01*
X151546847Y-88598683D02*
X151499228Y-88665350D01*
X151499228Y-88665350D02*
X151403990Y-88698683D01*
X151403990Y-88698683D02*
X150880180Y-88698683D01*
X151546847Y-89465349D02*
X151546847Y-89732016D01*
X151880180Y-89565349D02*
X151023038Y-89565349D01*
X151023038Y-89565349D02*
X150927800Y-89598683D01*
X150927800Y-89598683D02*
X150880180Y-89665349D01*
X150880180Y-89665349D02*
X150880180Y-89732016D01*
X150880180Y-90065349D02*
X150927800Y-89998683D01*
X150927800Y-89998683D02*
X150975419Y-89965349D01*
X150975419Y-89965349D02*
X151070657Y-89932016D01*
X151070657Y-89932016D02*
X151356371Y-89932016D01*
X151356371Y-89932016D02*
X151451609Y-89965349D01*
X151451609Y-89965349D02*
X151499228Y-89998683D01*
X151499228Y-89998683D02*
X151546847Y-90065349D01*
X151546847Y-90065349D02*
X151546847Y-90165349D01*
X151546847Y-90165349D02*
X151499228Y-90232016D01*
X151499228Y-90232016D02*
X151451609Y-90265349D01*
X151451609Y-90265349D02*
X151356371Y-90298683D01*
X151356371Y-90298683D02*
X151070657Y-90298683D01*
X151070657Y-90298683D02*
X150975419Y-90265349D01*
X150975419Y-90265349D02*
X150927800Y-90232016D01*
X150927800Y-90232016D02*
X150880180Y-90165349D01*
X150880180Y-90165349D02*
X150880180Y-90065349D01*
X150880180Y-91132015D02*
X151880180Y-91132015D01*
X151880180Y-91132015D02*
X151165895Y-91365349D01*
X151165895Y-91365349D02*
X151880180Y-91598682D01*
X151880180Y-91598682D02*
X150880180Y-91598682D01*
X150975419Y-92332015D02*
X150927800Y-92298682D01*
X150927800Y-92298682D02*
X150880180Y-92198682D01*
X150880180Y-92198682D02*
X150880180Y-92132015D01*
X150880180Y-92132015D02*
X150927800Y-92032015D01*
X150927800Y-92032015D02*
X151023038Y-91965349D01*
X151023038Y-91965349D02*
X151118276Y-91932015D01*
X151118276Y-91932015D02*
X151308752Y-91898682D01*
X151308752Y-91898682D02*
X151451609Y-91898682D01*
X151451609Y-91898682D02*
X151642085Y-91932015D01*
X151642085Y-91932015D02*
X151737323Y-91965349D01*
X151737323Y-91965349D02*
X151832561Y-92032015D01*
X151832561Y-92032015D02*
X151880180Y-92132015D01*
X151880180Y-92132015D02*
X151880180Y-92198682D01*
X151880180Y-92198682D02*
X151832561Y-92298682D01*
X151832561Y-92298682D02*
X151784942Y-92332015D01*
X171119819Y-106651316D02*
X171119819Y-106984649D01*
X171119819Y-106984649D02*
X170119819Y-106984649D01*
X170596009Y-106417982D02*
X170596009Y-106184649D01*
X171119819Y-106084649D02*
X171119819Y-106417982D01*
X171119819Y-106417982D02*
X170119819Y-106417982D01*
X170119819Y-106417982D02*
X170119819Y-106084649D01*
X171119819Y-105784649D02*
X170119819Y-105784649D01*
X170119819Y-105784649D02*
X170119819Y-105617982D01*
X170119819Y-105617982D02*
X170167438Y-105517982D01*
X170167438Y-105517982D02*
X170262676Y-105451316D01*
X170262676Y-105451316D02*
X170357914Y-105417982D01*
X170357914Y-105417982D02*
X170548390Y-105384649D01*
X170548390Y-105384649D02*
X170691247Y-105384649D01*
X170691247Y-105384649D02*
X170881723Y-105417982D01*
X170881723Y-105417982D02*
X170976961Y-105451316D01*
X170976961Y-105451316D02*
X171072200Y-105517982D01*
X171072200Y-105517982D02*
X171119819Y-105617982D01*
X171119819Y-105617982D02*
X171119819Y-105784649D01*
X170119819Y-104351316D02*
X170834104Y-104351316D01*
X170834104Y-104351316D02*
X170976961Y-104384649D01*
X170976961Y-104384649D02*
X171072200Y-104451316D01*
X171072200Y-104451316D02*
X171119819Y-104551316D01*
X171119819Y-104551316D02*
X171119819Y-104617983D01*
X170119819Y-104017983D02*
X170929342Y-104017983D01*
X170929342Y-104017983D02*
X171024580Y-103984650D01*
X171024580Y-103984650D02*
X171072200Y-103951316D01*
X171072200Y-103951316D02*
X171119819Y-103884650D01*
X171119819Y-103884650D02*
X171119819Y-103751316D01*
X171119819Y-103751316D02*
X171072200Y-103684650D01*
X171072200Y-103684650D02*
X171024580Y-103651316D01*
X171024580Y-103651316D02*
X170929342Y-103617983D01*
X170929342Y-103617983D02*
X170119819Y-103617983D01*
X171119819Y-103284650D02*
X170119819Y-103284650D01*
X170119819Y-103284650D02*
X170834104Y-103051317D01*
X170834104Y-103051317D02*
X170119819Y-102817983D01*
X170119819Y-102817983D02*
X171119819Y-102817983D01*
X171119819Y-102484650D02*
X170119819Y-102484650D01*
X170119819Y-102484650D02*
X170119819Y-102217983D01*
X170119819Y-102217983D02*
X170167438Y-102151317D01*
X170167438Y-102151317D02*
X170215057Y-102117983D01*
X170215057Y-102117983D02*
X170310295Y-102084650D01*
X170310295Y-102084650D02*
X170453152Y-102084650D01*
X170453152Y-102084650D02*
X170548390Y-102117983D01*
X170548390Y-102117983D02*
X170596009Y-102151317D01*
X170596009Y-102151317D02*
X170643628Y-102217983D01*
X170643628Y-102217983D02*
X170643628Y-102484650D01*
X170596009Y-101784650D02*
X170596009Y-101551317D01*
X171119819Y-101451317D02*
X171119819Y-101784650D01*
X171119819Y-101784650D02*
X170119819Y-101784650D01*
X170119819Y-101784650D02*
X170119819Y-101451317D01*
X171119819Y-100751317D02*
X170643628Y-100984650D01*
X171119819Y-101151317D02*
X170119819Y-101151317D01*
X170119819Y-101151317D02*
X170119819Y-100884650D01*
X170119819Y-100884650D02*
X170167438Y-100817984D01*
X170167438Y-100817984D02*
X170215057Y-100784650D01*
X170215057Y-100784650D02*
X170310295Y-100751317D01*
X170310295Y-100751317D02*
X170453152Y-100751317D01*
X170453152Y-100751317D02*
X170548390Y-100784650D01*
X170548390Y-100784650D02*
X170596009Y-100817984D01*
X170596009Y-100817984D02*
X170643628Y-100884650D01*
X170643628Y-100884650D02*
X170643628Y-101151317D01*
X152982017Y-93822200D02*
X153082017Y-93869819D01*
X153082017Y-93869819D02*
X153248684Y-93869819D01*
X153248684Y-93869819D02*
X153315350Y-93822200D01*
X153315350Y-93822200D02*
X153348684Y-93774580D01*
X153348684Y-93774580D02*
X153382017Y-93679342D01*
X153382017Y-93679342D02*
X153382017Y-93584104D01*
X153382017Y-93584104D02*
X153348684Y-93488866D01*
X153348684Y-93488866D02*
X153315350Y-93441247D01*
X153315350Y-93441247D02*
X153248684Y-93393628D01*
X153248684Y-93393628D02*
X153115350Y-93346009D01*
X153115350Y-93346009D02*
X153048684Y-93298390D01*
X153048684Y-93298390D02*
X153015350Y-93250771D01*
X153015350Y-93250771D02*
X152982017Y-93155533D01*
X152982017Y-93155533D02*
X152982017Y-93060295D01*
X152982017Y-93060295D02*
X153015350Y-92965057D01*
X153015350Y-92965057D02*
X153048684Y-92917438D01*
X153048684Y-92917438D02*
X153115350Y-92869819D01*
X153115350Y-92869819D02*
X153282017Y-92869819D01*
X153282017Y-92869819D02*
X153382017Y-92917438D01*
X153682017Y-93869819D02*
X153682017Y-92869819D01*
X153682017Y-93346009D02*
X154082017Y-93346009D01*
X154082017Y-93869819D02*
X154082017Y-92869819D01*
X154315350Y-92869819D02*
X154715350Y-92869819D01*
X154515350Y-93869819D02*
X154515350Y-92869819D01*
X161232017Y-93822200D02*
X161332017Y-93869819D01*
X161332017Y-93869819D02*
X161498684Y-93869819D01*
X161498684Y-93869819D02*
X161565350Y-93822200D01*
X161565350Y-93822200D02*
X161598684Y-93774580D01*
X161598684Y-93774580D02*
X161632017Y-93679342D01*
X161632017Y-93679342D02*
X161632017Y-93584104D01*
X161632017Y-93584104D02*
X161598684Y-93488866D01*
X161598684Y-93488866D02*
X161565350Y-93441247D01*
X161565350Y-93441247D02*
X161498684Y-93393628D01*
X161498684Y-93393628D02*
X161365350Y-93346009D01*
X161365350Y-93346009D02*
X161298684Y-93298390D01*
X161298684Y-93298390D02*
X161265350Y-93250771D01*
X161265350Y-93250771D02*
X161232017Y-93155533D01*
X161232017Y-93155533D02*
X161232017Y-93060295D01*
X161232017Y-93060295D02*
X161265350Y-92965057D01*
X161265350Y-92965057D02*
X161298684Y-92917438D01*
X161298684Y-92917438D02*
X161365350Y-92869819D01*
X161365350Y-92869819D02*
X161532017Y-92869819D01*
X161532017Y-92869819D02*
X161632017Y-92917438D01*
X162332017Y-93774580D02*
X162298684Y-93822200D01*
X162298684Y-93822200D02*
X162198684Y-93869819D01*
X162198684Y-93869819D02*
X162132017Y-93869819D01*
X162132017Y-93869819D02*
X162032017Y-93822200D01*
X162032017Y-93822200D02*
X161965351Y-93726961D01*
X161965351Y-93726961D02*
X161932017Y-93631723D01*
X161932017Y-93631723D02*
X161898684Y-93441247D01*
X161898684Y-93441247D02*
X161898684Y-93298390D01*
X161898684Y-93298390D02*
X161932017Y-93107914D01*
X161932017Y-93107914D02*
X161965351Y-93012676D01*
X161965351Y-93012676D02*
X162032017Y-92917438D01*
X162032017Y-92917438D02*
X162132017Y-92869819D01*
X162132017Y-92869819D02*
X162198684Y-92869819D01*
X162198684Y-92869819D02*
X162298684Y-92917438D01*
X162298684Y-92917438D02*
X162332017Y-92965057D01*
X162632017Y-93869819D02*
X162632017Y-92869819D01*
X162632017Y-92869819D02*
X162798684Y-92869819D01*
X162798684Y-92869819D02*
X162898684Y-92917438D01*
X162898684Y-92917438D02*
X162965351Y-93012676D01*
X162965351Y-93012676D02*
X162998684Y-93107914D01*
X162998684Y-93107914D02*
X163032017Y-93298390D01*
X163032017Y-93298390D02*
X163032017Y-93441247D01*
X163032017Y-93441247D02*
X162998684Y-93631723D01*
X162998684Y-93631723D02*
X162965351Y-93726961D01*
X162965351Y-93726961D02*
X162898684Y-93822200D01*
X162898684Y-93822200D02*
X162798684Y-93869819D01*
X162798684Y-93869819D02*
X162632017Y-93869819D01*
X207167438Y-96117982D02*
X207119819Y-96184649D01*
X207119819Y-96184649D02*
X207119819Y-96284649D01*
X207119819Y-96284649D02*
X207167438Y-96384649D01*
X207167438Y-96384649D02*
X207262676Y-96451316D01*
X207262676Y-96451316D02*
X207357914Y-96484649D01*
X207357914Y-96484649D02*
X207548390Y-96517982D01*
X207548390Y-96517982D02*
X207691247Y-96517982D01*
X207691247Y-96517982D02*
X207881723Y-96484649D01*
X207881723Y-96484649D02*
X207976961Y-96451316D01*
X207976961Y-96451316D02*
X208072200Y-96384649D01*
X208072200Y-96384649D02*
X208119819Y-96284649D01*
X208119819Y-96284649D02*
X208119819Y-96217982D01*
X208119819Y-96217982D02*
X208072200Y-96117982D01*
X208072200Y-96117982D02*
X208024580Y-96084649D01*
X208024580Y-96084649D02*
X207691247Y-96084649D01*
X207691247Y-96084649D02*
X207691247Y-96217982D01*
X208119819Y-95784649D02*
X207119819Y-95784649D01*
X207119819Y-95784649D02*
X208119819Y-95384649D01*
X208119819Y-95384649D02*
X207119819Y-95384649D01*
X208119819Y-95051316D02*
X207119819Y-95051316D01*
X207119819Y-95051316D02*
X207119819Y-94884649D01*
X207119819Y-94884649D02*
X207167438Y-94784649D01*
X207167438Y-94784649D02*
X207262676Y-94717983D01*
X207262676Y-94717983D02*
X207357914Y-94684649D01*
X207357914Y-94684649D02*
X207548390Y-94651316D01*
X207548390Y-94651316D02*
X207691247Y-94651316D01*
X207691247Y-94651316D02*
X207881723Y-94684649D01*
X207881723Y-94684649D02*
X207976961Y-94717983D01*
X207976961Y-94717983D02*
X208072200Y-94784649D01*
X208072200Y-94784649D02*
X208119819Y-94884649D01*
X208119819Y-94884649D02*
X208119819Y-95051316D01*
X207119819Y-93584649D02*
X208119819Y-93351316D01*
X208119819Y-93351316D02*
X207119819Y-93117982D01*
X208024580Y-92484649D02*
X208072200Y-92517982D01*
X208072200Y-92517982D02*
X208119819Y-92617982D01*
X208119819Y-92617982D02*
X208119819Y-92684649D01*
X208119819Y-92684649D02*
X208072200Y-92784649D01*
X208072200Y-92784649D02*
X207976961Y-92851316D01*
X207976961Y-92851316D02*
X207881723Y-92884649D01*
X207881723Y-92884649D02*
X207691247Y-92917982D01*
X207691247Y-92917982D02*
X207548390Y-92917982D01*
X207548390Y-92917982D02*
X207357914Y-92884649D01*
X207357914Y-92884649D02*
X207262676Y-92851316D01*
X207262676Y-92851316D02*
X207167438Y-92784649D01*
X207167438Y-92784649D02*
X207119819Y-92684649D01*
X207119819Y-92684649D02*
X207119819Y-92617982D01*
X207119819Y-92617982D02*
X207167438Y-92517982D01*
X207167438Y-92517982D02*
X207215057Y-92484649D01*
X208024580Y-91784649D02*
X208072200Y-91817982D01*
X208072200Y-91817982D02*
X208119819Y-91917982D01*
X208119819Y-91917982D02*
X208119819Y-91984649D01*
X208119819Y-91984649D02*
X208072200Y-92084649D01*
X208072200Y-92084649D02*
X207976961Y-92151316D01*
X207976961Y-92151316D02*
X207881723Y-92184649D01*
X207881723Y-92184649D02*
X207691247Y-92217982D01*
X207691247Y-92217982D02*
X207548390Y-92217982D01*
X207548390Y-92217982D02*
X207357914Y-92184649D01*
X207357914Y-92184649D02*
X207262676Y-92151316D01*
X207262676Y-92151316D02*
X207167438Y-92084649D01*
X207167438Y-92084649D02*
X207119819Y-91984649D01*
X207119819Y-91984649D02*
X207119819Y-91917982D01*
X207119819Y-91917982D02*
X207167438Y-91817982D01*
X207167438Y-91817982D02*
X207215057Y-91784649D01*
X161232017Y-99822200D02*
X161332017Y-99869819D01*
X161332017Y-99869819D02*
X161498684Y-99869819D01*
X161498684Y-99869819D02*
X161565350Y-99822200D01*
X161565350Y-99822200D02*
X161598684Y-99774580D01*
X161598684Y-99774580D02*
X161632017Y-99679342D01*
X161632017Y-99679342D02*
X161632017Y-99584104D01*
X161632017Y-99584104D02*
X161598684Y-99488866D01*
X161598684Y-99488866D02*
X161565350Y-99441247D01*
X161565350Y-99441247D02*
X161498684Y-99393628D01*
X161498684Y-99393628D02*
X161365350Y-99346009D01*
X161365350Y-99346009D02*
X161298684Y-99298390D01*
X161298684Y-99298390D02*
X161265350Y-99250771D01*
X161265350Y-99250771D02*
X161232017Y-99155533D01*
X161232017Y-99155533D02*
X161232017Y-99060295D01*
X161232017Y-99060295D02*
X161265350Y-98965057D01*
X161265350Y-98965057D02*
X161298684Y-98917438D01*
X161298684Y-98917438D02*
X161365350Y-98869819D01*
X161365350Y-98869819D02*
X161532017Y-98869819D01*
X161532017Y-98869819D02*
X161632017Y-98917438D01*
X161932017Y-99346009D02*
X162165351Y-99346009D01*
X162265351Y-99869819D02*
X161932017Y-99869819D01*
X161932017Y-99869819D02*
X161932017Y-98869819D01*
X161932017Y-98869819D02*
X162265351Y-98869819D01*
X162465350Y-98869819D02*
X162865350Y-98869819D01*
X162665350Y-99869819D02*
X162665350Y-98869819D01*
X184515350Y-53369819D02*
X184515350Y-52369819D01*
X184515350Y-52369819D02*
X184915350Y-53369819D01*
X184915350Y-53369819D02*
X184915350Y-52369819D01*
X185648683Y-53274580D02*
X185615350Y-53322200D01*
X185615350Y-53322200D02*
X185515350Y-53369819D01*
X185515350Y-53369819D02*
X185448683Y-53369819D01*
X185448683Y-53369819D02*
X185348683Y-53322200D01*
X185348683Y-53322200D02*
X185282017Y-53226961D01*
X185282017Y-53226961D02*
X185248683Y-53131723D01*
X185248683Y-53131723D02*
X185215350Y-52941247D01*
X185215350Y-52941247D02*
X185215350Y-52798390D01*
X185215350Y-52798390D02*
X185248683Y-52607914D01*
X185248683Y-52607914D02*
X185282017Y-52512676D01*
X185282017Y-52512676D02*
X185348683Y-52417438D01*
X185348683Y-52417438D02*
X185448683Y-52369819D01*
X185448683Y-52369819D02*
X185515350Y-52369819D01*
X185515350Y-52369819D02*
X185615350Y-52417438D01*
X185615350Y-52417438D02*
X185648683Y-52465057D01*
X206667438Y-76367982D02*
X206619819Y-76434649D01*
X206619819Y-76434649D02*
X206619819Y-76534649D01*
X206619819Y-76534649D02*
X206667438Y-76634649D01*
X206667438Y-76634649D02*
X206762676Y-76701316D01*
X206762676Y-76701316D02*
X206857914Y-76734649D01*
X206857914Y-76734649D02*
X207048390Y-76767982D01*
X207048390Y-76767982D02*
X207191247Y-76767982D01*
X207191247Y-76767982D02*
X207381723Y-76734649D01*
X207381723Y-76734649D02*
X207476961Y-76701316D01*
X207476961Y-76701316D02*
X207572200Y-76634649D01*
X207572200Y-76634649D02*
X207619819Y-76534649D01*
X207619819Y-76534649D02*
X207619819Y-76467982D01*
X207619819Y-76467982D02*
X207572200Y-76367982D01*
X207572200Y-76367982D02*
X207524580Y-76334649D01*
X207524580Y-76334649D02*
X207191247Y-76334649D01*
X207191247Y-76334649D02*
X207191247Y-76467982D01*
X207619819Y-76034649D02*
X206619819Y-76034649D01*
X206619819Y-76034649D02*
X207619819Y-75634649D01*
X207619819Y-75634649D02*
X206619819Y-75634649D01*
X207619819Y-75301316D02*
X206619819Y-75301316D01*
X206619819Y-75301316D02*
X206619819Y-75134649D01*
X206619819Y-75134649D02*
X206667438Y-75034649D01*
X206667438Y-75034649D02*
X206762676Y-74967983D01*
X206762676Y-74967983D02*
X206857914Y-74934649D01*
X206857914Y-74934649D02*
X207048390Y-74901316D01*
X207048390Y-74901316D02*
X207191247Y-74901316D01*
X207191247Y-74901316D02*
X207381723Y-74934649D01*
X207381723Y-74934649D02*
X207476961Y-74967983D01*
X207476961Y-74967983D02*
X207572200Y-75034649D01*
X207572200Y-75034649D02*
X207619819Y-75134649D01*
X207619819Y-75134649D02*
X207619819Y-75301316D01*
X177232017Y-108322200D02*
X177332017Y-108369819D01*
X177332017Y-108369819D02*
X177498684Y-108369819D01*
X177498684Y-108369819D02*
X177565350Y-108322200D01*
X177565350Y-108322200D02*
X177598684Y-108274580D01*
X177598684Y-108274580D02*
X177632017Y-108179342D01*
X177632017Y-108179342D02*
X177632017Y-108084104D01*
X177632017Y-108084104D02*
X177598684Y-107988866D01*
X177598684Y-107988866D02*
X177565350Y-107941247D01*
X177565350Y-107941247D02*
X177498684Y-107893628D01*
X177498684Y-107893628D02*
X177365350Y-107846009D01*
X177365350Y-107846009D02*
X177298684Y-107798390D01*
X177298684Y-107798390D02*
X177265350Y-107750771D01*
X177265350Y-107750771D02*
X177232017Y-107655533D01*
X177232017Y-107655533D02*
X177232017Y-107560295D01*
X177232017Y-107560295D02*
X177265350Y-107465057D01*
X177265350Y-107465057D02*
X177298684Y-107417438D01*
X177298684Y-107417438D02*
X177365350Y-107369819D01*
X177365350Y-107369819D02*
X177532017Y-107369819D01*
X177532017Y-107369819D02*
X177632017Y-107417438D01*
X177932017Y-108369819D02*
X177932017Y-107369819D01*
X177932017Y-107369819D02*
X178098684Y-107369819D01*
X178098684Y-107369819D02*
X178198684Y-107417438D01*
X178198684Y-107417438D02*
X178265351Y-107512676D01*
X178265351Y-107512676D02*
X178298684Y-107607914D01*
X178298684Y-107607914D02*
X178332017Y-107798390D01*
X178332017Y-107798390D02*
X178332017Y-107941247D01*
X178332017Y-107941247D02*
X178298684Y-108131723D01*
X178298684Y-108131723D02*
X178265351Y-108226961D01*
X178265351Y-108226961D02*
X178198684Y-108322200D01*
X178198684Y-108322200D02*
X178098684Y-108369819D01*
X178098684Y-108369819D02*
X177932017Y-108369819D01*
X178598684Y-108084104D02*
X178932017Y-108084104D01*
X178532017Y-108369819D02*
X178765351Y-107369819D01*
X178765351Y-107369819D02*
X178998684Y-108369819D01*
X207572200Y-82017982D02*
X207619819Y-81917982D01*
X207619819Y-81917982D02*
X207619819Y-81751316D01*
X207619819Y-81751316D02*
X207572200Y-81684649D01*
X207572200Y-81684649D02*
X207524580Y-81651316D01*
X207524580Y-81651316D02*
X207429342Y-81617982D01*
X207429342Y-81617982D02*
X207334104Y-81617982D01*
X207334104Y-81617982D02*
X207238866Y-81651316D01*
X207238866Y-81651316D02*
X207191247Y-81684649D01*
X207191247Y-81684649D02*
X207143628Y-81751316D01*
X207143628Y-81751316D02*
X207096009Y-81884649D01*
X207096009Y-81884649D02*
X207048390Y-81951316D01*
X207048390Y-81951316D02*
X207000771Y-81984649D01*
X207000771Y-81984649D02*
X206905533Y-82017982D01*
X206905533Y-82017982D02*
X206810295Y-82017982D01*
X206810295Y-82017982D02*
X206715057Y-81984649D01*
X206715057Y-81984649D02*
X206667438Y-81951316D01*
X206667438Y-81951316D02*
X206619819Y-81884649D01*
X206619819Y-81884649D02*
X206619819Y-81717982D01*
X206619819Y-81717982D02*
X206667438Y-81617982D01*
X207619819Y-81317982D02*
X206619819Y-81317982D01*
X206619819Y-81317982D02*
X206619819Y-81151315D01*
X206619819Y-81151315D02*
X206667438Y-81051315D01*
X206667438Y-81051315D02*
X206762676Y-80984649D01*
X206762676Y-80984649D02*
X206857914Y-80951315D01*
X206857914Y-80951315D02*
X207048390Y-80917982D01*
X207048390Y-80917982D02*
X207191247Y-80917982D01*
X207191247Y-80917982D02*
X207381723Y-80951315D01*
X207381723Y-80951315D02*
X207476961Y-80984649D01*
X207476961Y-80984649D02*
X207572200Y-81051315D01*
X207572200Y-81051315D02*
X207619819Y-81151315D01*
X207619819Y-81151315D02*
X207619819Y-81317982D01*
X207334104Y-80651315D02*
X207334104Y-80317982D01*
X207619819Y-80717982D02*
X206619819Y-80484649D01*
X206619819Y-80484649D02*
X207619819Y-80251315D01*
X153677800Y-71732017D02*
X153630180Y-71832017D01*
X153630180Y-71832017D02*
X153630180Y-71998684D01*
X153630180Y-71998684D02*
X153677800Y-72065350D01*
X153677800Y-72065350D02*
X153725419Y-72098684D01*
X153725419Y-72098684D02*
X153820657Y-72132017D01*
X153820657Y-72132017D02*
X153915895Y-72132017D01*
X153915895Y-72132017D02*
X154011133Y-72098684D01*
X154011133Y-72098684D02*
X154058752Y-72065350D01*
X154058752Y-72065350D02*
X154106371Y-71998684D01*
X154106371Y-71998684D02*
X154153990Y-71865350D01*
X154153990Y-71865350D02*
X154201609Y-71798684D01*
X154201609Y-71798684D02*
X154249228Y-71765350D01*
X154249228Y-71765350D02*
X154344466Y-71732017D01*
X154344466Y-71732017D02*
X154439704Y-71732017D01*
X154439704Y-71732017D02*
X154534942Y-71765350D01*
X154534942Y-71765350D02*
X154582561Y-71798684D01*
X154582561Y-71798684D02*
X154630180Y-71865350D01*
X154630180Y-71865350D02*
X154630180Y-72032017D01*
X154630180Y-72032017D02*
X154582561Y-72132017D01*
X153725419Y-72832017D02*
X153677800Y-72798684D01*
X153677800Y-72798684D02*
X153630180Y-72698684D01*
X153630180Y-72698684D02*
X153630180Y-72632017D01*
X153630180Y-72632017D02*
X153677800Y-72532017D01*
X153677800Y-72532017D02*
X153773038Y-72465351D01*
X153773038Y-72465351D02*
X153868276Y-72432017D01*
X153868276Y-72432017D02*
X154058752Y-72398684D01*
X154058752Y-72398684D02*
X154201609Y-72398684D01*
X154201609Y-72398684D02*
X154392085Y-72432017D01*
X154392085Y-72432017D02*
X154487323Y-72465351D01*
X154487323Y-72465351D02*
X154582561Y-72532017D01*
X154582561Y-72532017D02*
X154630180Y-72632017D01*
X154630180Y-72632017D02*
X154630180Y-72698684D01*
X154630180Y-72698684D02*
X154582561Y-72798684D01*
X154582561Y-72798684D02*
X154534942Y-72832017D01*
X153630180Y-73465351D02*
X153630180Y-73132017D01*
X153630180Y-73132017D02*
X154630180Y-73132017D01*
X154582561Y-74632017D02*
X154630180Y-74565350D01*
X154630180Y-74565350D02*
X154630180Y-74465350D01*
X154630180Y-74465350D02*
X154582561Y-74365350D01*
X154582561Y-74365350D02*
X154487323Y-74298684D01*
X154487323Y-74298684D02*
X154392085Y-74265350D01*
X154392085Y-74265350D02*
X154201609Y-74232017D01*
X154201609Y-74232017D02*
X154058752Y-74232017D01*
X154058752Y-74232017D02*
X153868276Y-74265350D01*
X153868276Y-74265350D02*
X153773038Y-74298684D01*
X153773038Y-74298684D02*
X153677800Y-74365350D01*
X153677800Y-74365350D02*
X153630180Y-74465350D01*
X153630180Y-74465350D02*
X153630180Y-74532017D01*
X153630180Y-74532017D02*
X153677800Y-74632017D01*
X153677800Y-74632017D02*
X153725419Y-74665350D01*
X153725419Y-74665350D02*
X154058752Y-74665350D01*
X154058752Y-74665350D02*
X154058752Y-74532017D01*
X153630180Y-74965350D02*
X154630180Y-74965350D01*
X154630180Y-74965350D02*
X153630180Y-75365350D01*
X153630180Y-75365350D02*
X154630180Y-75365350D01*
X153630180Y-75698683D02*
X154630180Y-75698683D01*
X154630180Y-75698683D02*
X154630180Y-75865350D01*
X154630180Y-75865350D02*
X154582561Y-75965350D01*
X154582561Y-75965350D02*
X154487323Y-76032017D01*
X154487323Y-76032017D02*
X154392085Y-76065350D01*
X154392085Y-76065350D02*
X154201609Y-76098683D01*
X154201609Y-76098683D02*
X154058752Y-76098683D01*
X154058752Y-76098683D02*
X153868276Y-76065350D01*
X153868276Y-76065350D02*
X153773038Y-76032017D01*
X153773038Y-76032017D02*
X153677800Y-75965350D01*
X153677800Y-75965350D02*
X153630180Y-75865350D01*
X153630180Y-75865350D02*
X153630180Y-75698683D01*
X159165350Y-99869819D02*
X158932017Y-99393628D01*
X158765350Y-99869819D02*
X158765350Y-98869819D01*
X158765350Y-98869819D02*
X159032017Y-98869819D01*
X159032017Y-98869819D02*
X159098684Y-98917438D01*
X159098684Y-98917438D02*
X159132017Y-98965057D01*
X159132017Y-98965057D02*
X159165350Y-99060295D01*
X159165350Y-99060295D02*
X159165350Y-99203152D01*
X159165350Y-99203152D02*
X159132017Y-99298390D01*
X159132017Y-99298390D02*
X159098684Y-99346009D01*
X159098684Y-99346009D02*
X159032017Y-99393628D01*
X159032017Y-99393628D02*
X158765350Y-99393628D01*
X159398684Y-98869819D02*
X159865350Y-99869819D01*
X159865350Y-98869819D02*
X159398684Y-99869819D01*
X184632017Y-107417438D02*
X184565350Y-107369819D01*
X184565350Y-107369819D02*
X184465350Y-107369819D01*
X184465350Y-107369819D02*
X184365350Y-107417438D01*
X184365350Y-107417438D02*
X184298684Y-107512676D01*
X184298684Y-107512676D02*
X184265350Y-107607914D01*
X184265350Y-107607914D02*
X184232017Y-107798390D01*
X184232017Y-107798390D02*
X184232017Y-107941247D01*
X184232017Y-107941247D02*
X184265350Y-108131723D01*
X184265350Y-108131723D02*
X184298684Y-108226961D01*
X184298684Y-108226961D02*
X184365350Y-108322200D01*
X184365350Y-108322200D02*
X184465350Y-108369819D01*
X184465350Y-108369819D02*
X184532017Y-108369819D01*
X184532017Y-108369819D02*
X184632017Y-108322200D01*
X184632017Y-108322200D02*
X184665350Y-108274580D01*
X184665350Y-108274580D02*
X184665350Y-107941247D01*
X184665350Y-107941247D02*
X184532017Y-107941247D01*
X184965350Y-108369819D02*
X184965350Y-107369819D01*
X184965350Y-107369819D02*
X185365350Y-108369819D01*
X185365350Y-108369819D02*
X185365350Y-107369819D01*
X185698683Y-108369819D02*
X185698683Y-107369819D01*
X185698683Y-107369819D02*
X185865350Y-107369819D01*
X185865350Y-107369819D02*
X185965350Y-107417438D01*
X185965350Y-107417438D02*
X186032017Y-107512676D01*
X186032017Y-107512676D02*
X186065350Y-107607914D01*
X186065350Y-107607914D02*
X186098683Y-107798390D01*
X186098683Y-107798390D02*
X186098683Y-107941247D01*
X186098683Y-107941247D02*
X186065350Y-108131723D01*
X186065350Y-108131723D02*
X186032017Y-108226961D01*
X186032017Y-108226961D02*
X185965350Y-108322200D01*
X185965350Y-108322200D02*
X185865350Y-108369819D01*
X185865350Y-108369819D02*
X185698683Y-108369819D01*
X189732017Y-53322200D02*
X189832017Y-53369819D01*
X189832017Y-53369819D02*
X189998684Y-53369819D01*
X189998684Y-53369819D02*
X190065350Y-53322200D01*
X190065350Y-53322200D02*
X190098684Y-53274580D01*
X190098684Y-53274580D02*
X190132017Y-53179342D01*
X190132017Y-53179342D02*
X190132017Y-53084104D01*
X190132017Y-53084104D02*
X190098684Y-52988866D01*
X190098684Y-52988866D02*
X190065350Y-52941247D01*
X190065350Y-52941247D02*
X189998684Y-52893628D01*
X189998684Y-52893628D02*
X189865350Y-52846009D01*
X189865350Y-52846009D02*
X189798684Y-52798390D01*
X189798684Y-52798390D02*
X189765350Y-52750771D01*
X189765350Y-52750771D02*
X189732017Y-52655533D01*
X189732017Y-52655533D02*
X189732017Y-52560295D01*
X189732017Y-52560295D02*
X189765350Y-52465057D01*
X189765350Y-52465057D02*
X189798684Y-52417438D01*
X189798684Y-52417438D02*
X189865350Y-52369819D01*
X189865350Y-52369819D02*
X190032017Y-52369819D01*
X190032017Y-52369819D02*
X190132017Y-52417438D01*
X190832017Y-53274580D02*
X190798684Y-53322200D01*
X190798684Y-53322200D02*
X190698684Y-53369819D01*
X190698684Y-53369819D02*
X190632017Y-53369819D01*
X190632017Y-53369819D02*
X190532017Y-53322200D01*
X190532017Y-53322200D02*
X190465351Y-53226961D01*
X190465351Y-53226961D02*
X190432017Y-53131723D01*
X190432017Y-53131723D02*
X190398684Y-52941247D01*
X190398684Y-52941247D02*
X190398684Y-52798390D01*
X190398684Y-52798390D02*
X190432017Y-52607914D01*
X190432017Y-52607914D02*
X190465351Y-52512676D01*
X190465351Y-52512676D02*
X190532017Y-52417438D01*
X190532017Y-52417438D02*
X190632017Y-52369819D01*
X190632017Y-52369819D02*
X190698684Y-52369819D01*
X190698684Y-52369819D02*
X190798684Y-52417438D01*
X190798684Y-52417438D02*
X190832017Y-52465057D01*
X191465351Y-53369819D02*
X191132017Y-53369819D01*
X191132017Y-53369819D02*
X191132017Y-52369819D01*
X182098684Y-52369819D02*
X181765350Y-52369819D01*
X181765350Y-52369819D02*
X181732017Y-52846009D01*
X181732017Y-52846009D02*
X181765350Y-52798390D01*
X181765350Y-52798390D02*
X181832017Y-52750771D01*
X181832017Y-52750771D02*
X181998684Y-52750771D01*
X181998684Y-52750771D02*
X182065350Y-52798390D01*
X182065350Y-52798390D02*
X182098684Y-52846009D01*
X182098684Y-52846009D02*
X182132017Y-52941247D01*
X182132017Y-52941247D02*
X182132017Y-53179342D01*
X182132017Y-53179342D02*
X182098684Y-53274580D01*
X182098684Y-53274580D02*
X182065350Y-53322200D01*
X182065350Y-53322200D02*
X181998684Y-53369819D01*
X181998684Y-53369819D02*
X181832017Y-53369819D01*
X181832017Y-53369819D02*
X181765350Y-53322200D01*
X181765350Y-53322200D02*
X181732017Y-53274580D01*
X182365351Y-52703152D02*
X182532017Y-53369819D01*
X182532017Y-53369819D02*
X182698684Y-52703152D01*
D11*
%TO.C,D1*%
X161477500Y-105765000D02*
X161477500Y-107235000D01*
X161477500Y-107235000D02*
X163762500Y-107235000D01*
X163762500Y-105765000D02*
X161477500Y-105765000D01*
%TO.C,J10*%
X152850000Y-89420000D02*
X152850000Y-92080000D01*
X160530000Y-89420000D02*
X152850000Y-89420000D01*
X160530000Y-89420000D02*
X160530000Y-92080000D01*
X160530000Y-92080000D02*
X152850000Y-92080000D01*
X161800000Y-89420000D02*
X163130000Y-89420000D01*
X163130000Y-89420000D02*
X163130000Y-90750000D01*
%TO.C,C6*%
X199877500Y-71488748D02*
X199877500Y-72011252D01*
X201347500Y-71488748D02*
X201347500Y-72011252D01*
%TO.C,C9*%
X196515000Y-93488748D02*
X196515000Y-94011252D01*
X197985000Y-93488748D02*
X197985000Y-94011252D01*
%TO.C,J8*%
X174170000Y-106580000D02*
X174170000Y-105250000D01*
X175500000Y-106580000D02*
X174170000Y-106580000D01*
X176770000Y-103920000D02*
X179370000Y-103920000D01*
X176770000Y-106580000D02*
X176770000Y-103920000D01*
X176770000Y-106580000D02*
X179370000Y-106580000D01*
X179370000Y-106580000D02*
X179370000Y-103920000D01*
%TO.C,U1*%
X171137500Y-64240000D02*
X170337500Y-64240000D01*
X171137500Y-64240000D02*
X171937500Y-64240000D01*
X171137500Y-67360000D02*
X170337500Y-67360000D01*
X171137500Y-67360000D02*
X171937500Y-67360000D01*
X169837500Y-64290000D02*
X169597500Y-63960000D01*
X170077500Y-63960000D01*
X169837500Y-64290000D01*
G36*
X169837500Y-64290000D02*
G01*
X169597500Y-63960000D01*
X170077500Y-63960000D01*
X169837500Y-64290000D01*
G37*
%TO.C,JP1*%
X166670000Y-104005000D02*
X166670000Y-101405000D01*
X169330000Y-101405000D02*
X166670000Y-101405000D01*
X169330000Y-104005000D02*
X166670000Y-104005000D01*
X169330000Y-104005000D02*
X169330000Y-101405000D01*
X169330000Y-105275000D02*
X169330000Y-106605000D01*
X169330000Y-106605000D02*
X168000000Y-106605000D01*
%TO.C,J2*%
X181090000Y-57080000D02*
X181090000Y-55750000D01*
X182420000Y-57080000D02*
X181090000Y-57080000D01*
X183690000Y-54420000D02*
X193910000Y-54420000D01*
X183690000Y-57080000D02*
X183690000Y-54420000D01*
X183690000Y-57080000D02*
X193910000Y-57080000D01*
X193910000Y-57080000D02*
X193910000Y-54420000D01*
%TO.C,C1*%
X173902500Y-65538748D02*
X173902500Y-66061252D01*
X175372500Y-65538748D02*
X175372500Y-66061252D01*
%TO.C,J1*%
X163100000Y-57800000D02*
X163100000Y-56800000D01*
X163100000Y-57800000D02*
X164100000Y-57800000D01*
X163390000Y-54090000D02*
X163390000Y-57510000D01*
X163390000Y-57510000D02*
X175360000Y-57510000D01*
X163700000Y-55450000D02*
X163900000Y-55450000D01*
X163700000Y-56250000D02*
X163700000Y-55450000D01*
X163900000Y-54600000D02*
X169375000Y-54600000D01*
X163900000Y-55450000D02*
X163900000Y-54600000D01*
X163900000Y-56250000D02*
X163700000Y-56250000D01*
X163900000Y-57000000D02*
X163900000Y-56250000D01*
X169375000Y-57000000D02*
X163900000Y-57000000D01*
X169375000Y-57000000D02*
X174850000Y-57000000D01*
X174850000Y-54600000D02*
X169375000Y-54600000D01*
X174850000Y-55450000D02*
X174850000Y-54600000D01*
X174850000Y-56250000D02*
X175050000Y-56250000D01*
X174850000Y-57000000D02*
X174850000Y-56250000D01*
X175050000Y-55450000D02*
X174850000Y-55450000D01*
X175050000Y-56250000D02*
X175050000Y-55450000D01*
X175360000Y-54090000D02*
X163390000Y-54090000D01*
X175360000Y-57510000D02*
X175360000Y-54090000D01*
%TO.C,C4*%
X185652500Y-65288748D02*
X185652500Y-65811252D01*
X187122500Y-65288748D02*
X187122500Y-65811252D01*
%TO.C,J4*%
X155220000Y-78805000D02*
X155220000Y-68585000D01*
X155220000Y-81405000D02*
X155220000Y-80075000D01*
X156550000Y-81405000D02*
X155220000Y-81405000D01*
X157880000Y-68585000D02*
X155220000Y-68585000D01*
X157880000Y-78805000D02*
X155220000Y-78805000D01*
X157880000Y-78805000D02*
X157880000Y-68585000D01*
%TO.C,U2*%
X182887500Y-63990000D02*
X182087500Y-63990000D01*
X182887500Y-63990000D02*
X183687500Y-63990000D01*
X182887500Y-67110000D02*
X182087500Y-67110000D01*
X182887500Y-67110000D02*
X183687500Y-67110000D01*
X181587500Y-64040000D02*
X181347500Y-63710000D01*
X181827500Y-63710000D01*
X181587500Y-64040000D01*
G36*
X181587500Y-64040000D02*
G01*
X181347500Y-63710000D01*
X181827500Y-63710000D01*
X181587500Y-64040000D01*
G37*
%TO.C,C10*%
X194011252Y-88015000D02*
X193488748Y-88015000D01*
X194011252Y-89485000D02*
X193488748Y-89485000D01*
%TO.C,J9*%
X152920000Y-98080000D02*
X152920000Y-96750000D01*
X154250000Y-98080000D02*
X152920000Y-98080000D01*
X155520000Y-95420000D02*
X163200000Y-95420000D01*
X155520000Y-98080000D02*
X155520000Y-95420000D01*
X155520000Y-98080000D02*
X163200000Y-98080000D01*
X163200000Y-98080000D02*
X163200000Y-95420000D01*
%TO.C,R1*%
X163239758Y-102187500D02*
X162765242Y-102187500D01*
X163239758Y-103232500D02*
X162765242Y-103232500D01*
%TO.C,C2*%
X166902500Y-65538748D02*
X166902500Y-66061252D01*
X168372500Y-65538748D02*
X168372500Y-66061252D01*
%TO.C,U4*%
X163500000Y-77690000D02*
X162700000Y-77690000D01*
X163500000Y-77690000D02*
X164300000Y-77690000D01*
X163500000Y-80810000D02*
X162700000Y-80810000D01*
X163500000Y-80810000D02*
X164300000Y-80810000D01*
X165040000Y-81090000D02*
X164560000Y-81090000D01*
X164800000Y-80760000D01*
X165040000Y-81090000D01*
G36*
X165040000Y-81090000D02*
G01*
X164560000Y-81090000D01*
X164800000Y-80760000D01*
X165040000Y-81090000D01*
G37*
%TO.C,J3*%
X203295000Y-71945000D02*
X203295000Y-82165000D01*
X203295000Y-71945000D02*
X205955000Y-71945000D01*
X203295000Y-82165000D02*
X205955000Y-82165000D01*
X204625000Y-69345000D02*
X205955000Y-69345000D01*
X205955000Y-69345000D02*
X205955000Y-70675000D01*
X205955000Y-71945000D02*
X205955000Y-82165000D01*
%TO.C,U5*%
X191527500Y-90640000D02*
X194247500Y-90640000D01*
X191527500Y-91620000D02*
X191527500Y-90640000D01*
X191527500Y-94380000D02*
X191527500Y-95360000D01*
X194107500Y-95360000D02*
X191527500Y-95360000D01*
X194897500Y-95540000D02*
X194417500Y-95540000D01*
X194657500Y-95210000D01*
X194897500Y-95540000D01*
G36*
X194897500Y-95540000D02*
G01*
X194417500Y-95540000D01*
X194657500Y-95210000D01*
X194897500Y-95540000D01*
G37*
%TO.C,U3*%
X197112500Y-70190000D02*
X196312500Y-70190000D01*
X197112500Y-70190000D02*
X197912500Y-70190000D01*
X197112500Y-73310000D02*
X196312500Y-73310000D01*
X197112500Y-73310000D02*
X197912500Y-73310000D01*
X195812500Y-70240000D02*
X195572500Y-69910000D01*
X196052500Y-69910000D01*
X195812500Y-70240000D01*
G36*
X195812500Y-70240000D02*
G01*
X195572500Y-69910000D01*
X196052500Y-69910000D01*
X195812500Y-70240000D01*
G37*
%TO.C,C8*%
X159265000Y-79511252D02*
X159265000Y-78988748D01*
X160735000Y-79511252D02*
X160735000Y-78988748D01*
%TO.C,C3*%
X178652500Y-65288748D02*
X178652500Y-65811252D01*
X180122500Y-65288748D02*
X180122500Y-65811252D01*
%TO.C,J5*%
X183905000Y-103920000D02*
X183905000Y-106580000D01*
X186505000Y-103920000D02*
X183905000Y-103920000D01*
X186505000Y-103920000D02*
X186505000Y-106580000D01*
X186505000Y-106580000D02*
X183905000Y-106580000D01*
X187775000Y-103920000D02*
X189105000Y-103920000D01*
X189105000Y-103920000D02*
X189105000Y-105250000D01*
%TO.C,J7*%
X203670000Y-91395000D02*
X205000000Y-91395000D01*
X203670000Y-92725000D02*
X203670000Y-91395000D01*
X203670000Y-93995000D02*
X203670000Y-96595000D01*
X203670000Y-93995000D02*
X206330000Y-93995000D01*
X203670000Y-96595000D02*
X206330000Y-96595000D01*
X206330000Y-93995000D02*
X206330000Y-96595000D01*
%TO.C,C7*%
X166265000Y-79511252D02*
X166265000Y-78988748D01*
X167735000Y-79511252D02*
X167735000Y-78988748D01*
%TO.C,J6*%
X191630000Y-103920000D02*
X191630000Y-106580000D01*
X194230000Y-103920000D02*
X191630000Y-103920000D01*
X194230000Y-103920000D02*
X194230000Y-106580000D01*
X194230000Y-106580000D02*
X191630000Y-106580000D01*
X195500000Y-103920000D02*
X196830000Y-103920000D01*
X196830000Y-103920000D02*
X196830000Y-105250000D01*
%TO.C,C5*%
X193015000Y-71488748D02*
X193015000Y-72011252D01*
X194485000Y-71488748D02*
X194485000Y-72011252D01*
%TD*%
M02*
