%TF.GenerationSoftware,KiCad,Pcbnew,8.0.6*%
%TF.CreationDate,2025-03-18T14:58:07-04:00*%
%TF.ProjectId,PCB-Test,5043422d-5465-4737-942e-6b696361645f,rev?*%
%TF.SameCoordinates,Original*%
%TF.FileFunction,Legend,Bot*%
%TF.FilePolarity,Positive*%
%FSLAX46Y46*%
G04 Gerber Fmt 4.6, Leading zero omitted, Abs format (unit mm)*
G04 Created by KiCad (PCBNEW 8.0.6) date 2025-03-18 14:58:07*
%MOMM*%
%LPD*%
G01*
G04 APERTURE LIST*
%ADD10C,0.150000*%
G04 APERTURE END LIST*
D10*
X185649999Y-78804692D02*
X185683332Y-78852312D01*
X185683332Y-78852312D02*
X185783332Y-78899931D01*
X185783332Y-78899931D02*
X185849999Y-78899931D01*
X185849999Y-78899931D02*
X185949999Y-78852312D01*
X185949999Y-78852312D02*
X186016666Y-78757073D01*
X186016666Y-78757073D02*
X186049999Y-78661835D01*
X186049999Y-78661835D02*
X186083332Y-78471359D01*
X186083332Y-78471359D02*
X186083332Y-78328502D01*
X186083332Y-78328502D02*
X186049999Y-78138026D01*
X186049999Y-78138026D02*
X186016666Y-78042788D01*
X186016666Y-78042788D02*
X185949999Y-77947550D01*
X185949999Y-77947550D02*
X185849999Y-77899931D01*
X185849999Y-77899931D02*
X185783332Y-77899931D01*
X185783332Y-77899931D02*
X185683332Y-77947550D01*
X185683332Y-77947550D02*
X185649999Y-77995169D01*
X185216666Y-77899931D02*
X185083332Y-77899931D01*
X185083332Y-77899931D02*
X185016666Y-77947550D01*
X185016666Y-77947550D02*
X184949999Y-78042788D01*
X184949999Y-78042788D02*
X184916666Y-78233264D01*
X184916666Y-78233264D02*
X184916666Y-78566597D01*
X184916666Y-78566597D02*
X184949999Y-78757073D01*
X184949999Y-78757073D02*
X185016666Y-78852312D01*
X185016666Y-78852312D02*
X185083332Y-78899931D01*
X185083332Y-78899931D02*
X185216666Y-78899931D01*
X185216666Y-78899931D02*
X185283332Y-78852312D01*
X185283332Y-78852312D02*
X185349999Y-78757073D01*
X185349999Y-78757073D02*
X185383332Y-78566597D01*
X185383332Y-78566597D02*
X185383332Y-78233264D01*
X185383332Y-78233264D02*
X185349999Y-78042788D01*
X185349999Y-78042788D02*
X185283332Y-77947550D01*
X185283332Y-77947550D02*
X185216666Y-77899931D01*
X184616666Y-78899931D02*
X184616666Y-77899931D01*
X184616666Y-77899931D02*
X184349999Y-77899931D01*
X184349999Y-77899931D02*
X184283333Y-77947550D01*
X184283333Y-77947550D02*
X184249999Y-77995169D01*
X184249999Y-77995169D02*
X184216666Y-78090407D01*
X184216666Y-78090407D02*
X184216666Y-78233264D01*
X184216666Y-78233264D02*
X184249999Y-78328502D01*
X184249999Y-78328502D02*
X184283333Y-78376121D01*
X184283333Y-78376121D02*
X184349999Y-78423740D01*
X184349999Y-78423740D02*
X184616666Y-78423740D01*
X183783333Y-78423740D02*
X183783333Y-78899931D01*
X184016666Y-77899931D02*
X183783333Y-78423740D01*
X183783333Y-78423740D02*
X183549999Y-77899931D01*
X182916666Y-78899931D02*
X183149999Y-78423740D01*
X183316666Y-78899931D02*
X183316666Y-77899931D01*
X183316666Y-77899931D02*
X183049999Y-77899931D01*
X183049999Y-77899931D02*
X182983333Y-77947550D01*
X182983333Y-77947550D02*
X182949999Y-77995169D01*
X182949999Y-77995169D02*
X182916666Y-78090407D01*
X182916666Y-78090407D02*
X182916666Y-78233264D01*
X182916666Y-78233264D02*
X182949999Y-78328502D01*
X182949999Y-78328502D02*
X182983333Y-78376121D01*
X182983333Y-78376121D02*
X183049999Y-78423740D01*
X183049999Y-78423740D02*
X183316666Y-78423740D01*
X182616666Y-78899931D02*
X182616666Y-77899931D01*
X181916666Y-77947550D02*
X181983333Y-77899931D01*
X181983333Y-77899931D02*
X182083333Y-77899931D01*
X182083333Y-77899931D02*
X182183333Y-77947550D01*
X182183333Y-77947550D02*
X182250000Y-78042788D01*
X182250000Y-78042788D02*
X182283333Y-78138026D01*
X182283333Y-78138026D02*
X182316666Y-78328502D01*
X182316666Y-78328502D02*
X182316666Y-78471359D01*
X182316666Y-78471359D02*
X182283333Y-78661835D01*
X182283333Y-78661835D02*
X182250000Y-78757073D01*
X182250000Y-78757073D02*
X182183333Y-78852312D01*
X182183333Y-78852312D02*
X182083333Y-78899931D01*
X182083333Y-78899931D02*
X182016666Y-78899931D01*
X182016666Y-78899931D02*
X181916666Y-78852312D01*
X181916666Y-78852312D02*
X181883333Y-78804692D01*
X181883333Y-78804692D02*
X181883333Y-78471359D01*
X181883333Y-78471359D02*
X182016666Y-78471359D01*
X181583333Y-78899931D02*
X181583333Y-77899931D01*
X181583333Y-78376121D02*
X181183333Y-78376121D01*
X181183333Y-78899931D02*
X181183333Y-77899931D01*
X180950000Y-77899931D02*
X180550000Y-77899931D01*
X180750000Y-78899931D02*
X180750000Y-77899931D01*
X179816667Y-77995169D02*
X179783334Y-77947550D01*
X179783334Y-77947550D02*
X179716667Y-77899931D01*
X179716667Y-77899931D02*
X179550001Y-77899931D01*
X179550001Y-77899931D02*
X179483334Y-77947550D01*
X179483334Y-77947550D02*
X179450001Y-77995169D01*
X179450001Y-77995169D02*
X179416667Y-78090407D01*
X179416667Y-78090407D02*
X179416667Y-78185645D01*
X179416667Y-78185645D02*
X179450001Y-78328502D01*
X179450001Y-78328502D02*
X179850001Y-78899931D01*
X179850001Y-78899931D02*
X179416667Y-78899931D01*
X178983334Y-77899931D02*
X178916667Y-77899931D01*
X178916667Y-77899931D02*
X178850000Y-77947550D01*
X178850000Y-77947550D02*
X178816667Y-77995169D01*
X178816667Y-77995169D02*
X178783334Y-78090407D01*
X178783334Y-78090407D02*
X178750000Y-78280883D01*
X178750000Y-78280883D02*
X178750000Y-78518978D01*
X178750000Y-78518978D02*
X178783334Y-78709454D01*
X178783334Y-78709454D02*
X178816667Y-78804692D01*
X178816667Y-78804692D02*
X178850000Y-78852312D01*
X178850000Y-78852312D02*
X178916667Y-78899931D01*
X178916667Y-78899931D02*
X178983334Y-78899931D01*
X178983334Y-78899931D02*
X179050000Y-78852312D01*
X179050000Y-78852312D02*
X179083334Y-78804692D01*
X179083334Y-78804692D02*
X179116667Y-78709454D01*
X179116667Y-78709454D02*
X179150000Y-78518978D01*
X179150000Y-78518978D02*
X179150000Y-78280883D01*
X179150000Y-78280883D02*
X179116667Y-78090407D01*
X179116667Y-78090407D02*
X179083334Y-77995169D01*
X179083334Y-77995169D02*
X179050000Y-77947550D01*
X179050000Y-77947550D02*
X178983334Y-77899931D01*
X178483333Y-77995169D02*
X178450000Y-77947550D01*
X178450000Y-77947550D02*
X178383333Y-77899931D01*
X178383333Y-77899931D02*
X178216667Y-77899931D01*
X178216667Y-77899931D02*
X178150000Y-77947550D01*
X178150000Y-77947550D02*
X178116667Y-77995169D01*
X178116667Y-77995169D02*
X178083333Y-78090407D01*
X178083333Y-78090407D02*
X178083333Y-78185645D01*
X178083333Y-78185645D02*
X178116667Y-78328502D01*
X178116667Y-78328502D02*
X178516667Y-78899931D01*
X178516667Y-78899931D02*
X178083333Y-78899931D01*
X177450000Y-77899931D02*
X177783333Y-77899931D01*
X177783333Y-77899931D02*
X177816666Y-78376121D01*
X177816666Y-78376121D02*
X177783333Y-78328502D01*
X177783333Y-78328502D02*
X177716666Y-78280883D01*
X177716666Y-78280883D02*
X177550000Y-78280883D01*
X177550000Y-78280883D02*
X177483333Y-78328502D01*
X177483333Y-78328502D02*
X177450000Y-78376121D01*
X177450000Y-78376121D02*
X177416666Y-78471359D01*
X177416666Y-78471359D02*
X177416666Y-78709454D01*
X177416666Y-78709454D02*
X177450000Y-78804692D01*
X177450000Y-78804692D02*
X177483333Y-78852312D01*
X177483333Y-78852312D02*
X177550000Y-78899931D01*
X177550000Y-78899931D02*
X177716666Y-78899931D01*
X177716666Y-78899931D02*
X177783333Y-78852312D01*
X177783333Y-78852312D02*
X177816666Y-78804692D01*
X188883331Y-79509875D02*
X188883331Y-80319398D01*
X188883331Y-80319398D02*
X188849998Y-80414636D01*
X188849998Y-80414636D02*
X188816664Y-80462256D01*
X188816664Y-80462256D02*
X188749998Y-80509875D01*
X188749998Y-80509875D02*
X188616664Y-80509875D01*
X188616664Y-80509875D02*
X188549998Y-80462256D01*
X188549998Y-80462256D02*
X188516664Y-80414636D01*
X188516664Y-80414636D02*
X188483331Y-80319398D01*
X188483331Y-80319398D02*
X188483331Y-79509875D01*
X188049998Y-80509875D02*
X188116665Y-80462256D01*
X188116665Y-80462256D02*
X188149998Y-80414636D01*
X188149998Y-80414636D02*
X188183331Y-80319398D01*
X188183331Y-80319398D02*
X188183331Y-80033684D01*
X188183331Y-80033684D02*
X188149998Y-79938446D01*
X188149998Y-79938446D02*
X188116665Y-79890827D01*
X188116665Y-79890827D02*
X188049998Y-79843208D01*
X188049998Y-79843208D02*
X187949998Y-79843208D01*
X187949998Y-79843208D02*
X187883331Y-79890827D01*
X187883331Y-79890827D02*
X187849998Y-79938446D01*
X187849998Y-79938446D02*
X187816665Y-80033684D01*
X187816665Y-80033684D02*
X187816665Y-80319398D01*
X187816665Y-80319398D02*
X187849998Y-80414636D01*
X187849998Y-80414636D02*
X187883331Y-80462256D01*
X187883331Y-80462256D02*
X187949998Y-80509875D01*
X187949998Y-80509875D02*
X188049998Y-80509875D01*
X187616665Y-79843208D02*
X187349998Y-79843208D01*
X187516665Y-80509875D02*
X187516665Y-79652732D01*
X187516665Y-79652732D02*
X187483332Y-79557494D01*
X187483332Y-79557494D02*
X187416665Y-79509875D01*
X187416665Y-79509875D02*
X187349998Y-79509875D01*
X187216665Y-79509875D02*
X186816665Y-79509875D01*
X187016665Y-80509875D02*
X187016665Y-79509875D01*
X186049999Y-80509875D02*
X186049999Y-79509875D01*
X186049999Y-79509875D02*
X185649999Y-80509875D01*
X185649999Y-80509875D02*
X185649999Y-79509875D01*
X185049999Y-80462256D02*
X185116666Y-80509875D01*
X185116666Y-80509875D02*
X185249999Y-80509875D01*
X185249999Y-80509875D02*
X185316666Y-80462256D01*
X185316666Y-80462256D02*
X185349999Y-80367017D01*
X185349999Y-80367017D02*
X185349999Y-79986065D01*
X185349999Y-79986065D02*
X185316666Y-79890827D01*
X185316666Y-79890827D02*
X185249999Y-79843208D01*
X185249999Y-79843208D02*
X185116666Y-79843208D01*
X185116666Y-79843208D02*
X185049999Y-79890827D01*
X185049999Y-79890827D02*
X185016666Y-79986065D01*
X185016666Y-79986065D02*
X185016666Y-80081303D01*
X185016666Y-80081303D02*
X185349999Y-80176541D01*
X184816666Y-79843208D02*
X184549999Y-79843208D01*
X184716666Y-79509875D02*
X184716666Y-80367017D01*
X184716666Y-80367017D02*
X184683333Y-80462256D01*
X184683333Y-80462256D02*
X184616666Y-80509875D01*
X184616666Y-80509875D02*
X184549999Y-80509875D01*
X184383333Y-79843208D02*
X184249999Y-80509875D01*
X184249999Y-80509875D02*
X184116666Y-80033684D01*
X184116666Y-80033684D02*
X183983333Y-80509875D01*
X183983333Y-80509875D02*
X183849999Y-79843208D01*
X183483333Y-80509875D02*
X183550000Y-80462256D01*
X183550000Y-80462256D02*
X183583333Y-80414636D01*
X183583333Y-80414636D02*
X183616666Y-80319398D01*
X183616666Y-80319398D02*
X183616666Y-80033684D01*
X183616666Y-80033684D02*
X183583333Y-79938446D01*
X183583333Y-79938446D02*
X183550000Y-79890827D01*
X183550000Y-79890827D02*
X183483333Y-79843208D01*
X183483333Y-79843208D02*
X183383333Y-79843208D01*
X183383333Y-79843208D02*
X183316666Y-79890827D01*
X183316666Y-79890827D02*
X183283333Y-79938446D01*
X183283333Y-79938446D02*
X183250000Y-80033684D01*
X183250000Y-80033684D02*
X183250000Y-80319398D01*
X183250000Y-80319398D02*
X183283333Y-80414636D01*
X183283333Y-80414636D02*
X183316666Y-80462256D01*
X183316666Y-80462256D02*
X183383333Y-80509875D01*
X183383333Y-80509875D02*
X183483333Y-80509875D01*
X182950000Y-80509875D02*
X182950000Y-79843208D01*
X182950000Y-80033684D02*
X182916667Y-79938446D01*
X182916667Y-79938446D02*
X182883333Y-79890827D01*
X182883333Y-79890827D02*
X182816667Y-79843208D01*
X182816667Y-79843208D02*
X182750000Y-79843208D01*
X182516667Y-80509875D02*
X182516667Y-79509875D01*
X182450000Y-80128922D02*
X182250000Y-80509875D01*
X182250000Y-79843208D02*
X182516667Y-80224160D01*
X181016667Y-80509875D02*
X181250000Y-80033684D01*
X181416667Y-80509875D02*
X181416667Y-79509875D01*
X181416667Y-79509875D02*
X181150000Y-79509875D01*
X181150000Y-79509875D02*
X181083334Y-79557494D01*
X181083334Y-79557494D02*
X181050000Y-79605113D01*
X181050000Y-79605113D02*
X181016667Y-79700351D01*
X181016667Y-79700351D02*
X181016667Y-79843208D01*
X181016667Y-79843208D02*
X181050000Y-79938446D01*
X181050000Y-79938446D02*
X181083334Y-79986065D01*
X181083334Y-79986065D02*
X181150000Y-80033684D01*
X181150000Y-80033684D02*
X181416667Y-80033684D01*
X180450000Y-80462256D02*
X180516667Y-80509875D01*
X180516667Y-80509875D02*
X180650000Y-80509875D01*
X180650000Y-80509875D02*
X180716667Y-80462256D01*
X180716667Y-80462256D02*
X180750000Y-80367017D01*
X180750000Y-80367017D02*
X180750000Y-79986065D01*
X180750000Y-79986065D02*
X180716667Y-79890827D01*
X180716667Y-79890827D02*
X180650000Y-79843208D01*
X180650000Y-79843208D02*
X180516667Y-79843208D01*
X180516667Y-79843208D02*
X180450000Y-79890827D01*
X180450000Y-79890827D02*
X180416667Y-79986065D01*
X180416667Y-79986065D02*
X180416667Y-80081303D01*
X180416667Y-80081303D02*
X180750000Y-80176541D01*
X180150000Y-80462256D02*
X180083334Y-80509875D01*
X180083334Y-80509875D02*
X179950000Y-80509875D01*
X179950000Y-80509875D02*
X179883334Y-80462256D01*
X179883334Y-80462256D02*
X179850000Y-80367017D01*
X179850000Y-80367017D02*
X179850000Y-80319398D01*
X179850000Y-80319398D02*
X179883334Y-80224160D01*
X179883334Y-80224160D02*
X179950000Y-80176541D01*
X179950000Y-80176541D02*
X180050000Y-80176541D01*
X180050000Y-80176541D02*
X180116667Y-80128922D01*
X180116667Y-80128922D02*
X180150000Y-80033684D01*
X180150000Y-80033684D02*
X180150000Y-79986065D01*
X180150000Y-79986065D02*
X180116667Y-79890827D01*
X180116667Y-79890827D02*
X180050000Y-79843208D01*
X180050000Y-79843208D02*
X179950000Y-79843208D01*
X179950000Y-79843208D02*
X179883334Y-79890827D01*
X179283333Y-80462256D02*
X179350000Y-80509875D01*
X179350000Y-80509875D02*
X179483333Y-80509875D01*
X179483333Y-80509875D02*
X179550000Y-80462256D01*
X179550000Y-80462256D02*
X179583333Y-80367017D01*
X179583333Y-80367017D02*
X179583333Y-79986065D01*
X179583333Y-79986065D02*
X179550000Y-79890827D01*
X179550000Y-79890827D02*
X179483333Y-79843208D01*
X179483333Y-79843208D02*
X179350000Y-79843208D01*
X179350000Y-79843208D02*
X179283333Y-79890827D01*
X179283333Y-79890827D02*
X179250000Y-79986065D01*
X179250000Y-79986065D02*
X179250000Y-80081303D01*
X179250000Y-80081303D02*
X179583333Y-80176541D01*
X178650000Y-80509875D02*
X178650000Y-79986065D01*
X178650000Y-79986065D02*
X178683333Y-79890827D01*
X178683333Y-79890827D02*
X178750000Y-79843208D01*
X178750000Y-79843208D02*
X178883333Y-79843208D01*
X178883333Y-79843208D02*
X178950000Y-79890827D01*
X178650000Y-80462256D02*
X178716667Y-80509875D01*
X178716667Y-80509875D02*
X178883333Y-80509875D01*
X178883333Y-80509875D02*
X178950000Y-80462256D01*
X178950000Y-80462256D02*
X178983333Y-80367017D01*
X178983333Y-80367017D02*
X178983333Y-80271779D01*
X178983333Y-80271779D02*
X178950000Y-80176541D01*
X178950000Y-80176541D02*
X178883333Y-80128922D01*
X178883333Y-80128922D02*
X178716667Y-80128922D01*
X178716667Y-80128922D02*
X178650000Y-80081303D01*
X178316667Y-80509875D02*
X178316667Y-79843208D01*
X178316667Y-80033684D02*
X178283334Y-79938446D01*
X178283334Y-79938446D02*
X178250000Y-79890827D01*
X178250000Y-79890827D02*
X178183334Y-79843208D01*
X178183334Y-79843208D02*
X178116667Y-79843208D01*
X177583334Y-80462256D02*
X177650001Y-80509875D01*
X177650001Y-80509875D02*
X177783334Y-80509875D01*
X177783334Y-80509875D02*
X177850001Y-80462256D01*
X177850001Y-80462256D02*
X177883334Y-80414636D01*
X177883334Y-80414636D02*
X177916667Y-80319398D01*
X177916667Y-80319398D02*
X177916667Y-80033684D01*
X177916667Y-80033684D02*
X177883334Y-79938446D01*
X177883334Y-79938446D02*
X177850001Y-79890827D01*
X177850001Y-79890827D02*
X177783334Y-79843208D01*
X177783334Y-79843208D02*
X177650001Y-79843208D01*
X177650001Y-79843208D02*
X177583334Y-79890827D01*
X177283334Y-80509875D02*
X177283334Y-79509875D01*
X176983334Y-80509875D02*
X176983334Y-79986065D01*
X176983334Y-79986065D02*
X177016667Y-79890827D01*
X177016667Y-79890827D02*
X177083334Y-79843208D01*
X177083334Y-79843208D02*
X177183334Y-79843208D01*
X177183334Y-79843208D02*
X177250001Y-79890827D01*
X177250001Y-79890827D02*
X177283334Y-79938446D01*
X175783335Y-80509875D02*
X176116668Y-80509875D01*
X176116668Y-80509875D02*
X176116668Y-79509875D01*
X175250001Y-80509875D02*
X175250001Y-79986065D01*
X175250001Y-79986065D02*
X175283334Y-79890827D01*
X175283334Y-79890827D02*
X175350001Y-79843208D01*
X175350001Y-79843208D02*
X175483334Y-79843208D01*
X175483334Y-79843208D02*
X175550001Y-79890827D01*
X175250001Y-80462256D02*
X175316668Y-80509875D01*
X175316668Y-80509875D02*
X175483334Y-80509875D01*
X175483334Y-80509875D02*
X175550001Y-80462256D01*
X175550001Y-80462256D02*
X175583334Y-80367017D01*
X175583334Y-80367017D02*
X175583334Y-80271779D01*
X175583334Y-80271779D02*
X175550001Y-80176541D01*
X175550001Y-80176541D02*
X175483334Y-80128922D01*
X175483334Y-80128922D02*
X175316668Y-80128922D01*
X175316668Y-80128922D02*
X175250001Y-80081303D01*
X174916668Y-80509875D02*
X174916668Y-79509875D01*
X174916668Y-79890827D02*
X174850001Y-79843208D01*
X174850001Y-79843208D02*
X174716668Y-79843208D01*
X174716668Y-79843208D02*
X174650001Y-79890827D01*
X174650001Y-79890827D02*
X174616668Y-79938446D01*
X174616668Y-79938446D02*
X174583335Y-80033684D01*
X174583335Y-80033684D02*
X174583335Y-80319398D01*
X174583335Y-80319398D02*
X174616668Y-80414636D01*
X174616668Y-80414636D02*
X174650001Y-80462256D01*
X174650001Y-80462256D02*
X174716668Y-80509875D01*
X174716668Y-80509875D02*
X174850001Y-80509875D01*
X174850001Y-80509875D02*
X174916668Y-80462256D01*
X184983332Y-81119819D02*
X184749999Y-82119819D01*
X184749999Y-82119819D02*
X184516665Y-81119819D01*
X184283332Y-81596009D02*
X184049999Y-81596009D01*
X183949999Y-82119819D02*
X184283332Y-82119819D01*
X184283332Y-82119819D02*
X184283332Y-81119819D01*
X184283332Y-81119819D02*
X183949999Y-81119819D01*
X183249999Y-82119819D02*
X183483332Y-81643628D01*
X183649999Y-82119819D02*
X183649999Y-81119819D01*
X183649999Y-81119819D02*
X183383332Y-81119819D01*
X183383332Y-81119819D02*
X183316666Y-81167438D01*
X183316666Y-81167438D02*
X183283332Y-81215057D01*
X183283332Y-81215057D02*
X183249999Y-81310295D01*
X183249999Y-81310295D02*
X183249999Y-81453152D01*
X183249999Y-81453152D02*
X183283332Y-81548390D01*
X183283332Y-81548390D02*
X183316666Y-81596009D01*
X183316666Y-81596009D02*
X183383332Y-81643628D01*
X183383332Y-81643628D02*
X183649999Y-81643628D01*
X182983332Y-82072200D02*
X182883332Y-82119819D01*
X182883332Y-82119819D02*
X182716666Y-82119819D01*
X182716666Y-82119819D02*
X182649999Y-82072200D01*
X182649999Y-82072200D02*
X182616666Y-82024580D01*
X182616666Y-82024580D02*
X182583332Y-81929342D01*
X182583332Y-81929342D02*
X182583332Y-81834104D01*
X182583332Y-81834104D02*
X182616666Y-81738866D01*
X182616666Y-81738866D02*
X182649999Y-81691247D01*
X182649999Y-81691247D02*
X182716666Y-81643628D01*
X182716666Y-81643628D02*
X182849999Y-81596009D01*
X182849999Y-81596009D02*
X182916666Y-81548390D01*
X182916666Y-81548390D02*
X182949999Y-81500771D01*
X182949999Y-81500771D02*
X182983332Y-81405533D01*
X182983332Y-81405533D02*
X182983332Y-81310295D01*
X182983332Y-81310295D02*
X182949999Y-81215057D01*
X182949999Y-81215057D02*
X182916666Y-81167438D01*
X182916666Y-81167438D02*
X182849999Y-81119819D01*
X182849999Y-81119819D02*
X182683332Y-81119819D01*
X182683332Y-81119819D02*
X182583332Y-81167438D01*
X182283332Y-82119819D02*
X182283332Y-81119819D01*
X181816666Y-81119819D02*
X181683332Y-81119819D01*
X181683332Y-81119819D02*
X181616666Y-81167438D01*
X181616666Y-81167438D02*
X181549999Y-81262676D01*
X181549999Y-81262676D02*
X181516666Y-81453152D01*
X181516666Y-81453152D02*
X181516666Y-81786485D01*
X181516666Y-81786485D02*
X181549999Y-81976961D01*
X181549999Y-81976961D02*
X181616666Y-82072200D01*
X181616666Y-82072200D02*
X181683332Y-82119819D01*
X181683332Y-82119819D02*
X181816666Y-82119819D01*
X181816666Y-82119819D02*
X181883332Y-82072200D01*
X181883332Y-82072200D02*
X181949999Y-81976961D01*
X181949999Y-81976961D02*
X181983332Y-81786485D01*
X181983332Y-81786485D02*
X181983332Y-81453152D01*
X181983332Y-81453152D02*
X181949999Y-81262676D01*
X181949999Y-81262676D02*
X181883332Y-81167438D01*
X181883332Y-81167438D02*
X181816666Y-81119819D01*
X181216666Y-82119819D02*
X181216666Y-81119819D01*
X181216666Y-81119819D02*
X180816666Y-82119819D01*
X180816666Y-82119819D02*
X180816666Y-81119819D01*
X179583333Y-82119819D02*
X179983333Y-82119819D01*
X179783333Y-82119819D02*
X179783333Y-81119819D01*
X179783333Y-81119819D02*
X179850000Y-81262676D01*
X179850000Y-81262676D02*
X179916667Y-81357914D01*
X179916667Y-81357914D02*
X179983333Y-81405533D01*
X179283333Y-82024580D02*
X179250000Y-82072200D01*
X179250000Y-82072200D02*
X179283333Y-82119819D01*
X179283333Y-82119819D02*
X179316666Y-82072200D01*
X179316666Y-82072200D02*
X179283333Y-82024580D01*
X179283333Y-82024580D02*
X179283333Y-82119819D01*
X178816667Y-81119819D02*
X178750000Y-81119819D01*
X178750000Y-81119819D02*
X178683333Y-81167438D01*
X178683333Y-81167438D02*
X178650000Y-81215057D01*
X178650000Y-81215057D02*
X178616667Y-81310295D01*
X178616667Y-81310295D02*
X178583333Y-81500771D01*
X178583333Y-81500771D02*
X178583333Y-81738866D01*
X178583333Y-81738866D02*
X178616667Y-81929342D01*
X178616667Y-81929342D02*
X178650000Y-82024580D01*
X178650000Y-82024580D02*
X178683333Y-82072200D01*
X178683333Y-82072200D02*
X178750000Y-82119819D01*
X178750000Y-82119819D02*
X178816667Y-82119819D01*
X178816667Y-82119819D02*
X178883333Y-82072200D01*
X178883333Y-82072200D02*
X178916667Y-82024580D01*
X178916667Y-82024580D02*
X178950000Y-81929342D01*
X178950000Y-81929342D02*
X178983333Y-81738866D01*
X178983333Y-81738866D02*
X178983333Y-81500771D01*
X178983333Y-81500771D02*
X178950000Y-81310295D01*
X178950000Y-81310295D02*
X178916667Y-81215057D01*
X178916667Y-81215057D02*
X178883333Y-81167438D01*
X178883333Y-81167438D02*
X178816667Y-81119819D01*
M02*
