M48
; DRILL file {KiCad 8.0.6} date 2025-03-13T12:14:43-0400
; FORMAT={-:-/ absolute / metric / decimal}
; #@! TF.CreationDate,2025-03-13T12:14:43-04:00
; #@! TF.GenerationSoftware,Kicad,Pcbnew,8.0.6
; #@! TF.FileFunction,Plated,1,4,PTH
FMAT,2
METRIC
; #@! TA.AperFunction,Plated,PTH,ViaDrill
T1C0.300
; #@! TA.AperFunction,Plated,PTH,ComponentDrill
T2C0.500
; #@! TA.AperFunction,Plated,PTH,ComponentDrill
T3C1.000
; #@! TA.AperFunction,Plated,PTH,ComponentDrill
T4C3.200
%
G90
G05
T1
X160.0Y-76.5
X163.75Y-101.25
X166.0Y-66.75
X167.0Y-76.5
X167.0Y-81.75
X167.637Y-63.362
X174.625Y-68.125
X177.706Y-64.6
X178.75Y-71.5
X178.75Y-73.0
X179.387Y-68.1
X183.75Y-71.5
X187.75Y-78.25
X188.0Y-66.5
X188.75Y-80.835
X191.25Y-88.75
X192.0Y-70.75
X193.612Y-74.25
X194.7Y-86.3
X197.25Y-96.5
X200.612Y-74.138
T2
X153.6Y-56.0
X153.6Y-104.0
X154.303Y-54.303
X154.303Y-57.697
X154.303Y-102.303
X154.303Y-105.697
X156.0Y-53.6
X156.0Y-58.4
X156.0Y-101.6
X156.0Y-106.4
X157.697Y-54.303
X157.697Y-57.697
X157.697Y-102.303
X157.697Y-105.697
X158.4Y-56.0
X158.4Y-104.0
X165.0Y-56.25
X166.25Y-56.25
X167.5Y-56.25
X168.75Y-56.25
X170.0Y-56.25
X171.25Y-56.25
X172.5Y-56.25
X173.75Y-56.25
X201.6Y-56.0
X201.6Y-104.0
X202.303Y-54.303
X202.303Y-57.697
X202.303Y-102.303
X202.303Y-105.697
X204.0Y-53.6
X204.0Y-58.4
X204.0Y-101.6
X204.0Y-106.4
X205.697Y-54.303
X205.697Y-57.697
X205.697Y-102.303
X205.697Y-105.697
X206.4Y-56.0
X206.4Y-104.0
T3
X154.18Y-90.75
X154.25Y-96.75
X156.55Y-69.915
X156.55Y-72.455
X156.55Y-74.995
X156.55Y-77.535
X156.55Y-80.075
X156.72Y-90.75
X156.79Y-96.75
X159.26Y-90.75
X159.33Y-96.75
X161.8Y-90.75
X161.87Y-96.75
X168.0Y-102.735
X168.0Y-105.275
X175.5Y-105.25
X178.04Y-105.25
X182.42Y-55.75
X184.96Y-55.75
X185.235Y-105.25
X187.5Y-55.75
X187.775Y-105.25
X190.04Y-55.75
X192.58Y-55.75
X192.96Y-105.25
X195.5Y-105.25
X204.625Y-70.675
X204.625Y-73.215
X204.625Y-75.755
X204.625Y-78.295
X204.625Y-80.835
X205.0Y-92.725
X205.0Y-95.265
T4
X156.0Y-56.0
X156.0Y-104.0
X204.0Y-56.0
X204.0Y-104.0
M30
